<?xml version="1.0" encoding="UTF-8"?>
<svg version="1.1" xmlns="http://www.w3.org/2000/svg" width="720" height="720">
<path d="M0 0 C1.68323608 1.31235355 3.35374165 2.64154905 5 4 C5.680625 4.309375 6.36125 4.61875 7.0625 4.9375 C9.79609839 6.43657008 11.22995598 8.47136569 13 11 C13 11.66 13 12.32 13 13 C13.99 13 14.98 13 16 13 C17.82421875 15.44921875 17.82421875 15.44921875 19.6875 18.6875 C20.62142578 20.27111328 20.62142578 20.27111328 21.57421875 21.88671875 C22.98820898 24.97425357 23.49585106 26.66904759 23 30 C19.37458691 33.62541309 13.65183475 32.41274326 8.75 32.4375 C7.61691406 32.47037109 6.48382813 32.50324219 5.31640625 32.53710938 C-4.04426347 32.59746539 -4.04426347 32.59746539 -7.7578125 29.640625 C-10.12259993 26.85561402 -10.43360324 25.49278001 -11 22 C-12.81601365 20.79996657 -12.81601365 20.79996657 -15 20 C-17.25 18.5 -17.25 18.5 -19 17 C-19 16.34 -19 15.68 -19 15 C-22.1308235 13.30413727 -25.38521413 12.0766692 -28.7265625 10.859375 C-30.3179087 10.2578352 -31.8954533 9.61907701 -33.4609375 8.953125 C-34.29882812 8.59734375 -35.13671875 8.2415625 -36 7.875 C-37.1446875 7.37613281 -37.1446875 7.37613281 -38.3125 6.8671875 C-46.45257817 4.24059251 -55.23624688 4.81667346 -63.6875 4.8125 C-64.97333984 4.80025391 -66.25917969 4.78800781 -67.58398438 4.77539062 C-74.98845352 4.76416606 -82.01288138 5.25687096 -89.30395508 6.5690918 C-92 7 -92 7 -96 7 C-96 7.66 -96 8.32 -96 9 C-100.98660092 11.62929867 -105.6634942 13.64956641 -111.1171875 15.09375 C-113.58539151 16.28176521 -113.93230084 17.53036541 -115 20 C-117.5 22.75 -117.5 22.75 -120 25 C-120.66 25 -121.32 25 -122 25 C-122.33 26.65 -122.66 28.3 -123 30 C-123.66 30 -124.32 30 -125 30 C-125.46036629 31.35347689 -125.91816537 32.707827 -126.375 34.0625 C-126.63023437 34.81660156 -126.88546875 35.57070313 -127.1484375 36.34765625 C-127.42945313 37.22292969 -127.71046875 38.09820312 -128 39 C-128.35449219 40.08152344 -128.70898438 41.16304688 -129.07421875 42.27734375 C-132.5225118 56.14326476 -129.89254382 69.95557465 -123.16796875 82.38671875 C-119.64278672 88.03952543 -116.11682118 92.32970963 -110.46875 95.9140625 C-109.9840625 96.27242188 -109.499375 96.63078125 -109 97 C-109 97.66 -109 98.32 -109 99 C-108.41992188 99.12761719 -107.83984375 99.25523437 -107.2421875 99.38671875 C-105.02733556 99.9925232 -103.1847874 100.80665051 -101.125 101.8125 C-80.38649694 111.14312371 -53.2531797 112.20843497 -31.7578125 104.60546875 C-26.64911174 102.56066837 -22.09148936 99.73755992 -17.5390625 96.671875 C-15 95 -15 95 -12 94 C-10.97348627 92.28480253 -10.97348627 92.28480253 -10 90 C-9.34 88.96875 -8.68 87.9375 -8 86.875 C-5.36299057 82.20230351 -5.36299057 82.20230351 -4 73 C-22.81 73 -41.62 73 -61 73 C-61 55 -61 55 -60 54 C-57.42426411 53.899602 -54.87531963 53.86382733 -52.29907227 53.87060547 C-51.49259247 53.86885315 -50.68611267 53.86710083 -49.85519409 53.86529541 C-47.17557658 53.86087572 -44.49602449 53.86381556 -41.81640625 53.8671875 C-39.96174609 53.86651443 -38.10708601 53.86554438 -36.25242615 53.86428833 C-32.35927493 53.86281115 -28.46614661 53.86496633 -24.57299805 53.86962891 C-19.57465317 53.87532225 -14.57636204 53.87204982 -9.57801914 53.86605644 C-5.7459828 53.86244801 -1.91395925 53.86359079 1.91807747 53.86618423 C3.76133289 53.86685293 5.60458947 53.86602709 7.44784355 53.86370468 C10.02181971 53.86117398 12.59570813 53.86502487 15.16967773 53.87060547 C15.93702744 53.86858124 16.70437714 53.86655701 17.49497986 53.86447144 C22.77147319 53.88573659 22.77147319 53.88573659 25 55 C27.52623056 66.78907596 25.69666961 83.63954762 19.16796875 93.87109375 C17.18150666 96.64624394 15.13225351 99.33570627 13 102 C12.31421875 102.89074219 11.6284375 103.78148437 10.921875 104.69921875 C8.58609337 107.49551018 6.08251838 109.06587082 3 111 C1.8291407 111.84841046 0.66256854 112.70276388 -0.5 113.5625 C-3.5334634 115.73781257 -6.59780388 117.44066011 -10 119 C-11.05574219 119.49113281 -12.11148438 119.98226562 -13.19921875 120.48828125 C-16.96505239 122.09501059 -20.78598906 122.89731882 -24.8125 123.5625 C-26.13164421 123.79220173 -27.45065294 124.02268273 -28.76953125 124.25390625 C-29.41289429 124.36297806 -30.05625732 124.47204987 -30.71911621 124.58442688 C-32.23567698 124.86074165 -33.74721741 125.16624352 -35.25195312 125.50102234 C-41.21091923 126.81856951 -46.82580063 127.29480869 -52.91796875 127.265625 C-53.81945145 127.26753845 -54.72093414 127.2694519 -55.6497345 127.27142334 C-57.53789553 127.27277335 -59.42606623 127.26916056 -61.31420898 127.26074219 C-64.19080497 127.24998764 -67.06678195 127.26069736 -69.94335938 127.2734375 C-71.78906386 127.27211643 -73.63476797 127.26955513 -75.48046875 127.265625 C-76.33166794 127.26967346 -77.18286713 127.27372192 -78.05986023 127.27789307 C-83.10753238 127.23851244 -87.19710067 126.53723189 -92 125 C-93.66627298 124.96377667 -95.33405374 124.95100158 -97 125 C-97.33 124.67 -97.66 124.34 -98 124 C-99.57606197 123.65268264 -101.16137078 123.34685523 -102.75 123.0625 C-106.38993358 122.36450137 -109.60293484 121.50980674 -113 120 C-114.051875 119.649375 -115.10375 119.29875 -116.1875 118.9375 C-119 118 -119 118 -121 117 C-121 116.34 -121 115.68 -121 115 C-121.78375 114.95875 -122.5675 114.9175 -123.375 114.875 C-132.10570806 112.76758771 -138.88439409 107.26326553 -144 100 C-145.4375 97 -145.4375 97 -146 95 C-146.66 95 -147.32 95 -148 95 C-151 90.61538462 -151 90.61538462 -151 88 C-151.99 87.67 -152.98 87.34 -154 87 C-154.87890625 84.70703125 -154.87890625 84.70703125 -155.5625 81.8125 C-156.31428685 78.75418386 -157.05727411 75.84090524 -158.125 72.875 C-161.87792117 60.5439733 -161.99024985 42.86006422 -156.22265625 31.2421875 C-155.81917969 30.50226563 -155.41570312 29.76234375 -155 29 C-154.56558594 28.19820313 -154.13117188 27.39640625 -153.68359375 26.5703125 C-148.19993576 16.97764647 -141.49354189 7.08527227 -131.5 1.9375 C-128.08388437 0.16844012 -125.04814021 -1.66014133 -122 -4 C-116.96092197 -7.09166141 -112.12385932 -8.59850603 -106.296875 -9.5078125 C-103.9992948 -9.89313428 -103.9992948 -9.89313428 -102.109375 -10.98828125 C-99.28444701 -12.34320042 -96.59778263 -12.63975214 -93.5 -13.0625 C-89.3056169 -13.59512899 -89.3056169 -13.59512899 -85.19067383 -14.51635742 C-58.35981381 -20.43989846 -23.38773928 -13.66577707 0 0 Z " fill="#FEFEFE" transform="translate(339,260)"/>
<path d="M0 0 C4.28086932 3.61909242 7.22647322 6.77160846 9.36328125 12.05078125 C10.35328125 13.04078125 10.35328125 13.04078125 11.36328125 14.05078125 C11.6640625 16.328125 11.6640625 16.328125 11.67578125 18.98828125 C11.69253906 19.86355469 11.70929688 20.73882812 11.7265625 21.640625 C11.28507806 24.5696132 10.67417289 25.25543785 8.36328125 27.05078125 C4.93606958 27.68339728 1.46734611 27.51413916 -2.01171875 27.48828125 C-2.95789063 27.50826172 -3.9040625 27.52824219 -4.87890625 27.54882812 C-9.23623197 27.54576821 -11.88650901 27.50709439 -15.66796875 25.20703125 C-18.72147779 21.86271182 -20.96549731 18.18669446 -23.26171875 14.30078125 C-25.52486952 10.59744362 -27.58774963 9.51496503 -31.57421875 8.05078125 C-32.44949219 7.72078125 -33.32476562 7.39078125 -34.2265625 7.05078125 C-43.63076698 4.29307638 -52.74593882 3.71171493 -62.51171875 3.73828125 C-63.68863281 3.72216797 -64.86554688 3.70605469 -66.078125 3.68945312 C-79.00027198 3.68234523 -90.30202112 6.44009745 -101.57421875 12.67578125 C-104.73790763 16.31881693 -105.48157756 20.28018952 -105.63671875 25.05078125 C-104.53593594 27.94320752 -104.53593594 27.94320752 -102.63671875 30.05078125 C-101.95575453 31.37686947 -101.28341289 32.70764726 -100.63671875 34.05078125 C-99.64671875 34.05078125 -98.65671875 34.05078125 -97.63671875 34.05078125 C-97.63671875 34.71078125 -97.63671875 35.37078125 -97.63671875 36.05078125 C-96.64671875 36.20546875 -96.64671875 36.20546875 -95.63671875 36.36328125 C-92.63671875 37.05078125 -92.63671875 37.05078125 -89.06640625 38.46484375 C-84.38668802 40.24081069 -79.67576898 41.21598475 -74.76171875 42.11328125 C-73.85204346 42.2839209 -72.94236816 42.45456055 -72.00512695 42.63037109 C-65.25611232 43.85597198 -58.50622256 44.7584098 -51.67431641 45.36743164 C-47.51464598 45.7539759 -43.63562667 46.48064269 -39.59936523 47.55566406 C-36.45843791 48.34802637 -33.26772861 48.82939191 -30.07421875 49.36328125 C-17.25059428 51.68198287 -4.49130485 55.63874997 6.36328125 63.05078125 C6.69328125 64.04078125 7.02328125 65.03078125 7.36328125 66.05078125 C8.35328125 66.38078125 9.34328125 66.71078125 10.36328125 67.05078125 C16.16057912 75.16699826 16.47875716 84.51494297 15.36328125 94.05078125 C14.38093097 97.31403926 13.16234696 100.15942564 11.36328125 103.05078125 C10.70328125 103.05078125 10.04328125 103.05078125 9.36328125 103.05078125 C9.11578125 103.85515625 8.86828125 104.65953125 8.61328125 105.48828125 C7.36328125 108.05078125 7.36328125 108.05078125 5.23828125 108.86328125 C4.61953125 108.92515625 4.00078125 108.98703125 3.36328125 109.05078125 C3.36328125 109.71078125 3.36328125 110.37078125 3.36328125 111.05078125 C-5.89758375 118.00061665 -15.23359307 121.55039141 -26.53125 123.65551758 C-28.02753684 123.93641837 -29.5194913 124.24084276 -31.0078125 124.5612793 C-40.40618166 126.4048701 -49.83227489 126.50660965 -59.37646484 126.68383789 C-62.29037425 126.73882197 -65.20365229 126.8089112 -68.1171875 126.88085938 C-69.97003304 126.92145153 -71.82289738 126.96119675 -73.67578125 127 C-74.98187851 127.03114143 -74.98187851 127.03114143 -76.31436157 127.06291199 C-82.40525892 127.16651116 -82.40525892 127.16651116 -84.63671875 126.05078125 C-86.11500778 125.9701473 -87.59452612 125.91175792 -89.07421875 125.86328125 C-102.00433198 124.75449845 -114.62930389 120.31945608 -124.63671875 112.05078125 C-126.00589907 111.10480212 -127.38039728 110.16644192 -128.76171875 109.23828125 C-129.71046875 108.51640625 -130.65921875 107.79453125 -131.63671875 107.05078125 C-131.63671875 106.39078125 -131.63671875 105.73078125 -131.63671875 105.05078125 C-132.53390625 104.95796875 -132.53390625 104.95796875 -133.44921875 104.86328125 C-136.64995606 103.67443596 -137.20147183 102.11699059 -138.63671875 99.05078125 C-140.04743631 94.71348193 -140.92350632 90.63938241 -140.63671875 86.05078125 C-136.92396319 84.19440347 -132.47243913 84.86603073 -128.38671875 84.86328125 C-127.44441406 84.85103516 -126.50210937 84.83878906 -125.53125 84.82617188 C-116.0965801 84.80632334 -116.0965801 84.80632334 -111.63671875 87.05078125 C-110.89412526 89.3610721 -110.22528075 91.69653325 -109.63671875 94.05078125 C-107.75301404 95.36774795 -107.75301404 95.36774795 -105.63671875 96.05078125 C-105.17394531 96.52 -104.71117187 96.98921875 -104.234375 97.47265625 C-93.94336479 107.63785949 -76.68996781 107.30931714 -63.34545898 107.40087891 C-61.59727567 107.41733012 -59.84915653 107.44447447 -58.10131836 107.48291016 C-44.25333134 107.78478079 -30.2575584 107.04260762 -19.15625 97.5859375 C-15.94771476 94.3444096 -13.96596646 91.59824548 -13.01171875 87.11328125 C-14.16534731 81.46050131 -18.40981976 77.83935388 -22.82421875 74.36328125 C-36.97676554 65.089878 -56.97106922 64.10926345 -73.43359375 62.73388672 C-78.05432039 62.32770324 -82.17012458 61.37480738 -86.63671875 60.05078125 C-88.29831105 59.85544525 -89.96614292 59.70395395 -91.63671875 59.61328125 C-96.13568277 59.23893477 -99.51081759 57.91911385 -103.63671875 56.05078125 C-104.87421875 55.88578125 -106.11171875 55.72078125 -107.38671875 55.55078125 C-111.03583603 54.98937859 -111.20106761 54.49867184 -113.63671875 52.05078125 C-115.69467094 51.18596087 -117.76211403 50.55065962 -119.89453125 49.89453125 C-120.46945312 49.61609375 -121.044375 49.33765625 -121.63671875 49.05078125 C-122.13171875 47.56578125 -122.13171875 47.56578125 -122.63671875 46.05078125 C-123.96010507 45.36458094 -125.29621823 44.70291664 -126.63671875 44.05078125 C-131.2700307 40.52946417 -134.06992315 38.16815706 -135.12109375 32.38671875 C-136.13139194 21.12486537 -134.98819176 12.92738503 -127.63671875 4.05078125 C-122.03723821 -2.28428788 -114.16044138 -5.45970938 -106.63671875 -8.94921875 C-105.8478125 -9.35398438 -105.05890625 -9.75875 -104.24609375 -10.17578125 C-75.62124623 -23.66446839 -25.23969048 -18.65867489 0 0 Z " fill="#FEFEFE" transform="translate(524.63671875,260.94921875)"/>
<path d="M0 0 C2.6878264 0.12562692 2.6878264 0.12562692 5.6878264 2.12562692 C6.5003264 4.00062692 6.5003264 4.00062692 6.6878264 6.12562692 C5.7503264 8.37562692 5.7503264 8.37562692 4.6878264 10.12562692 C4.0278264 10.12562692 3.3678264 10.12562692 2.6878264 10.12562692 C2.6878264 10.78562692 2.6878264 11.44562692 2.6878264 12.12562692 C-51.15671618 13.01220834 -104.99109371 13.30222803 -158.84240222 13.32581556 C-165.23185021 13.32863558 -171.62129682 13.33287927 -178.01074386 13.33731973 C-195.82072898 13.34941666 -213.63071307 13.35975802 -231.4407022 13.36319482 C-233.12281513 13.36352417 -233.12281513 13.36352417 -234.83891015 13.36386018 C-235.96219403 13.36407845 -237.08547792 13.36429673 -238.24280071 13.36452162 C-240.51722709 13.36496503 -242.79165347 13.36541159 -245.06607985 13.3658613 C-246.19415206 13.36608273 -247.32222426 13.36630416 -248.48448047 13.3665323 C-266.95633382 13.37052121 -285.42814875 13.3881401 -303.89998713 13.41122082 C-323.01429657 13.43490809 -342.12858651 13.44739417 -361.24291086 13.44856274 C-371.91784778 13.44947691 -382.59273337 13.45517136 -393.26765609 13.47338235 C-402.29836034 13.48874206 -411.32899708 13.49392534 -420.35971192 13.48564425 C-424.95850651 13.48173355 -429.55716479 13.48269079 -434.15594268 13.4967016 C-438.36249166 13.50940257 -442.56880123 13.50827719 -446.77534971 13.49611089 C-448.29610491 13.49414832 -449.81687689 13.49725811 -451.33760849 13.50595525 C-465.34940856 13.58103158 -465.34940856 13.58103158 -471.3121736 10.12562692 C-470.5621736 3.37562692 -470.5621736 3.37562692 -468.3121736 1.12562692 C-465.77924208 0.9253798 -463.35517024 0.85139814 -460.82076049 0.86391389 C-460.03515662 0.85991783 -459.24955274 0.85592177 -458.44014269 0.85180461 C-455.77964668 0.84074304 -453.11935565 0.84404383 -450.45884109 0.84715402 C-448.54335655 0.84215605 -446.62787412 0.83628174 -444.71239471 0.82960129 C-439.42675459 0.81372596 -434.14116751 0.81036648 -428.85550642 0.80895269 C-423.16346989 0.80527157 -417.47146291 0.79012232 -411.7794435 0.77633798 C-401.90896577 0.75401846 -392.03849848 0.73903321 -382.16800094 0.72897089 C-367.8902377 0.71440566 -353.61251078 0.6888739 -339.3347688 0.6606396 C-316.16367211 0.61511894 -292.99257116 0.57851109 -269.82145095 0.54750192 C-247.32241812 0.51737128 -224.82339812 0.48304273 -202.32438064 0.44300973 C-201.63160607 0.44177873 -200.9388315 0.44054773 -200.22506377 0.43927942 C-193.26741301 0.42691167 -186.30976241 0.41445934 -179.35211192 0.40194694 C-135.11713061 0.32240705 -90.8821419 0.24925754 -46.64713454 0.18568552 C-45.53985417 0.18409039 -44.43257379 0.18249527 -43.29173946 0.18085182 C-36.08564006 0.17048121 -28.87954046 0.16025029 -21.67344069 0.15013254 C-20.76121115 0.14884278 -19.8489816 0.14755303 -18.90910873 0.14622419 C-16.37505631 0.14265503 -13.84100382 0.13914513 -11.30695128 0.13565767 C-10.57726443 0.13462502 -9.84757758 0.13359237 -9.095779 0.13252842 C-6.05920254 0.12841283 -3.03491297 0.11511075 0 0 Z " fill="#FCFCFD" transform="translate(592.3121736049652,409.87437307834625)"/>
<path d="M0 0 C1.05838127 6.00860549 1.11662571 11.84627561 1.0625 17.9375 C1.05798828 18.90751953 1.05347656 19.87753906 1.04882812 20.87695312 C1.0371315 23.2513676 1.02074086 25.62565021 1 28 C4.78544075 26.73818642 5.21125321 25.48797952 7.25 22.125 C7.85714844 21.13757813 8.46429688 20.15015625 9.08984375 19.1328125 C9.72019531 18.09898437 10.35054688 17.06515625 11 16 C12.26640566 13.99719346 13.53704644 11.99705673 14.8125 10 C15.37582031 9.113125 15.93914062 8.22625 16.51953125 7.3125 C17.66098012 5.52955084 18.82568341 3.76147488 20 2 C20.66 2 21.32 2 22 2 C22.33 1.01 22.66 0.02 23 -1 C26.23004877 -2.61502439 29.50693777 -2.57540754 33 -2 C35.5625 -0.0625 35.5625 -0.0625 38 3 C38.54398437 3.66644531 39.08796875 4.33289063 39.6484375 5.01953125 C43.25292972 9.51334141 46.51072867 14.17447923 49.65234375 19 C51.07639401 21.18001749 51.07639401 21.18001749 53.25 23.75 C55.06497729 26.08354224 56.04533337 28.21555566 57 31 C55.68 31.33 54.36 31.66 53 32 C53 32.66 53 33.32 53 34 C50 35 50 35 48.28125 34.21484375 C44.10456888 31.21972374 42.16513109 28.7632884 40 24 C36.17959134 22.72653045 32.54535774 22.73766194 28.5625 22.6875 C27.4168457 22.64399414 27.4168457 22.64399414 26.24804688 22.59960938 C22.48981844 22.55708808 20.61908745 22.54130803 17.52734375 24.83203125 C15.83622795 27.01154841 15.83622795 27.01154841 15 30 C12.4375 31.1875 12.4375 31.1875 10 32 C10 32.66 10 33.32 10 34 C6.3323555 34.20375803 4.18443445 33.80451285 1 32 C0.01 31.67 -0.98 31.34 -2 31 C-2.33 31.99 -2.66 32.98 -3 34 C-5.66666667 33.33333333 -8.33333333 32.66666667 -11 32 C-11.79265639 26.67787852 -12.42978066 21.3503559 -13 16 C-14.1063219 17.56097474 -15.20995785 19.12385327 -16.3125 20.6875 C-16.92738281 21.55761719 -17.54226562 22.42773438 -18.17578125 23.32421875 C-20.04455346 25.97016004 -20.04455346 25.97016004 -21.54296875 28.83203125 C-22.26419922 29.90517578 -22.26419922 29.90517578 -23 31 C-23.99 31 -24.98 31 -26 31 C-26.33 31.99 -26.66 32.98 -27 34 C-33.56338619 32.63778777 -33.56338619 32.63778777 -35.54296875 29.74609375 C-36.02378906 28.83988281 -36.50460938 27.93367188 -37 27 C-37.99552962 25.24745306 -38.99549593 23.49741854 -40 21.75 C-40.495 20.87859375 -40.99 20.0071875 -41.5 19.109375 C-42.89618462 16.70689791 -42.89618462 16.70689791 -46 16 C-45.67 16.33 -45.34 16.66 -45 17 C-43.87743869 19.24512262 -43.86586238 20.51456649 -43.875 23 C-43.87242187 23.70125 -43.86984375 24.4025 -43.8671875 25.125 C-44 27 -44 27 -45 29 C-45.66 29 -46.32 29 -47 29 C-47.495 31.475 -47.495 31.475 -48 34 C-50.8125 34.6875 -50.8125 34.6875 -54 35 C-56.08130637 33.49284711 -56.85613218 32.28773563 -58 30 C-58.01644664 27.67418703 -57.9639422 25.3477536 -57.87890625 23.0234375 C-57.85529526 22.33819 -57.83168427 21.6529425 -57.80735779 20.94692993 C-57.73072143 18.75607584 -57.64669754 16.56557528 -57.5625 14.375 C-57.50927924 12.89064236 -57.45653884 11.40626741 -57.40429688 9.921875 C-57.2751067 6.28103263 -57.13928926 2.64047156 -57 -1 C-54.75165504 -1.13526139 -52.50097486 -1.23210804 -50.25 -1.3125 C-48.99703125 -1.37050781 -47.7440625 -1.42851562 -46.453125 -1.48828125 C-43 -1 -43 -1 -40.58203125 1.37890625 C-39.16474208 3.72705695 -38.64947775 5.40208902 -38 8 C-37.01 8.33 -36.02 8.66 -35 9 C-34.24705307 10.7023148 -33.50088198 12.40896137 -32.828125 14.14453125 C-31.64611576 16.79290102 -29.90306286 18.83444571 -28 21 C-27.54625 20.175 -27.0925 19.35 -26.625 18.5 C-26.08875 17.675 -25.5525 16.85 -25 16 C-24.34 16 -23.68 16 -23 16 C-22.773125 15.175 -22.54625 14.35 -22.3125 13.5 C-20.31345982 8.16922619 -17.14413349 3.71620023 -14 -1 C-9.11938211 -2.4287074 -4.51991652 -2.4786639 0 0 Z M28 8 C26.68 10.31 25.36 12.62 24 15 C26.64 15.33 29.28 15.66 32 16 C33.38891928 13.00068835 33.38891928 13.00068835 31.6875 10.3125 C31.130625 9.549375 30.57375 8.78625 30 8 C29.34 8 28.68 8 28 8 Z " fill="#FDFDFE" transform="translate(179,442)"/>
<path d="M0 0 C5.1411629 -0.07449853 10.28200729 -0.12876593 15.42358398 -0.16479492 C17.1703845 -0.17982429 18.91714765 -0.20025354 20.66381836 -0.22631836 C23.18352515 -0.2629608 25.70273039 -0.27978492 28.22265625 -0.29296875 C29.3824575 -0.31619453 29.3824575 -0.31619453 30.56568909 -0.33988953 C35.77951489 -0.34148552 39.36266214 0.57704395 44 3 C46.27575811 5.65505112 45.99739494 7.0755466 45.875 10.625 C45 14 45 14 42.9375 15.4375 C41.9784375 15.7159375 41.9784375 15.7159375 41 16 C41 16.66 41 17.32 41 18 C40.34 18.66 39.68 19.32 39 20 C39 20.66 39 21.32 39 22 C40.051875 22.309375 40.051875 22.309375 41.125 22.625 C44.76553241 24.36612419 47.67883635 26.66581991 50 30 C50 31.32 50 32.64 50 34 C49.01 34 48.02 34 47 34 C46.67 34.99 46.34 35.98 46 37 C42.09903945 36.43183168 39.46130366 35.30753577 36.1875 33.125 C35.39730469 32.61195313 34.60710938 32.09890625 33.79296875 31.5703125 C33.20128906 31.05210937 32.60960937 30.53390625 32 30 C32 29.01 32 28.02 32 27 C31.443125 26.731875 30.88625 26.46375 30.3125 26.1875 C27.8027573 24.89871321 25.4130541 23.46053274 23 22 C20.47524538 20.73762269 18.68799534 20.90143596 15.875 20.9375 C14.96492187 20.94652344 14.05484375 20.95554687 13.1171875 20.96484375 C12.06917969 20.98224609 12.06917969 20.98224609 11 21 C10.97873047 22.22976563 10.97873047 22.22976563 10.95703125 23.484375 C10.56637168 32.31116958 10.56637168 32.31116958 7.6875 35.8125 C5 37 5 37 2.9375 37 C0.23015696 35.60266166 -1.1332533 34.46088579 -3 32 C-3.54659203 28.94690923 -3.46781142 25.96708577 -3.375 22.875 C-3.37371094 22.05128906 -3.37242187 21.22757812 -3.37109375 20.37890625 C-3.28127596 14.28127596 -3.28127596 14.28127596 -1 12 C-0.53603307 9.10776497 -0.53603307 9.10776497 -0.375 5.875 C-0.30023438 4.77929688 -0.22546875 3.68359375 -0.1484375 2.5546875 C-0.09945313 1.71164062 -0.05046875 0.86859375 0 0 Z M10 7 C9.95919217 8.99958364 9.95745644 11.00045254 10 13 C12.52041311 13.19667089 15.04088272 13.38254317 17.5625 13.5625 C18.61920898 13.64661133 18.61920898 13.64661133 19.69726562 13.73242188 C24.31438431 14.05157754 28.4408752 13.80878035 33 13 C33 11.35 33 9.7 33 8 C28.3932016 5.66896001 24.28370362 5.73185888 19.25 5.8125 C18.47011719 5.81314453 17.69023438 5.81378906 16.88671875 5.81445312 C13.13845103 5.49289801 13.13845103 5.49289801 10 7 Z " fill="#FDFDFE" transform="translate(498,440)"/>
<path d="M0 0 C1.00611328 -0.03287109 2.01222656 -0.06574219 3.04882812 -0.09960938 C11.26024254 -0.1591516 11.26024254 -0.1591516 14.95703125 2.77734375 C17.3125 5.4375 17.3125 5.4375 18.3125 8.4375 C17.875 11.125 17.875 11.125 17.3125 13.4375 C15.3325 13.4375 13.3525 13.4375 11.3125 13.4375 C12.240625 14.05625 13.16875 14.675 14.125 15.3125 C20.3125 19.4375 20.3125 19.4375 20.81640625 21.42578125 C20.932123 26.01587906 20.83959879 27.82040873 17.75 31.4375 C14.07827703 33.57377518 11.49731433 34.04270619 7.3125 34.4375 C6.3225 35.0975 5.3325 35.7575 4.3125 36.4375 C-6.63569272 37.54750887 -15.40996256 36.98703768 -24.3984375 30.1328125 C-25.8125 28.875 -25.8125 28.875 -27.6875 26.4375 C-27.6875 25.1175 -27.6875 23.7975 -27.6875 22.4375 C-27.0275 22.4375 -26.3675 22.4375 -25.6875 22.4375 C-25.3575 21.4475 -25.0275 20.4575 -24.6875 19.4375 C-20.30782928 19.94676404 -17.27770572 20.84457365 -13.6875 23.4375 C-13.0275 24.4275 -12.3675 25.4175 -11.6875 26.4375 C-5.0353603 27.59898471 1.57500202 27.55084109 8.3125 27.4375 C7.9825 25.7875 7.6525 24.1375 7.3125 22.4375 C6.508125 22.458125 5.70375 22.47875 4.875 22.5 C2.3125 22.4375 2.3125 22.4375 1.3125 21.4375 C-0.01804278 21.25951154 -1.35630269 21.13824056 -2.6953125 21.04296875 C-3.51773438 20.97400391 -4.34015625 20.90503906 -5.1875 20.83398438 C-6.9133108 20.69658724 -8.63990991 20.5687007 -10.3671875 20.45117188 C-16.14973038 19.94385251 -19.85069762 18.66858885 -24.6875 15.4375 C-25.29992604 7.47596154 -25.29992604 7.47596154 -23.25 4 C-16.37930118 -0.1894505 -7.81452587 0.04558051 0 0 Z M-10.6875 6.4375 C-11.27820014 8.38353274 -11.27820014 8.38353274 -11.6875 10.4375 C-9.87344644 12.25155356 -7.31342557 11.84761814 -4.87890625 12.11328125 C-2.6875 12.4375 -2.6875 12.4375 1 13.5625 C4.33077274 14.44232676 6.06331707 14.42210089 9.3125 13.4375 C8.52875 12.65375 7.745 11.87 6.9375 11.0625 C5.39583333 9.52083333 3.85416667 7.97916667 2.3125 6.4375 C-0.81564514 6.19389927 -0.81564514 6.19389927 -4.3125 6.3125 C-6.09527344 6.33957031 -6.09527344 6.33957031 -7.9140625 6.3671875 C-8.82929687 6.39039063 -9.74453125 6.41359375 -10.6875 6.4375 Z " fill="#FDFDFD" transform="translate(577.6875,439.5625)"/>
<path d="M0 0 C0.495 1.485 0.495 1.485 1 3 C0.34 3.99 -0.32 4.98 -1 6 C-3.85742188 6.41650391 -3.85742188 6.41650391 -7.46875 6.4765625 C-9.40814453 6.52296875 -9.40814453 6.52296875 -11.38671875 6.5703125 C-12.75780213 6.5893053 -14.12889642 6.60752547 -15.5 6.625 C-18.17728374 6.67302303 -20.8541578 6.73034263 -23.53125 6.7890625 C-24.72298828 6.80662598 -25.91472656 6.82418945 -27.14257812 6.84228516 C-29.94550397 6.80723481 -29.94550397 6.80723481 -32 8 C-32 9.32 -32 10.64 -32 12 C-29.26321275 13.36839363 -26.95735576 13.21634818 -23.8984375 13.31640625 C-22.68671875 13.35830078 -21.475 13.40019531 -20.2265625 13.44335938 C-18.95554687 13.48267578 -17.68453125 13.52199219 -16.375 13.5625 C-15.09625 13.60568359 -13.8175 13.64886719 -12.5 13.69335938 C-9.33344652 13.79969886 -6.16681247 13.90172833 -3 14 C-3 15.98 -3 17.96 -3 20 C-12.9 20 -22.8 20 -33 20 C-32.67 21.98 -32.34 23.96 -32 26 C-25.51651547 26.98444368 -19.23724099 27.08715557 -12.6875 27 C-10.7331282 26.97450265 -8.77869166 26.95346574 -6.82421875 26.9375 C-5.96916748 26.92589844 -5.11411621 26.91429687 -4.2331543 26.90234375 C-2 27 -2 27 1 28 C1 29.65 1 31.3 1 33 C0.01 33.33 -0.98 33.66 -2 34 C-2 34.66 -2 35.32 -2 36 C-8.86527963 37.09967885 -15.62129236 37.2210175 -22.55297852 37.24023438 C-24.69260351 37.25002335 -26.83129932 37.28114984 -28.97070312 37.3125 C-30.33853602 37.31902392 -31.70637571 37.32427679 -33.07421875 37.328125 C-34.30744873 37.3374707 -35.54067871 37.34681641 -36.8112793 37.35644531 C-40.24313012 36.97282214 -41.60890507 36.44590205 -44 34 C-46.61058789 26.16823632 -45.04310459 16.39952947 -44.5625 8.1875 C-44.52334473 7.48794189 -44.48418945 6.78838379 -44.44384766 6.06762695 C-44.12267496 1.12267496 -44.12267496 1.12267496 -43 0 C-41.56985838 -0.15730436 -40.13258807 -0.25091853 -38.6953125 -0.31640625 C-37.8069873 -0.35846191 -36.91866211 -0.40051758 -36.00341797 -0.44384766 C-35.05354004 -0.48300293 -34.10366211 -0.5221582 -33.125 -0.5625 C-32.16352051 -0.6042334 -31.20204102 -0.6459668 -30.21142578 -0.68896484 C-20.02333223 -1.11167152 -10.1489256 -1.09930335 0 0 Z " fill="#FDFDFD" transform="translate(489,440)"/>
<path d="M0 0 C1.20527344 -0.01417969 2.41054688 -0.02835937 3.65234375 -0.04296875 C7.43552952 0.21271047 10.46599654 1.0254114 14.0625 2.1875 C13.4025 3.8375 12.7425 5.4875 12.0625 7.1875 C2.1625 7.1875 -7.7375 7.1875 -17.9375 7.1875 C-18.2675 9.1675 -18.5975 11.1475 -18.9375 13.1875 C-16.20071275 14.55589363 -13.89485576 14.40384818 -10.8359375 14.50390625 C-9.62421875 14.54580078 -8.4125 14.58769531 -7.1640625 14.63085938 C-5.89304687 14.67017578 -4.62203125 14.70949219 -3.3125 14.75 C-2.03375 14.79318359 -0.755 14.83636719 0.5625 14.88085938 C3.72905348 14.98719886 6.89568753 15.08922833 10.0625 15.1875 C10.44468767 16.84364657 10.77645102 18.51207024 11.0625 20.1875 C10.0625 21.1875 10.0625 21.1875 7.37866211 21.30102539 C6.21085205 21.29578857 5.04304199 21.29055176 3.83984375 21.28515625 C2.57978516 21.28193359 1.31972656 21.27871094 0.02148438 21.27539062 C-1.31901109 21.26703403 -2.65950588 21.25856907 -4 21.25 C-5.34439942 21.2449866 -6.6888006 21.24042342 -8.03320312 21.23632812 C-11.33467941 21.22449488 -14.63606803 21.20800971 -17.9375 21.1875 C-17.9375 23.4975 -17.9375 25.8075 -17.9375 28.1875 C-7.7075 28.5175 2.5225 28.8475 13.0625 29.1875 C13.7225 30.8375 14.3825 32.4875 15.0625 34.1875 C7.60747558 39.08651605 -0.02047547 38.43312481 -8.6875 38.5 C-10.54375 38.54350586 -10.54375 38.54350586 -12.4375 38.58789062 C-14.25507813 38.60045898 -14.25507813 38.60045898 -16.109375 38.61328125 C-17.7505127 38.63515503 -17.7505127 38.63515503 -19.42480469 38.6574707 C-22.9375 38.1875 -22.9375 38.1875 -31.9375 34.1875 C-31.6075 23.2975 -31.2775 12.4075 -30.9375 1.1875 C-8.92151689 0.08670084 -8.92151689 0.08670084 0 0 Z " fill="#FDFDFD" transform="translate(376.9375,438.8125)"/>
<path d="M0 0 C1.56645264 0.00616333 1.56645264 0.00616333 3.16455078 0.01245117 C4.32212891 0.01438477 5.47970703 0.01631836 6.67236328 0.01831055 C7.88923828 0.03055664 9.10611328 0.04280273 10.35986328 0.05541992 C12.12716797 0.05638672 12.12716797 0.05638672 13.93017578 0.05737305 C19.64544792 0.08569763 25.34989887 0.2200662 31.05517578 0.56713867 C32.44760498 0.65161255 32.44760498 0.65161255 33.86816406 0.73779297 C36.97654737 1.33783449 38.94049765 2.37164215 41.48486328 4.24291992 C43.04736328 7.49291992 43.04736328 7.49291992 43.48486328 11.24291992 C42.45033615 13.92021377 41.14104794 15.85606556 39.48486328 18.24291992 C38.16486328 18.24291992 36.84486328 18.24291992 35.48486328 18.24291992 C36.91372352 21.63646299 38.63803785 23.44034053 41.48486328 25.74291992 C44.33168871 28.04549931 46.05600304 29.84937686 47.48486328 33.24291992 C45.73486328 35.30541992 45.73486328 35.30541992 43.48486328 37.24291992 C40.37268582 36.85551194 38.00741029 35.55619499 35.35986328 33.93041992 C34.67666016 33.52178711 33.99345703 33.1131543 33.28955078 32.69213867 C31.24851804 31.05312753 30.56520881 29.59255034 29.48486328 27.24291992 C27.63514632 26.19270889 27.63514632 26.19270889 25.48486328 25.24291992 C24.82486328 24.56229492 24.16486328 23.88166992 23.48486328 23.18041992 C18.84287099 20.18246657 13.90663693 20.41586326 8.48486328 20.24291992 C8.39849609 20.97897461 8.31212891 21.7150293 8.22314453 22.47338867 C6.93120135 31.44587481 6.93120135 31.44587481 4.10986328 34.49291992 C1.48486328 36.24291992 1.48486328 36.24291992 -0.64013672 36.24291992 C-2.84575029 35.06659269 -4.00685949 34.26021757 -5.51513672 32.24291992 C-5.7956543 29.18017578 -5.7956543 29.18017578 -5.65966797 25.45776367 C-5.63797043 24.80087051 -5.61627289 24.14397736 -5.59391785 23.46717834 C-5.54470853 22.08086355 -5.48791468 20.69480005 -5.42407227 19.30908203 C-5.3278476 17.18507488 -5.2585213 15.06142825 -5.19287109 12.9362793 C-4.71903372 0.45577932 -4.71903372 0.45577932 0 0 Z M8.48486328 6.24291992 C8.44244605 8.57586768 8.44393391 10.90994559 8.48486328 13.24291992 C10.7098364 15.46789304 15.80975387 14.4282312 18.79736328 14.43041992 C19.66554688 14.44266602 20.53373047 14.45491211 21.42822266 14.4675293 C22.26804687 14.46946289 23.10787109 14.47139648 23.97314453 14.47338867 C25.12617065 14.479552 25.12617065 14.479552 26.30249023 14.48583984 C28.74203066 14.21429462 30.36895339 13.45677927 32.48486328 12.24291992 C30.44684193 8.18267671 30.44684193 8.18267671 26.48486328 6.24291992 C25.07661435 6.16269994 23.66489097 6.13526015 22.25439453 6.14526367 C21.05073242 6.15009766 21.05073242 6.15009766 19.82275391 6.1550293 C18.57268555 6.16759766 18.57268555 6.16759766 17.29736328 6.18041992 C16.02989258 6.1871875 16.02989258 6.1871875 14.73681641 6.1940918 C12.65280173 6.20586589 10.56882351 6.22380102 8.48486328 6.24291992 Z " fill="#FDFDFD" transform="translate(242.51513671875,439.757080078125)"/>
<path d="M0 0 C0.66 0.33 1.32 0.66 2 1 C2.37890625 2.9609375 2.37890625 2.9609375 2.5625 5.375 C2.78753088 8.19477465 3.09554568 10.28663703 4 13 C4.350625 12.566875 4.70125 12.13375 5.0625 11.6875 C7.1866435 9.83743953 9.26600513 9.03348445 11.87109375 8.02734375 C14.51737398 6.75033146 16.69242275 5.04729881 19.0625 3.3125 C25.5302515 -0.97531297 31.47277302 -0.69228511 39 0 C38.67 0.66 38.34 1.32 38 2 C37.34 2 36.68 2 36 2 C36 2.66 36 3.32 36 4 C34.609375 5.2890625 34.609375 5.2890625 32.75 6.625 C32.14671875 7.07101562 31.5434375 7.51703125 30.921875 7.9765625 C29 9 29 9 25 9 C25 9.66 25 10.32 25 11 C23.70766393 12.37310707 22.37562854 13.71034824 21 15 C23.71604715 17.87420123 23.71604715 17.87420123 27 20 C27 20.66 27 21.32 27 22 C27.57234375 22.26554687 28.1446875 22.53109375 28.734375 22.8046875 C31.1076012 24.05676891 33.12213286 25.4936352 35.25 27.125 C35.95640625 27.66382813 36.6628125 28.20265625 37.390625 28.7578125 C37.92171875 29.16773438 38.4528125 29.57765625 39 30 C38.67 31.98 38.34 33.96 38 36 C34.71303767 36.79953138 33.28976808 37.09658936 30 36 C30 35.34 30 34.68 30 34 C29.113125 33.95875 28.22625 33.9175 27.3125 33.875 C23.59040524 32.89180516 22.48180431 31.58774083 20.22265625 28.55859375 C16.94192235 24.37644415 12.509357 21.25582322 7.3125 20.375 C6.219375 20.25125 5.12625 20.1275 4 20 C3.96261719 20.75925781 3.92523438 21.51851563 3.88671875 22.30078125 C3.82097656 23.29464844 3.75523437 24.28851563 3.6875 25.3125 C3.62949219 26.29863281 3.57148438 27.28476562 3.51171875 28.30078125 C2.94000925 31.31643974 2.38542101 32.15852298 0 34 C-3 36 -3 36 -6 36 C-6 35.34 -6 34.68 -6 34 C-7.32 33.67 -8.64 33.34 -10 33 C-9.93123657 28.62117544 -9.84332917 24.24328479 -9.73754883 19.86523438 C-9.70426537 18.37543428 -9.67624403 16.88550705 -9.65356445 15.39550781 C-9.62007929 13.25530748 -9.56777211 11.11627581 -9.51171875 8.9765625 C-9.48553467 7.68830566 -9.45935059 6.40004883 -9.43237305 5.07275391 C-9.21834839 3.55174072 -9.21834839 3.55174072 -9 2 C-5.54337669 -0.30441554 -4.05142119 -0.25860135 0 0 Z " fill="#FCFDFD" transform="translate(303,440)"/>
<path d="M0 0 C0.625 1.875 0.625 1.875 1 4 C-1.84614024 6.84614024 -4.80369142 6.45579076 -8.625 6.625 C-9.68460937 6.68300781 -9.68460937 6.68300781 -10.765625 6.7421875 C-12.50998524 6.83647724 -14.25495691 6.91932891 -16 7 C-15.99830811 8.09671021 -15.99830811 8.09671021 -15.99658203 9.21557617 C-16.00871576 12.54048134 -16.06638804 15.8631028 -16.125 19.1875 C-16.12113281 20.91323242 -16.12113281 20.91323242 -16.1171875 22.67382812 C-16.30996157 30.98721002 -16.30996157 30.98721002 -18.30126953 33.90991211 C-20.66742028 35.96312034 -22.48817522 36.96344109 -25.625 37.1875 C-29.06292931 35.46853535 -30.15943602 33.34542761 -32 30 C-32.35546875 26.4140625 -32.35546875 26.4140625 -32.1875 22.625 C-32.03391208 17.24942268 -32.13468933 12.30002786 -33 7 C-37.95 6.67 -42.9 6.34 -48 6 C-48.33 4.35 -48.66 2.7 -49 1 C-36.26996088 -5.36501956 -13.60802679 -0.61651323 0 0 Z " fill="#FDFDFD" transform="translate(441,440)"/>
<path d="M0 0 C0.99 0 1.98 0 3 0 C3 0.66 3 1.32 3 2 C5.64 2 8.28 2 11 2 C11 2.33 11 2.66 11 3 C7.04 3 3.08 3 -1 3 C-0.67 2.01 -0.34 1.02 0 0 Z " fill="#F4F4F8" transform="translate(458,455)"/>
</svg>
