<?xml version="1.0" encoding="UTF-8"?>
<svg version="1.1" xmlns="http://www.w3.org/2000/svg" width="360" height="360">
<path d="M0 0 C2.8829865 2.63855938 4.79912365 5.27332585 6.796875 8.64453125 C6.796875 9.96453125 6.796875 11.28453125 6.796875 12.64453125 C-5.70919158 13.72382193 -5.70919158 13.72382193 -9.1171875 11.26171875 C-10.01873587 10.04383762 -10.88443949 8.79870914 -11.71484375 7.53125 C-15.46144949 2.78161595 -22.36374931 0.47149486 -28.203125 -0.35546875 C-40.93438512 -1.02621396 -52.84582644 -0.79474906 -63.203125 7.64453125 C-67.94613962 13.26125909 -69.52479615 19.3106726 -69.140625 26.51953125 C-68.24434033 33.06543052 -66.10303465 39.05971307 -61.08203125 43.53515625 C-50.95581137 50.57057377 -39.25135512 51.9483908 -27.265625 49.95703125 C-21.06688074 48.60105594 -13.07744336 45.96465938 -9.203125 40.64453125 C-8.543125 38.00453125 -7.883125 35.36453125 -7.203125 32.64453125 C-16.443125 32.64453125 -25.683125 32.64453125 -35.203125 32.64453125 C-35.203125 29.67453125 -35.203125 26.70453125 -35.203125 23.64453125 C-21.013125 23.64453125 -6.823125 23.64453125 7.796875 23.64453125 C7.796875 39.89453125 7.796875 39.89453125 3.796875 46.64453125 C3.136875 46.64453125 2.476875 46.64453125 1.796875 46.64453125 C1.61125 47.20140625 1.425625 47.75828125 1.234375 48.33203125 C-3.39670068 55.78202256 -12.21014334 57.643834 -20.203125 59.64453125 C-36.45644517 63.08055999 -56.00997064 61.62335471 -70.203125 52.64453125 C-76.9041726 47.90124069 -82.35719673 41.79738113 -84.203125 33.64453125 C-85.8936455 22.29853789 -84.97872485 13.15193794 -78.203125 3.64453125 C-59.61846807 -16.7939568 -20.80097113 -16.43276719 0 0 Z " fill="#FBFAFD" transform="translate(174.203125,133.35546875)"/>
<path d="M0 0 C3.6650828 3.14887395 5.80680012 5.5096009 6.4375 10.375 C6 13 6 13 5 14 C-4.61506708 14.96945304 -4.61506708 14.96945304 -8.5 12.25 C-9.4491247 10.82631295 -10.39372865 9.39959267 -11.33203125 7.96875 C-14.39931935 4.34834438 -18.45865899 3.7775497 -23 3 C-33.01462191 2.25743284 -42.3832029 2.2554686 -51 8 C-52.17778312 10.30371421 -52.17778312 10.30371421 -52 13 C-47.7877537 19.10049464 -41.04559791 20.22619722 -34.13061523 21.54882812 C-31.13214411 22.03764152 -28.13022571 22.4922017 -25.125 22.9375 C-4.5002063 26.18724791 -4.5002063 26.18724791 4 32 C4 32.66 4 33.32 4 34 C4.66 34 5.32 34 6 34 C8.31595783 39.37899884 9.67513663 43.52972324 7.78125 49.22265625 C5.02096491 55.50230482 0.11611735 58.43546088 -6 61 C-21.62610789 66.17434443 -42.82595568 66.64123492 -57.93359375 59.640625 C-62.41715186 57.1157766 -66.43312622 54.57573152 -69 50 C-69.75 46.1875 -69.75 46.1875 -70 43 C-65.28731441 42.65977938 -60.70210151 42.46230344 -56 43 C-53.6875 45.75 -53.6875 45.75 -52 49 C-46.78980589 52.37873194 -41.13159045 53.73639892 -35 54 C-33.82630859 54.05994141 -33.82630859 54.05994141 -32.62890625 54.12109375 C-24.91899604 54.32556875 -16.27830783 53.94654556 -10 49 C-8.02901574 47.2890789 -8.02901574 47.2890789 -7 45 C-6.82889551 41.8596006 -6.82889551 41.8596006 -8 39 C-15.99401778 35.13415375 -25.12147291 33.94732143 -33.81176758 32.61743164 C-59.64956235 28.62671014 -59.64956235 28.62671014 -66.00390625 19.953125 C-67.8502841 16.33277628 -68.39420491 13.0352248 -68 9 C-65.49100328 1.95091399 -60.51915672 -0.75548903 -54 -4 C-37.96241666 -11.13063436 -14.55624677 -10.05655038 0 0 Z " fill="#FBFAFD" transform="translate(262,130)"/>
<path d="M0 0 C0.91535096 0.00291284 1.83070191 0.00582568 2.77379078 0.00882679 C4.22064995 0.00754515 4.22064995 0.00754515 5.6967386 0.00623763 C8.95506132 0.00457989 12.21333346 0.01010898 15.47165149 0.01555592 C17.79689257 0.01583775 20.12213374 0.01568013 22.44737476 0.01511341 C28.781832 0.01482529 35.11627049 0.02072436 41.45072335 0.02768737 C47.39333475 0.03328789 53.3359454 0.03430919 59.27855908 0.03533924 C71.05223667 0.03753007 82.82590735 0.04419098 94.59958118 0.05364186 C106.03935947 0.06281519 117.47913589 0.06989641 128.91891712 0.07414967 C129.62358535 0.07441239 130.32825359 0.07467512 131.0542754 0.0749458 C134.58924557 0.0762508 138.12421575 0.07751452 141.65918595 0.0787577 C171.00414962 0.08913127 200.34910654 0.10682453 229.6940636 0.12908131 C230.07625127 1.78522788 230.40801462 3.45365155 230.6940636 5.12908131 C228.78005047 7.04309444 225.93520279 6.25200861 223.38812721 6.25816262 C222.47277625 6.25524978 221.5574253 6.25233693 220.61433643 6.24933583 C219.16747726 6.25061746 219.16747726 6.25061746 217.69138861 6.25192499 C214.43306589 6.25358273 211.17479375 6.24805364 207.91647571 6.2426067 C205.59123464 6.24232487 203.26599347 6.24248249 200.94075245 6.2430492 C194.60629521 6.24333733 188.27185672 6.23743826 181.93740386 6.23047525 C175.99479245 6.22487473 170.05218181 6.22385343 164.10956813 6.22282337 C152.33589054 6.22063255 140.56221986 6.21397164 128.78854603 6.20452076 C117.34876773 6.19534743 105.90899131 6.18826621 94.46921009 6.18401295 C93.76454186 6.18375023 93.05987362 6.1834875 92.33385181 6.18321682 C88.79888164 6.18191182 85.26391145 6.1806481 81.72894126 6.17940491 C52.38397758 6.16903135 23.03902067 6.15133809 -6.3059364 6.12908131 C-6.68812407 4.47293474 -7.01988741 2.80451107 -7.3059364 1.12908131 C-5.39192326 -0.78493182 -2.54707558 0.00615401 0 0 Z " fill="#FEFEFE" transform="translate(68.30593639612198,204.8709186911583)"/>
<path d="M0 0 C7 0 7 0 8.92578125 1.8984375 C9.38339844 2.71570313 9.84101562 3.53296875 10.3125 4.375 C12.34993502 7.91662885 12.34993502 7.91662885 15 11 C15.42152344 10.28972656 15.84304687 9.57945312 16.27734375 8.84765625 C16.82519531 7.92855469 17.37304688 7.00945312 17.9375 6.0625 C18.75541016 4.68771484 18.75541016 4.68771484 19.58984375 3.28515625 C21 1 21 1 22 0 C23.99958364 -0.04080783 26.00045254 -0.04254356 28 0 C29.48427936 2.96855873 29.20941537 5.69911659 29.25 9 C29.27578125 10.258125 29.3015625 11.51625 29.328125 12.8125 C29.21984375 13.864375 29.1115625 14.91625 29 16 C28.01 16.66 27.02 17.32 26 18 C25.01 17.67 24.02 17.34 23 17 C22.67 14.36 22.34 11.72 22 9 C21.67386719 9.56589844 21.34773438 10.13179687 21.01171875 10.71484375 C20.57472656 11.44832031 20.13773438 12.18179688 19.6875 12.9375 C19.25824219 13.66839844 18.82898438 14.39929688 18.38671875 15.15234375 C17 17 17 17 14 18 C10.46766245 16.82255415 10.13691925 16.04394359 8.3125 12.9375 C7.65701172 11.83728516 7.65701172 11.83728516 6.98828125 10.71484375 C6.66214844 10.14894531 6.33601563 9.58304688 6 9 C6.04125 10.11375 6.0825 11.2275 6.125 12.375 C6 16 6 16 4 18 C2.68 17.67 1.36 17.34 0 17 C0 11.39 0 5.78 0 0 Z " fill="#FEFEFE" transform="translate(61,220)"/>
<path d="M0 0 C0.86818359 -0.01224609 1.73636719 -0.02449219 2.63085938 -0.03710938 C3.47068359 -0.03904297 4.31050781 -0.04097656 5.17578125 -0.04296875 C5.94446533 -0.04707764 6.71314941 -0.05118652 7.50512695 -0.05541992 C9.94466738 0.2161253 11.57159011 0.97364065 13.6875 2.1875 C13.6875 3.8375 13.6875 5.4875 13.6875 7.1875 C11.7075 8.1775 11.7075 8.1775 9.6875 9.1875 C10.925 10.30125 10.925 10.30125 12.1875 11.4375 C14.6875 14.1875 14.6875 14.1875 14.6875 18.1875 C10.79774712 17.94439044 8.6985908 16.55316402 5.75 14.1875 C2.43282842 11.55642273 0.01918504 10.40408425 -4.3125 10.1875 C-4.3125 12.4975 -4.3125 14.8075 -4.3125 17.1875 C-8.0625 18.3125 -8.0625 18.3125 -10.3125 17.1875 C-10.33934679 14.54159986 -10.35926357 11.89596904 -10.375 9.25 C-10.38337891 8.49525391 -10.39175781 7.74050781 -10.40039062 6.96289062 C-10.40902441 5.03755687 -10.36474333 3.11214419 -10.3125 1.1875 C-8.08752688 -1.03747312 -2.98760941 0.00218872 0 0 Z M-4.3125 3.1875 C-4.3125 4.5075 -4.3125 5.8275 -4.3125 7.1875 C-0.6825 7.1875 2.9475 7.1875 6.6875 7.1875 C6.6875 5.8675 6.6875 4.5475 6.6875 3.1875 C3.0575 3.1875 -0.5725 3.1875 -4.3125 3.1875 Z " fill="#FEFEFE" transform="translate(258.3125,219.8125)"/>
<path d="M0 0 C3.25049988 -0.08096264 6.49898234 -0.14048115 9.75 -0.1875 C11.13058594 -0.22520508 11.13058594 -0.22520508 12.5390625 -0.26367188 C13.42851562 -0.27333984 14.31796875 -0.28300781 15.234375 -0.29296875 C16.05131836 -0.3086792 16.86826172 -0.32438965 17.70996094 -0.34057617 C20.51240627 0.07620541 21.88847021 1.16195148 24 3 C23.6875 5.375 23.6875 5.375 23 8 C22.01 8.66 21.02 9.32 20 10 C20.99 10.66 21.98 11.32 23 12 C23 12.66 23 13.32 23 14 C23.99 14.33 24.98 14.66 26 15 C25.67 15.99 25.34 16.98 25 18 C21.11024712 17.75689044 19.0110908 16.36566402 16.0625 14 C12.74532842 11.36892273 10.33168504 10.21658425 6 10 C6 12.31 6 14.62 6 17 C2.25 18.125 2.25 18.125 0 17 C0 11.39 0 5.78 0 0 Z M6 3 C6 4.32 6 5.64 6 7 C9.63 7 13.26 7 17 7 C17 5.68 17 4.36 17 3 C13.37 3 9.74 3 6 3 Z " fill="#FEFEFE" transform="translate(119,220)"/>
<path d="M0 0 C1.22589844 -0.01675781 2.45179688 -0.03351563 3.71484375 -0.05078125 C7.21822385 0.32939885 8.67373058 0.75609764 11.0625 3.3125 C11.0625 4.3025 11.0625 5.2925 11.0625 6.3125 C8.6875 6.4375 8.6875 6.4375 6.0625 6.3125 C5.4025 5.6525 4.7425 4.9925 4.0625 4.3125 C1.37410615 4.04258094 -1.22891936 4.22512643 -3.9375 4.3125 C-3.9375 4.6425 -3.9375 4.9725 -3.9375 5.3125 C-3.11765625 5.42207031 -2.2978125 5.53164062 -1.453125 5.64453125 C-0.37546875 5.80308594 0.7021875 5.96164063 1.8125 6.125 C2.87984375 6.27582031 3.9471875 6.42664063 5.046875 6.58203125 C8.11701094 7.32570407 9.72330478 8.24015472 12.0625 10.3125 C12 12.625 12 12.625 11.0625 15.3125 C5.95785709 18.33361519 1.93388948 18.87167995 -3.9375 18.3125 C-7.40642258 17.02771386 -9.33281636 16.2744967 -11.3125 13.125 C-11.51875 12.526875 -11.725 11.92875 -11.9375 11.3125 C-10.1875 10.625 -10.1875 10.625 -7.9375 10.3125 C-7.1021875 11.0240625 -7.1021875 11.0240625 -6.25 11.75 C-2.6973434 14.15044365 0.89473952 13.55294772 5.0625 13.3125 C5.3925 12.6525 5.7225 11.9925 6.0625 11.3125 C5.08667969 11.20292969 4.11085938 11.09335938 3.10546875 10.98046875 C1.83316406 10.82191406 0.56085938 10.66335937 -0.75 10.5 C-2.01457031 10.34917969 -3.27914063 10.19835937 -4.58203125 10.04296875 C-7.83373197 9.33508978 -9.10990032 9.03678716 -10.9375 6.3125 C-10.8125 4.25 -10.8125 4.25 -9.9375 2.3125 C-6.28172573 -0.12468285 -4.35080098 0.01369612 0 0 Z " fill="#FEFEFE" transform="translate(286.9375,219.6875)"/>
<path d="M0 0 C6.93 0 13.86 0 21 0 C21 0.99 21 1.98 21 3 C16.05 3.33 11.1 3.66 6 4 C6 4.66 6 5.32 6 6 C12.93 6.495 12.93 6.495 20 7 C20 7.99 20 8.98 20 10 C15.05 10 10.1 10 5 10 C5.33 10.99 5.66 11.98 6 13 C11.28 13.33 16.56 13.66 22 14 C21.67 15.32 21.34 16.64 21 18 C17.70840684 18.05790353 14.41694397 18.09356261 11.125 18.125 C9.71927734 18.15013672 9.71927734 18.15013672 8.28515625 18.17578125 C6.94130859 18.18544922 6.94130859 18.18544922 5.5703125 18.1953125 C4.74289551 18.20578613 3.91547852 18.21625977 3.06298828 18.22705078 C1 18 1 18 -1 16 C-1.23046875 13.3203125 -1.23046875 13.3203125 -1.1875 10.125 C-1.18105469 9.07570312 -1.17460937 8.02640625 -1.16796875 6.9453125 C-1 4 -1 4 0 0 Z " fill="#FEFEFE" transform="translate(223,220)"/>
<path d="M0 0 C7.26 0 14.52 0 22 0 C22 0.99 22 1.98 22 3 C16.72 3 11.44 3 6 3 C6 3.99 6 4.98 6 6 C10.95 6.33 15.9 6.66 21 7 C21 7.99 21 8.98 21 10 C16.05 10 11.1 10 6 10 C6 11.32 6 12.64 6 14 C11.28 14 16.56 14 22 14 C22.33 14.99 22.66 15.98 23 17 C20.73744135 18.13127933 19.48212091 18.12890585 16.97265625 18.1328125 C16.18052734 18.13410156 15.38839844 18.13539063 14.57226562 18.13671875 C13.74404297 18.13285156 12.91582031 18.12898438 12.0625 18.125 C11.23814453 18.12886719 10.41378906 18.13273437 9.56445312 18.13671875 C8.77103516 18.13542969 7.97761719 18.13414062 7.16015625 18.1328125 C6.07166382 18.13112061 6.07166382 18.13112061 4.96118164 18.12939453 C3 18 3 18 0 17 C0 11.39 0 5.78 0 0 Z " fill="#FEFEFE" transform="translate(173,220)"/>
<path d="M0 0 C1.65 0 3.3 0 5 0 C6 1 6 1 6.0625 3.5625 C6.041875 4.366875 6.02125 5.17125 6 6 C6.71285156 5.566875 7.42570313 5.13375 8.16015625 4.6875 C17.67311072 -0.84358524 17.67311072 -0.84358524 24 0 C21.24479785 2.95929119 18.53372712 5.03681826 15 7 C18.45064494 10.54893773 18.45064494 10.54893773 22.3125 13.625 C22.869375 14.07875 23.42625 14.5325 24 15 C24 15.99 24 16.98 24 18 C18.22805764 17.76441052 15.66770543 16.3382589 11.578125 12.27734375 C9.94973716 10.68542856 9.94973716 10.68542856 7 11 C6.731875 11.969375 6.46375 12.93875 6.1875 13.9375 C5.795625 14.948125 5.40375 15.95875 5 17 C4.01 17.33 3.02 17.66 2 18 C1.34 17.67 0.68 17.34 0 17 C0 11.39 0 5.78 0 0 Z " fill="#FEFEFE" transform="translate(147,220)"/>
<path d="M0 0 C3.59464343 0.53683444 3.89633697 0.75522268 6.0078125 3.4453125 C6.88657872 4.71640874 7.7441433 6.00237473 8.58203125 7.30078125 C9.02353516 7.94337891 9.46503906 8.58597656 9.91992188 9.24804688 C11.75104217 11.95406692 13.23243136 14.37698159 14.26953125 17.48828125 C12.58203125 18.30078125 12.58203125 18.30078125 10.26953125 18.48828125 C9.56828125 17.68390625 8.86703125 16.87953125 8.14453125 16.05078125 C4.50421623 12.80615264 2.39243938 12.76822566 -2.34765625 12.98046875 C-6.10580846 13.78138643 -7.46285322 15.46479388 -9.73046875 18.48828125 C-11.05046875 17.82828125 -12.37046875 17.16828125 -13.73046875 16.48828125 C-12.08602371 14.00818355 -10.43998524 11.52917033 -8.79296875 9.05078125 C-8.32439453 8.34373047 -7.85582031 7.63667969 -7.37304688 6.90820312 C-6.92509766 6.23466797 -6.47714844 5.56113281 -6.015625 4.8671875 C-5.6019165 4.24400635 -5.18820801 3.6208252 -4.76196289 2.97875977 C-3.12525851 0.61377036 -3.04440723 0.54442189 0 0 Z M-0.73046875 5.48828125 C-1.39046875 6.80828125 -2.05046875 8.12828125 -2.73046875 9.48828125 C-1.08046875 9.48828125 0.56953125 9.48828125 2.26953125 9.48828125 C1.93953125 8.16828125 1.60953125 6.84828125 1.26953125 5.48828125 C0.60953125 5.48828125 -0.05046875 5.48828125 -0.73046875 5.48828125 Z " fill="#FDFDFD" transform="translate(103.73046875,219.51171875)"/>
<path d="M0 0 C7.59 0 15.18 0 23 0 C23 0.99 23 1.98 23 3 C20.36 3 17.72 3 15 3 C15.02320313 3.91523438 15.04640625 4.83046875 15.0703125 5.7734375 C15.09738281 7.55621094 15.09738281 7.55621094 15.125 9.375 C15.14820313 10.55835938 15.17140625 11.74171875 15.1953125 12.9609375 C15 16 15 16 13 18 C9.46428571 17.46428571 9.46428571 17.46428571 8 16 C7.92741054 13.81360547 7.91626217 11.62499611 7.9375 9.4375 C7.94652344 8.23996094 7.95554688 7.04242188 7.96484375 5.80859375 C7.97644531 4.88175781 7.98804688 3.95492187 8 3 C5.36 3 2.72 3 0 3 C0 2.01 0 1.02 0 0 Z " fill="#FEFEFE" transform="translate(197,220)"/>
</svg>
