<?xml version="1.0" encoding="UTF-8"?>
<svg version="1.1" xmlns="http://www.w3.org/2000/svg" width="200" height="200">
<path d="M0 0 C66 0 132 0 200 0 C200 66 200 132 200 200 C134 200 68 200 0 200 C0 134 0 68 0 0 Z " fill="#060606" transform="translate(0,0)"/>
<path d="M0 0 C2 3 2 3 2 6 C-2.54532005 6.454532 -4.41602416 6.44382164 -8.125 3.625 C-9.07375 2.75875 -10.0225 1.8925 -11 1 C-16.75412027 -1.86230598 -22.71870527 -1.74921467 -29 -1 C-32.91060665 0.50085974 -35.9388414 2.30703316 -38.1875 5.89453125 C-39.59904821 9.55234129 -39.45532989 13.14349383 -39 17 C-37.11828813 21.12184505 -34.86328557 24.12297076 -30.734375 26.06640625 C-24.12555039 28.3228478 -16.40732535 27.61523484 -10 25 C-6.62324657 22.33414203 -6.07379766 21.29519063 -5 17 C-10.28 17 -15.56 17 -21 17 C-21 15.35 -21 13.7 -21 12 C-13.08 12 -5.16 12 3 12 C3 22.7 3 22.7 -1 27 C-10.6143115 33.03554364 -20.9589405 32.99750734 -32 32 C-38.03023867 30.55076327 -41.82762539 27.72623316 -45.625 22.875 C-48.66216972 17.70663448 -49.03858898 12.84889584 -48 7 C-45.30646973 1.05178731 -39.96592768 -3.4746432 -33.8671875 -5.8203125 C-22.20270731 -8.78869276 -9.57764197 -7.66211358 0 0 Z " fill="#EDEDEF" transform="translate(98,75)"/>
<path d="M0 0 C2.03618633 2.09981715 2.69238119 3.19139107 3 6.0625 C-4.41035857 6.5565239 -4.41035857 6.5565239 -7.3125 4.125 C-7.869375 3.444375 -8.42625 2.76375 -9 2.0625 C-12.16009533 1.00913489 -14.5553136 0.86217112 -17.875 0.8125 C-18.90367188 0.78671875 -19.93234375 0.7609375 -20.9921875 0.734375 C-24.3748189 1.10338933 -26.23935854 2.12699492 -29 4.0625 C-28.67 5.7125 -28.34 7.3625 -28 9.0625 C-23.70278988 10.64053467 -19.73080708 11.43778721 -15.1875 11.9375 C-8.09406367 12.88979008 -0.79191514 14.29768088 4 20.0625 C4.55406827 23.70352004 4.30094497 25.52330693 2.5 28.75 C-3.25424878 34.07268012 -10.02758585 34.5454482 -17.5 34.4375 C-18.30308594 34.44910156 -19.10617188 34.46070313 -19.93359375 34.47265625 C-26.62187108 34.44013626 -32.59193551 33.47056449 -37.5 28.5625 C-39 26.0625 -39 26.0625 -39 23.0625 C-36.36 23.0625 -33.72 23.0625 -31 23.0625 C-30.67 24.0525 -30.34 25.0425 -30 26.0625 C-24.43268289 30.23798783 -17.63126925 29.71806274 -11 29.0625 C-8.59272131 28.31049553 -7.09256 27.49739828 -5 26.0625 C-5 24.4125 -5 22.7625 -5 21.0625 C-10.22113483 18.71831702 -14.85918868 17.75304321 -20.5625 17.125 C-27.62943326 16.2741553 -31.76334086 15.09686794 -37 10.1875 C-38.49780025 7.00467447 -38.14584217 5.36522155 -37 2.0625 C-27.57574973 -8.05132955 -11.01788411 -7.11571682 0 0 Z " fill="#EDEDEF" transform="translate(146,72.9375)"/>
<path d="M0 0 C0 0.66 0 1.32 0 2 C-2.64 2 -5.28 2 -8 2 C-5.03 2.99 -2.06 3.98 1 5 C0.34 6.32 -0.32 7.64 -1 9 C-3.43816585 9.0809723 -5.87364384 9.14046972 -8.3125 9.1875 C-9.34793945 9.22520508 -9.34793945 9.22520508 -10.40429688 9.26367188 C-15.58201587 9.33871128 -15.58201587 9.33871128 -17.8125 7.53125 C-18.4003125 6.77328125 -18.4003125 6.77328125 -19 6 C-21.60611077 5.27802838 -21.60611077 5.27802838 -24 5 C-24 5.99 -24 6.98 -24 8 C-24.66 8 -25.32 8 -26 8 C-26 5.36 -26 2.72 -26 0 C-25.34 0 -24.68 0 -24 0 C-24 0.99 -24 1.98 -24 3 C-21.69 3 -19.38 3 -17 3 C-17.33 2.01 -17.66 1.02 -18 0 C-12.06636277 -1.21715636 -5.81109182 -1.93703061 0 0 Z " fill="#222222" transform="translate(165,123)"/>
<path d="M0 0 C10.0430034 -0.51551538 18.96258982 0.57007185 27 7 C29 10 29 10 29 13 C24.45467995 13.454532 22.58397584 13.44382164 18.875 10.625 C17.451875 9.325625 17.451875 9.325625 16 8 C11.37270733 5.42928185 6.18648735 5.38269227 1 5 C0.67 3.35 0.34 1.7 0 0 Z " fill="#E5E5E7" transform="translate(71,68)"/>
<path d="M0 0 C7.92 0 15.84 0 24 0 C24 2.97 24 5.94 24 9 C21 8 21 8 19 6 C18.01 6.495 18.01 6.495 17 7 C17 6.34 17 5.68 17 5 C11.39 5 5.78 5 0 5 C0 3.35 0 1.7 0 0 Z " fill="#DDDCE0" transform="translate(77,87)"/>
<path d="M0 0 C3.96 0 7.92 0 12 0 C12 0.66 12 1.32 12 2 C9.03 2 6.06 2 3 2 C3 2.66 3 3.32 3 4 C5.97 4 8.94 4 12 4 C12 4.66 12 5.32 12 6 C9.03 6 6.06 6 3 6 C3 6.66 3 7.32 3 8 C6.3 8 9.6 8 13 8 C13 8.66 13 9.32 13 10 C8.71 10 4.42 10 0 10 C0 6.7 0 3.4 0 0 Z " fill="#B2B2B2" transform="translate(96,122)"/>
<path d="M0 0 C1.32 0 2.64 0 4 0 C7 4.07142857 7 4.07142857 7 7 C7.66 7 8.32 7 9 7 C9.37125 5.5459375 9.37125 5.5459375 9.75 4.0625 C10.1625 3.051875 10.575 2.04125 11 1 C12.32 0.67 13.64 0.34 15 0 C15 2.97 15 5.94 15 9 C14.34 9 13.68 9 13 9 C12.67 7.68 12.34 6.36 12 5 C11.01 6.32 10.02 7.64 9 9 C7.0625 8.625 7.0625 8.625 5 8 C4.67 7.34 4.34 6.68 4 6 C3.67 7.32 3.34 8.64 3 10 C2.01 10 1.02 10 0 10 C0 6.7 0 3.4 0 0 Z " fill="#CBCBCB" transform="translate(34,122)"/>
<path d="M0 0 C3.96 0 7.92 0 12 0 C12 0.66 12 1.32 12 2 C9.03 2 6.06 2 3 2 C3 2.66 3 3.32 3 4 C5.64 4 8.28 4 11 4 C11 4.66 11 5.32 11 6 C8.36 6 5.72 6 3 6 C3 6.66 3 7.32 3 8 C5.97 8 8.94 8 12 8 C12 8.66 12 9.32 12 10 C8.04 10 4.08 10 0 10 C0 6.7 0 3.4 0 0 Z " fill="#A7A7A7" transform="translate(124,122)"/>
<path d="M0 0 C2.64 0 5.28 0 8 0 C8.33 0.99 8.66 1.98 9 3 C12.00007271 4.70855022 12.00007271 4.70855022 15 6 C13.51151783 7.71175449 12.20918992 8.89179832 10.1875 9.9375 C6.64117796 10.03882349 4.71321907 8.12338884 2 6 C0 3 0 3 0 0 Z " fill="#E5E5E7" transform="translate(107,96)"/>
<path d="M0 0 C1.22589844 0.15275391 1.22589844 0.15275391 2.4765625 0.30859375 C3.41628906 0.43427734 3.41628906 0.43427734 4.375 0.5625 C4.375 1.2225 4.375 1.8825 4.375 2.5625 C1.735 2.5625 -0.905 2.5625 -3.625 2.5625 C-0.655 3.5525 2.315 4.5425 5.375 5.5625 C4.715 6.8825 4.055 8.2025 3.375 9.5625 C2.116875 9.60375 0.85875 9.645 -0.4375 9.6875 C-1.14519531 9.71070313 -1.85289062 9.73390625 -2.58203125 9.7578125 C-4.625 9.5625 -4.625 9.5625 -7.625 7.5625 C-7.625 6.9025 -7.625 6.2425 -7.625 5.5625 C-6.635 5.5625 -5.645 5.5625 -4.625 5.5625 C-4.625 6.2225 -4.625 6.8825 -4.625 7.5625 C-2.315 7.5625 -0.005 7.5625 2.375 7.5625 C2.375 6.9025 2.375 6.2425 2.375 5.5625 C-0.265 5.2325 -2.905 4.9025 -5.625 4.5625 C-5.955 3.2425 -6.285 1.9225 -6.625 0.5625 C-4.10446405 -0.69776798 -2.7707902 -0.35624445 0 0 Z " fill="#CBCBCB" transform="translate(160.625,122.4375)"/>
<path d="M0 0 C1.60495567 0.11442461 3.20898119 0.24194694 4.8125 0.375 C5.70582031 0.44460937 6.59914062 0.51421875 7.51953125 0.5859375 C10 1 10 1 13 3 C12.34 3.66 11.68 4.32 11 5 C11 5.66 11 6.32 11 7 C3.575 6.01 3.575 6.01 -4 5 C-3.01 4.34 -2.02 3.68 -1 3 C-0.67 2.01 -0.34 1.02 0 0 Z " fill="#E4E4E8" transform="translate(128,85)"/>
<path d="M0 0 C4.1706931 1.04267328 4.54040726 1.15720955 6.75 4.4375 C7.17796875 5.05496094 7.6059375 5.67242187 8.046875 6.30859375 C9 8 9 8 9 10 C8.484375 9.690625 7.96875 9.38125 7.4375 9.0625 C4.33334577 7.70940713 1.34884993 7.38640576 -2 7 C-2 7.66 -2 8.32 -2 9 C-2.99 8.67 -3.98 8.34 -5 8 C-3.35 5.36 -1.7 2.72 0 0 Z " fill="#DEDEDE" transform="translate(56,122)"/>
<path d="M0 0 C0.99 0 1.98 0 3 0 C3.33 0.99 3.66 1.98 4 3 C4.7425 2.484375 5.485 1.96875 6.25 1.4375 C9 0 9 0 11.3125 0.3125 C11.869375 0.539375 12.42625 0.76625 13 1 C11.35 2.32 9.7 3.64 8 5 C9.32 6.32 10.64 7.64 12 9 C8.85262818 8.30058404 5.97411124 7.23921302 3 6 C3 6.99 3 7.98 3 9 C2.01 9 1.02 9 0 9 C0 6.03 0 3.06 0 0 Z " fill="#BEBEBE" transform="translate(82,122)"/>
<path d="M0 0 C0.66 0 1.32 0 2 0 C2 0.99 2 1.98 2 3 C4.31 3 6.62 3 9 3 C9 2.01 9 1.02 9 0 C9.99 0 10.98 0 12 0 C12 1.32 12 2.64 12 4 C11.34 4 10.68 4 10 4 C10 4.66 10 5.32 10 6 C10.66 6 11.32 6 12 6 C12 6.66 12 7.32 12 8 C8.58978257 7.21302675 5.31114834 6.12880057 2 5 C2 5.99 2 6.98 2 8 C1.34 8 0.68 8 0 8 C0 5.36 0 2.72 0 0 Z " fill="#D6D6D6" transform="translate(67,123)"/>
<path d="M0 0 C0.66 0 1.32 0 2 0 C2 0.99 2 1.98 2 3 C4.31 3 6.62 3 9 3 C8.67 2.01 8.34 1.02 8 0 C9.32 0.33 10.64 0.66 12 1 C11.34 2.32 10.68 3.64 10 5 C10.99 6.485 10.99 6.485 12 8 C8.58978257 7.21302675 5.31114834 6.12880057 2 5 C2 5.99 2 6.98 2 8 C1.34 8 0.68 8 0 8 C0 5.36 0 2.72 0 0 Z " fill="#D3D3D3" transform="translate(139,123)"/>
<path d="M0 0 C3.96 0 7.92 0 12 0 C12 0.66 12 1.32 12 2 C10.35 2 8.7 2 7 2 C7 4.64 7 7.28 7 10 C6.01 9.67 5.02 9.34 4 9 C4 6.69 4 4.38 4 2 C2.68 2 1.36 2 0 2 C0 1.34 0 0.68 0 0 Z " fill="#BBBBBB" transform="translate(110,122)"/>
<path d="M0 0 C3.63 0 7.26 0 11 0 C10.67 1.32 10.34 2.64 10 4 C7.69 4 5.38 4 3 4 C3 3.01 3 2.02 3 1 C2.34 1 1.68 1 1 1 C1 3.64 1 6.28 1 9 C1.66 9.33 2.32 9.66 3 10 C2.01 10 1.02 10 0 10 C0 6.7 0 3.4 0 0 Z " fill="#6E6E6E" transform="translate(138,122)"/>
<path d="M0 0 C0.66 0 1.32 0 2 0 C3.38232443 1.62626404 4.71937515 3.2925002 6 5 C5.67 5.66 5.34 6.32 5 7 C2.625 7.75 2.625 7.75 0 8 C-0.99 7.34 -1.98 6.68 -3 6 C-2.42655063 3.13275314 -2.1385485 2.1385485 0 0 Z " fill="#F5F5F6" transform="translate(114,79)"/>
<path d="M0 0 C3.63 0 7.26 0 11 0 C10.67 1.32 10.34 2.64 10 4 C7.69 4 5.38 4 3 4 C3 3.01 3 2.02 3 1 C2.34 1 1.68 1 1 1 C1 3.64 1 6.28 1 9 C0.67 9 0.34 9 0 9 C0 6.03 0 3.06 0 0 Z " fill="#666666" transform="translate(66,122)"/>
<path d="M0 0 C0.66 0 1.32 0 2 0 C2 2.31 2 4.62 2 7 C5.3 7 8.6 7 12 7 C12 7.66 12 8.32 12 9 C8.04 9 4.08 9 0 9 C0 6.03 0 3.06 0 0 Z " fill="#CCCCCC" transform="translate(124,123)"/>
<path d="M0 0 C5.57142857 5.14285714 5.57142857 5.14285714 6 9 C0.25 8.25 0.25 8.25 -2 6 C-1.44444444 1.44444444 -1.44444444 1.44444444 0 0 Z " fill="#1E1E1F" transform="translate(118,75)"/>
<path d="M0 0 C0.33 0 0.66 0 1 0 C1.12375 1.11375 1.2475 2.2275 1.375 3.375 C1.6465813 7.03103677 1.6465813 7.03103677 4 9 C-4.42857143 10.28571429 -4.42857143 10.28571429 -9 9 C-4.25 4.125 -4.25 4.125 -2 3 C-2 4.65 -2 6.3 -2 8 C-1.34 8 -0.68 8 0 8 C0 5.36 0 2.72 0 0 Z " fill="#474747" transform="translate(49,123)"/>
<path d="M0 0 C1.85776765 3.13498292 2.20140476 5.37471432 2 9 C0.68 8.67 -0.64 8.34 -2 8 C-1.67 7.67 -1.34 7.34 -1 7 C-2.32 5.68 -3.64 4.36 -5 3 C-3.35 2.01 -1.7 1.02 0 0 Z " fill="#1E1E1E" transform="translate(94,123)"/>
<path d="M0 0 C0.66 0.33 1.32 0.66 2 1 C1.37240135 3.92879371 0.41377341 6.36095629 -1 9 C-1.66 9 -2.32 9 -3 9 C-3.66 9.66 -4.32 10.32 -5 11 C-4.54663921 6.12637153 -3.2910841 3.60957611 0 0 Z " fill="#151516" transform="translate(63,76)"/>
<path d="M0 0 C0.33 0 0.66 0 1 0 C1 2.97 1 5.94 1 9 C1.66 9.33 2.32 9.66 3 10 C0.69 10 -1.62 10 -4 10 C-3.34 9.67 -2.68 9.34 -2 9 C-2 8.34 -2 7.68 -2 7 C-2.66 7 -3.32 7 -4 7 C-4 6.34 -4 5.68 -4 5 C-3.01 4.67 -2.02 4.34 -1 4 C-0.26676204 1.98491642 -0.26676204 1.98491642 0 0 Z " fill="#363636" transform="translate(81,122)"/>
<path d="M0 0 C1.32 0.33 2.64 0.66 4 1 C3.34 2.32 2.68 3.64 2 5 C2.99 6.485 2.99 6.485 4 8 C2.125 7.6875 2.125 7.6875 0 7 C-0.66 6.01 -1.32 5.02 -2 4 C-1.34 3.67 -0.68 3.34 0 3 C0 2.01 0 1.02 0 0 Z " fill="#E3E3E3" transform="translate(147,123)"/>
<path d="M0 0 C1.98 0.495 1.98 0.495 4 1 C4 2.65 4 4.3 4 6 C2.68 6 1.36 6 0 6 C-1.125 2.25 -1.125 2.25 0 0 Z " fill="#9F9F9F" transform="translate(56,122)"/>
<path d="M0 0 C2.02054804 1.64169528 4.02043058 3.30911778 6 5 C6 5.33 6 5.66 6 6 C3.1875 6.25 3.1875 6.25 0 6 C-1.875 4 -1.875 4 -3 2 C-2.01 1.34 -1.02 0.68 0 0 Z " fill="#171718" transform="translate(108,81)"/>
<path d="M0 0 C0.99 0 1.98 0 3 0 C3 0.66 3 1.32 3 2 C3.94875 1.95875 4.8975 1.9175 5.875 1.875 C9 2 9 2 11 4 C9.741875 4.04125 8.48375 4.0825 7.1875 4.125 C6.47980469 4.14820313 5.77210938 4.17140625 5.04296875 4.1953125 C3 4 3 4 0 2 C0 1.34 0 0.68 0 0 Z " fill="#AAAAAA" transform="translate(153,128)"/>
<path d="M0 0 C0.66 0 1.32 0 2 0 C2.33 2.64 2.66 5.28 3 8 C2.01 8 1.02 8 0 8 C0 5.36 0 2.72 0 0 Z " fill="#E3E3E3" transform="translate(82,123)"/>
<path d="M0 0 C1.32 0.33 2.64 0.66 4 1 C3.67 1.99 3.34 2.98 3 4 C2.34 3.67 1.68 3.34 1 3 C1 4.65 1 6.3 1 8 C0.67 8 0.34 8 0 8 C0 5.36 0 2.72 0 0 Z " fill="#F2F2F2" transform="translate(35,123)"/>
</svg>
