<?xml version="1.0" encoding="UTF-8"?>
<svg version="1.1" xmlns="http://www.w3.org/2000/svg" width="655" height="370">
<path d="M0 0 C6.43557388 -0.09477513 12.86362766 -0.06731222 19.29882812 0.04150391 C20.6056958 0.06035645 20.6056958 0.06035645 21.93896484 0.07958984 C42.35249996 0.45443085 82.67746261 1.94529636 98.29882812 17.04150391 C98.75292969 19.58520508 98.75292969 19.58520508 98.68945312 22.58447266 C98.6765625 23.65761719 98.66367187 24.73076172 98.65039062 25.83642578 C98.60011719 27.51575195 98.60011719 27.51575195 98.54882812 29.22900391 C98.53078125 30.36015625 98.51273438 31.49130859 98.49414062 32.65673828 C98.44695464 35.45250766 98.38113408 38.24658363 98.29882812 41.04150391 C93.89612416 40.49764048 90.6836435 39.40851004 86.79882812 37.29150391 C51.64260201 19.28465638 2.69120881 14.68075307 -35.13867188 26.29150391 C-42.76213194 28.7653292 -50.0699406 31.45328536 -56.70117188 36.04150391 C-57.54292969 36.60095703 -58.3846875 37.16041016 -59.25195312 37.73681641 C-72.49956589 47.34585874 -78.90161212 61.27782898 -81.70117188 77.04150391 C-83.19507619 96.86818981 -80.51905808 115.15032334 -67.70117188 131.04150391 C-60.11532715 139.13695432 -50.42662016 145.36695324 -39.73632812 148.43603516 C-37.70117187 149.04150391 -37.70117187 149.04150391 -35.39892578 150.01245117 C-8.11357926 160.42039104 38.41538493 158.8755936 65.29882812 148.04150391 C66.28882813 148.04150391 67.27882813 148.04150391 68.29882812 148.04150391 C67.96882812 133.52150391 67.63882813 119.00150391 67.29882812 104.04150391 C49.14882813 103.71150391 30.99882812 103.38150391 12.29882812 103.04150391 C12.29882812 96.44150391 12.29882812 89.84150391 12.29882812 83.04150391 C24.27686707 83.01895423 36.25489202 83.0005896 48.23294735 82.98969173 C53.79422224 82.98446257 59.35548192 82.97736432 64.91674805 82.96606445 C70.27890231 82.95523676 75.6410419 82.94922732 81.00320625 82.94662666 C83.05383091 82.9447722 85.10445472 82.94115119 87.15507317 82.93577385 C90.01673016 82.92856498 92.8783257 82.9275129 95.73999023 82.92797852 C97.02499924 82.9225856 97.02499924 82.9225856 98.33596802 82.91708374 C104.18477596 82.92745174 104.18477596 82.92745174 105.29882812 84.04150391 C105.39322791 86.31142277 105.41625039 88.58432358 105.41235352 90.85620117 C105.41249954 91.56835785 105.41264557 92.28051453 105.41279602 93.01425171 C105.41209683 95.37883503 105.40430418 97.74334052 105.39648438 100.10791016 C105.39462022 101.74315854 105.3931963 103.37840748 105.39219666 105.01365662 C105.3883713 109.32585176 105.37854088 113.63801343 105.36749268 117.95019531 C105.35727893 122.34716336 105.35269911 126.7441368 105.34765625 131.14111328 C105.33691862 139.77459221 105.31984199 148.4080439 105.29882812 157.04150391 C103.72034773 157.84333167 102.14038515 158.64224198 100.55981445 159.43994141 C99.68013504 159.88515137 98.80045563 160.33036133 97.89411926 160.7890625 C94.34145665 162.50351437 90.7349374 163.82807874 86.98632812 165.04150391 C86.22126953 165.29005127 85.45621094 165.53859863 84.66796875 165.79467773 C36.39926613 181.08074084 -28.41594004 184.49692909 -74.74951172 161.08349609 C-83.08242385 156.63455076 -91.20135343 151.97000913 -97.70117188 145.04150391 C-98.87679687 143.92775391 -98.87679687 143.92775391 -100.07617188 142.79150391 C-117.46567047 124.57393395 -121.30516666 103.77949835 -120.78564453 79.52246094 C-120.27661423 64.57227055 -114.19997954 50.42514374 -104.70117188 39.04150391 C-103.88712891 37.98576172 -103.88712891 37.98576172 -103.05664062 36.90869141 C-83.94269772 13.19066007 -49.74959545 3.85322102 -20.84228516 0.73291016 C-13.89747696 0.16014247 -6.96282523 0.10698484 0 0 Z " fill="#FEFEFE" transform="translate(223.701171875,35.95849609375)"/>
<path d="M0 0 C0.8647998 0.00725098 1.72959961 0.01450195 2.62060547 0.02197266 C15.53788341 0.16370957 28.17028375 1.52692744 40.9375 3.375 C41.67769379 3.48000824 42.41788757 3.58501648 43.18051147 3.69320679 C45.3188118 4.00036841 47.45446483 4.32163858 49.58984375 4.6484375 C50.82597412 4.83583496 52.06210449 5.02323242 53.33569336 5.21630859 C57 6 57 6 65 9 C65 16.59 65 24.18 65 32 C56.00746194 30.87593274 56.00746194 30.87593274 52.51953125 29.9140625 C51.75535889 29.70692627 50.99118652 29.49979004 50.20385742 29.28637695 C49.0201355 28.95899536 49.0201355 28.95899536 47.8125 28.625 C46.11744433 28.1722145 44.42213112 27.72039207 42.7265625 27.26953125 C40.03077339 26.54792038 37.33844499 25.81726278 34.6484375 25.07421875 C7.72356163 18.14763459 -28.50379932 16.50477913 -54 29 C-58.85558941 32.01434991 -62.25599449 35.46021779 -64 41 C-64.61991809 47.4174619 -65.05395471 52.69676537 -61 58 C-56.0078038 63.48188439 -50.7746805 65.49693683 -43.6875 67.25 C-42.21639771 67.62983032 -42.21639771 67.62983032 -40.71557617 68.01733398 C-33.65294849 69.76706599 -26.74609336 70.80005472 -19.50390625 71.44921875 C-12.50572014 72.09960779 -5.54858752 73.07714436 1.41055298 74.05026245 C2.94478547 74.26322855 4.47958852 74.47213233 6.01498413 74.67654419 C14.92715056 75.86410746 23.37534428 77.44903433 31.98925781 80.08154297 C34.4449205 80.83066744 36.87453012 81.4748364 39.375 82.046875 C54.31070524 85.97393543 66.66604847 93.59760377 76 106 C81.33421385 115.30556536 81.87558932 125.6476493 79.84765625 136.015625 C76.64095815 147.30556671 69.18625556 156.05227805 59.09375 161.85546875 C58.4028125 162.23316406 57.711875 162.61085937 57 163 C56.3090625 163.40863281 55.618125 163.81726563 54.90625 164.23828125 C17.88086265 184.71636363 -42.55499112 179.73134366 -82.125 169.90625 C-86.88487625 168.79305314 -91.64259302 168.1415188 -96.49609375 167.58984375 C-99.38440036 166.90944703 -100.20581805 166.32052242 -102 164 C-102.35644531 161.76342773 -102.35644531 161.76342773 -102.328125 159.18359375 C-102.32296875 158.25482422 -102.3178125 157.32605469 -102.3125 156.36914062 C-102.291875 155.40169922 -102.27125 154.43425781 -102.25 153.4375 C-102.24484375 152.46619141 -102.2396875 151.49488281 -102.234375 150.49414062 C-102.15448428 143.30896855 -102.15448428 143.30896855 -101 141 C-96.35143725 141.34433798 -92.60406062 142.03475633 -88.3125 143.875 C-83.34121531 145.99567168 -78.35874151 147.18351471 -73.078125 148.2890625 C-70 149 -70 149 -67.18701172 149.97973633 C-64.07721132 150.9752822 -61.15631266 151.55987553 -57.9296875 152.03515625 C-56.785 152.20466797 -55.6403125 152.37417969 -54.4609375 152.54882812 C-53.27757812 152.71833984 -52.09421875 152.88785156 -50.875 153.0625 C-49.71484375 153.23587891 -48.5546875 153.40925781 -47.359375 153.58789062 C-22.89809013 157.15858154 6.24525136 158.48110581 28.92578125 146.98828125 C31 146 31 146 33 146 C33.268125 145.401875 33.53625 144.80375 33.8125 144.1875 C35 142 35 142 36.4375 140.625 C41.23800716 135.63247255 41.34759435 130.48653112 41.3984375 123.90234375 C40.94710628 120.61470553 39.80076904 118.74879296 38 116 C38 115.34 38 114.68 38 114 C37.360625 113.731875 36.72125 113.46375 36.0625 113.1875 C34 112 34 112 33 109 C32.34 108.9175 31.68 108.835 31 108.75 C28 108 28 108 24.51953125 106.1171875 C19.44507533 103.54005329 14.24283214 102.46566927 8.6875 101.375 C7.62063965 101.15900146 6.5537793 100.94300293 5.45458984 100.72045898 C-0.64466313 99.52716656 -6.68562563 98.59879924 -12.875 98.0625 C-33.6453937 96.23688685 -55.66228786 92.98588112 -75 85 C-75.95777344 84.62488281 -76.91554688 84.24976562 -77.90234375 83.86328125 C-87.79868804 79.51742898 -95.84133042 72.02865382 -100.1953125 62.12890625 C-103.00570726 54.69363856 -103.509771 44.10417078 -100.8125 36.5 C-96.30686047 27.79945471 -91.14019587 19.43952371 -82 15 C-81.34 15 -80.68 15 -80 15 C-80 14.34 -80 13.68 -80 13 C-53.743239 1.43142709 -28.39532171 -0.43732603 0 0 Z " fill="#FEFEFE" transform="translate(481,36)"/>
<path d="M0 0 C188.76 0 377.52 0 572 0 C572 3.3 572 6.6 572 10 C570.09427353 11.90572647 567.27648758 11.12518291 564.74015951 11.13293558 C563.82859547 11.13059442 562.91703143 11.12825325 561.97784424 11.12584114 C561.01461699 11.12729458 560.05138974 11.12874802 559.05897379 11.13024551 C555.78832395 11.1339335 552.51771991 11.13040622 549.24707031 11.12698364 C546.8957835 11.12813436 544.54449686 11.12972154 542.1932106 11.13171089 C537.05889321 11.13503126 531.92458537 11.13520533 526.79026794 11.13266373 C519.15559103 11.12889458 511.52092305 11.13080801 503.8862462 11.13387203 C490.25387719 11.13914907 476.62151284 11.1386769 462.98914337 11.13579312 C451.05953421 11.1332818 439.12992676 11.13261888 427.20031738 11.13381577 C426.41031358 11.13389215 425.62030978 11.13396854 424.80636647 11.13404724 C421.59982906 11.13435855 418.39329165 11.13467695 415.18675424 11.135007 C385.08065875 11.13806895 354.97456624 11.13528787 324.86847121 11.1299101 C298.09590629 11.12516417 271.32334613 11.12558879 244.55078125 11.13037109 C214.50125429 11.13572076 184.45172997 11.13785183 154.40220261 11.13475883 C151.20136261 11.13443809 148.00052261 11.13412525 144.79968262 11.13381577 C144.01150077 11.13373669 143.22331892 11.13365761 142.41125277 11.13357614 C130.48644806 11.13243661 118.56164526 11.13377276 106.63684082 11.13629532 C93.08362757 11.13914798 79.53041975 11.13845388 65.97720718 11.13301457 C58.3833473 11.13006783 50.78949915 11.12990161 43.19563957 11.13366075 C37.54100753 11.13615223 31.88638777 11.13347036 26.23175764 11.12868617 C23.93232349 11.12756084 21.63288778 11.12815571 19.33345461 11.13056196 C16.22966519 11.13356301 13.12594162 11.13052453 10.02215576 11.12584114 C9.11059172 11.12818231 8.19902768 11.13052347 7.25984049 11.13293558 C1.11415034 11.11415034 1.11415034 11.11415034 0 10 C0 6.7 0 3.4 0 0 Z " fill="#FEFEFE" transform="translate(28,242)"/>
<path d="M0 0 C12.32744032 -1.21585713 12.32744032 -1.21585713 16.16015625 1.5703125 C17.70342816 3.64642765 18.8863688 5.6672801 20 8 C20.556875 9.051875 21.11375 10.10375 21.6875 11.1875 C22.120625 12.115625 22.55375 13.04375 23 14 C23.45890625 14.76441406 23.9178125 15.52882813 24.390625 16.31640625 C26.61252073 20.02136345 28.58872735 23.84826478 30.59765625 27.671875 C31.7871385 30.11666051 31.7871385 30.11666051 34 31 C34.2475 30.319375 34.495 29.63875 34.75 28.9375 C36.23317925 25.45202876 38.0693502 22.24929624 40 19 C40.45632812 18.22269531 40.91265625 17.44539063 41.3828125 16.64453125 C42.38909074 14.94544888 43.4130187 13.2567124 44.453125 11.578125 C46.0313678 9.02933734 46.0313678 9.02933734 47.296875 6.359375 C48.68260648 3.767242 49.77031253 1.92543277 52 0 C56.10556364 -0.80939776 59.8798907 -0.67920931 64 0 C65 1 65 1 65.11352539 4.69360352 C65.11336624 6.33871292 65.10766988 7.98382731 65.09765625 9.62890625 C65.0962413 10.49313705 65.09482635 11.35736786 65.09336853 12.24778748 C65.08775239 15.01939292 65.07519719 17.7909188 65.0625 20.5625 C65.05748708 22.4368478 65.05292381 24.31119685 65.04882812 26.18554688 C65.03777772 30.79039544 65.0205023 35.39518421 65 40 C62.01787087 41.49106457 59.28390342 41.11941467 56 41 C54.19605125 39.19605125 54.76294211 36.43322201 54.68359375 33.99609375 C54.64169922 32.78115234 54.59980469 31.56621094 54.55664062 30.31445312 C54.51732422 29.03505859 54.47800781 27.75566406 54.4375 26.4375 C54.39431641 25.15423828 54.35113281 23.87097656 54.30664062 22.54882812 C54.200152 19.36600147 54.09814038 16.18309326 54 13 C53.34197388 14.11242065 53.34197388 14.11242065 52.6706543 15.24731445 C51.03604877 18.00580584 49.39743948 20.76186628 47.75610352 23.51635742 C47.04746478 24.70745982 46.34041506 25.89950912 45.63500977 27.0925293 C44.61896491 28.81028237 43.59666269 30.52432934 42.57421875 32.23828125 C41.96151123 33.26993408 41.34880371 34.30158691 40.7175293 35.36450195 C39.2600921 37.60089635 38.10062888 39.37128383 36 41 C31.63293092 41.38991688 29.69486103 41.46324069 26 39 C24.39453125 36.25 24.39453125 36.25 22.8125 33 C22.28269531 31.9275 21.75289062 30.855 21.20703125 29.75 C20 27 20 27 20 25 C19.34 25 18.68 25 18 25 C17.57847656 24.21753906 17.15695313 23.43507813 16.72265625 22.62890625 C16.17480469 21.61699219 15.62695312 20.60507812 15.0625 19.5625 C14.51722656 18.55316406 13.97195312 17.54382813 13.41015625 16.50390625 C12.22300532 14.13329507 12.22300532 14.13329507 11 13 C10.98018066 13.77714355 10.96036133 14.55428711 10.93994141 15.35498047 C10.84492991 18.86200691 10.73515441 22.36841794 10.625 25.875 C10.5940625 27.09832031 10.563125 28.32164062 10.53125 29.58203125 C10.47324219 31.33193359 10.47324219 31.33193359 10.4140625 33.1171875 C10.3826416 34.19597168 10.3512207 35.27475586 10.31884766 36.38623047 C10 39 10 39 8 41 C4.5 41.25 4.5 41.25 1 41 C-1.57811234 38.42188766 -1.23752085 36.69655841 -1.25224304 33.18347168 C-1.24505753 32.39073853 -1.23787201 31.59800537 -1.23046875 30.78125 C-1.23001053 29.96756958 -1.22955231 29.15388916 -1.2290802 28.31555176 C-1.22605711 26.59397932 -1.2181691 24.87240964 -1.20581055 23.15087891 C-1.18757352 20.51064398 -1.18530072 17.87076004 -1.18554688 15.23046875 C-1.18063094 13.55989279 -1.1748023 11.88931922 -1.16796875 10.21875 C-1.16685593 9.42601685 -1.1657431 8.63328369 -1.16459656 7.81652832 C-1.11606827 2.23213654 -1.11606827 2.23213654 0 0 Z " fill="#FEFEFE" transform="translate(29,276)"/>
<path d="M0 0 C0.86033844 -0.00807175 1.72067688 -0.01614349 2.60708618 -0.02445984 C4.43806939 -0.03832826 6.26907874 -0.049038 8.10009766 -0.05688477 C10.86803591 -0.07393523 13.63472827 -0.11777403 16.40234375 -0.16210938 C35.34815816 -0.33184705 35.34815816 -0.33184705 42.5390625 4.23828125 C44.70402382 6.67151348 45.47507981 7.8703808 46.0390625 11.11328125 C45.38408661 15.20688056 43.71004079 17.68492819 40.5390625 20.23828125 C37.89329585 21.54404779 35.37863085 22.37197226 32.5390625 23.23828125 C33.1165625 23.64820313 33.6940625 24.058125 34.2890625 24.48046875 C35.0315625 25.01929688 35.7740625 25.558125 36.5390625 26.11328125 C37.2815625 26.64695312 38.0240625 27.180625 38.7890625 27.73046875 C39.3665625 28.22804688 39.9440625 28.725625 40.5390625 29.23828125 C40.5390625 29.89828125 40.5390625 30.55828125 40.5390625 31.23828125 C41.0959375 31.30015625 41.6528125 31.36203125 42.2265625 31.42578125 C45.58170822 32.60461623 47.28035313 34.54037839 49.5390625 37.23828125 C49.5390625 38.55828125 49.5390625 39.87828125 49.5390625 41.23828125 C40.35228523 42.30219112 40.35228523 42.30219112 36.0625 39.78515625 C32.93154238 37.07545474 30.86429186 35.21396933 29.5390625 31.23828125 C27.03458734 30.01958196 27.03458734 30.01958196 24.5390625 29.23828125 C24.5390625 28.57828125 24.5390625 27.91828125 24.5390625 27.23828125 C16.90360257 24.49778886 9.62206194 23.60569032 1.5390625 23.23828125 C1.56226563 24.37007813 1.58546875 25.501875 1.609375 26.66796875 C1.62813151 28.149733 1.64633184 29.63150437 1.6640625 31.11328125 C1.68082031 31.85964844 1.69757813 32.60601562 1.71484375 33.375 C1.7324584 35.33022586 1.64226439 37.28570146 1.5390625 39.23828125 C-0.4609375 41.23828125 -0.4609375 41.23828125 -2.37109375 41.46875 C-8.34982639 41.34939236 -8.34982639 41.34939236 -9.4609375 40.23828125 C-9.56200624 37.36564069 -9.60063422 34.51754497 -9.59375 31.64453125 C-9.59470673 30.78267212 -9.59566345 29.92081299 -9.59664917 29.03283691 C-9.597331 27.20694913 -9.59547654 25.38105894 -9.59130859 23.55517578 C-9.58596036 20.75027047 -9.59125349 17.9455253 -9.59765625 15.140625 C-9.59699547 13.37109339 -9.59571431 11.60156189 -9.59375 9.83203125 C-9.59577423 8.9872522 -9.59779846 8.14247314 -9.59988403 7.27209473 C-9.56650554 -0.96098369 -7.48597062 0.0662032 0 0 Z M1.5390625 6.23828125 C1.5390625 9.86828125 1.5390625 13.49828125 1.5390625 17.23828125 C5.37282892 17.31965837 9.20484579 17.37896814 13.0390625 17.42578125 C14.11671875 17.45091797 15.194375 17.47605469 16.3046875 17.50195312 C22.736317 17.560779 27.79678022 17.28032365 33.5390625 14.23828125 C34.2882192 12.19321187 34.2882192 12.19321187 34.5390625 10.23828125 C29.97200757 6.48677184 26.51251279 6.11086569 20.6796875 6.140625 C19.56464844 6.14384766 18.44960938 6.14707031 17.30078125 6.15039062 C15.56248047 6.16295898 15.56248047 6.16295898 13.7890625 6.17578125 C12.61472656 6.18029297 11.44039063 6.18480469 10.23046875 6.18945312 C7.33331155 6.20123019 4.43618057 6.21916537 1.5390625 6.23828125 Z " fill="#FDFDFD" transform="translate(489.4609375,275.76171875)"/>
<path d="M0 0 C5.67420636 -0.07460523 11.34812208 -0.12881608 17.02270508 -0.16479492 C18.94983906 -0.17980652 20.87693932 -0.20022216 22.80395508 -0.22631836 C25.58683639 -0.26303943 28.36926288 -0.27980292 31.15234375 -0.29296875 C32.00271713 -0.30845261 32.85309052 -0.32393646 33.72923279 -0.33988953 C40.54196519 -0.34177172 46.83397066 0.78377947 52.5 4.75 C54.5929738 7.88946069 54.93410945 10.24423851 55 14 C54.1875 16.6875 54.1875 16.6875 52 19 C48.75072347 20.59851868 45.43041767 21.84794603 42 23 C42.47308594 23.3403125 42.94617188 23.680625 43.43359375 24.03125 C48.91406111 28.04812276 53.98146829 32.4229132 59 37 C58.67 38.32 58.34 39.64 58 41 C53.97779048 41.58657222 50.46854473 41.93452846 46.9375 39.6875 C45.61695826 38.49475262 44.32585186 37.26878854 43.0625 36.015625 C40.16896133 33.18784857 36.93772628 30.87970673 33.6875 28.48046875 C32.8521875 27.74763672 32.8521875 27.74763672 32 27 C32 26.34 32 25.68 32 25 C25.03220597 23.67280114 18.07011089 23.91174619 11 24 C10.95101562 25.14339844 10.90203125 26.28679687 10.8515625 27.46484375 C10.77654811 28.95575473 10.70099972 30.44663892 10.625 31.9375 C10.57859375 33.06961914 10.57859375 33.06961914 10.53125 34.22460938 C10.4273685 36.15507395 10.22104386 38.07942081 10 40 C7.01787087 41.49106457 4.28390342 41.11941467 1 41 C0 40 0 40 -0.11352539 36.21459961 C-0.11336622 34.52717271 -0.10766917 32.83974095 -0.09765625 31.15234375 C-0.0962413 30.2659169 -0.09482635 29.37949005 -0.09336853 28.46620178 C-0.08775215 25.62326746 -0.07519691 22.78041069 -0.0625 19.9375 C-0.05748711 18.01497509 -0.05292384 16.09244896 -0.04882812 14.16992188 C-0.03777741 9.44658451 -0.02050183 4.72330542 0 0 Z M10 7 C9.92794489 8.68608966 9.91613932 10.37500659 9.9375 12.0625 C9.94652344 12.98160156 9.95554688 13.90070313 9.96484375 14.84765625 C9.97644531 15.55792969 9.98804688 16.26820313 10 17 C13.9998593 17.08783475 17.99946704 17.14067102 22 17.1875 C23.12535156 17.21263672 24.25070313 17.23777344 25.41015625 17.26367188 C31.95182015 17.32105489 37.16725788 17.11967577 43 14 C43.74661426 11.9546391 43.74661426 11.9546391 44 10 C39.64389864 6.54516099 36.57182266 5.87301869 31.0546875 5.8671875 C29.31638672 5.86525391 29.31638672 5.86525391 27.54296875 5.86328125 C26.33253906 5.86714844 25.12210938 5.87101562 23.875 5.875 C22.65683594 5.87113281 21.43867188 5.86726563 20.18359375 5.86328125 C18.44916016 5.86521484 18.44916016 5.86521484 16.6796875 5.8671875 C15.61476074 5.86831543 14.54983398 5.86944336 13.45263672 5.87060547 C11.05407306 5.72296976 11.05407306 5.72296976 10 7 Z " fill="#FEFEFE" transform="translate(169,276)"/>
<path d="M0 0 C0.86825912 0.00222061 1.73651825 0.00444122 2.63108826 0.00672913 C3.61202957 0.00680466 4.59297089 0.00688019 5.6036377 0.00695801 C6.6702916 0.01211929 7.7369455 0.01728058 8.83592224 0.02259827 C9.92211349 0.02401321 11.00830475 0.02542816 12.12741089 0.02688599 C15.61230674 0.03250403 19.09713941 0.04505959 22.58201599 0.05775452 C24.93813486 0.06276719 27.29425473 0.0673305 29.65037537 0.07142639 C35.44011063 0.08247933 41.2298088 0.09923501 47.01951599 0.12025452 C47.40170366 1.77640109 47.73346701 3.44482476 48.01951599 5.12025452 C45.93747241 7.2022981 41.48566039 6.37846743 38.60935974 6.43666077 C37.3463076 6.46783241 37.3463076 6.46783241 36.05773926 6.49963379 C33.3575842 6.56522264 30.65732882 6.62405727 27.95701599 6.68275452 C26.13083358 6.72593088 24.30466146 6.76954487 22.47850037 6.81361389 C17.99227607 6.92091346 13.50595049 7.02215418 9.01951599 7.12025452 C8.68951599 10.09025452 8.35951599 13.06025452 8.01951599 16.12025452 C20.22951599 16.12025452 32.43951599 16.12025452 45.01951599 16.12025452 C45.01951599 18.10025452 45.01951599 20.08025452 45.01951599 22.12025452 C44.01951599 23.12025452 44.01951599 23.12025452 40.6013031 23.23377991 C39.08314611 23.23362079 37.5649837 23.22792678 36.04685974 23.21791077 C35.24921707 23.21649582 34.4515744 23.21508087 33.62976074 23.21362305 C31.07214164 23.20800768 28.51460881 23.19545264 25.95701599 23.18275452 C24.22719954 23.17774149 22.49738173 23.17317824 20.76756287 23.16908264 C16.51818046 23.15803326 12.26886287 23.14075838 8.01951599 23.12025452 C8.01951599 26.75025452 8.01951599 30.38025452 8.01951599 34.12025452 C21.54951599 34.12025452 35.07951599 34.12025452 49.01951599 34.12025452 C49.51451599 36.59525452 49.51451599 36.59525452 50.01951599 39.12025452 C48.01951599 41.12025452 48.01951599 41.12025452 45.93223572 41.36749268 C44.64222656 41.36535515 44.64222656 41.36535515 43.32615662 41.36317444 C41.86454102 41.36778938 41.86454102 41.36778938 40.37339783 41.37249756 C38.79057007 41.36171928 38.79057007 41.36171928 37.17576599 41.35072327 C35.55571655 41.35003593 35.55571655 41.35003593 33.90293884 41.34933472 C31.61642866 41.34630985 29.32992059 41.3384166 27.04344177 41.32606506 C23.53409056 41.30783025 20.02500334 41.30555519 16.51560974 41.30580139 C14.29815953 41.30088552 12.08071112 41.29505689 9.86326599 41.28822327 C8.80804749 41.28711044 7.75282898 41.28599762 6.66563416 41.28485107 C5.69122375 41.27847122 4.71681335 41.27209137 3.71287537 41.26551819 C2.85286926 41.26170639 1.99286316 41.25789459 1.10679626 41.25396729 C-0.98048401 41.12025452 -0.98048401 41.12025452 -2.98048401 40.12025452 C-3.00513176 34.58436918 -3.02331896 29.04851552 -3.03541565 23.5125885 C-3.04045645 21.62781722 -3.04728899 19.74304987 -3.05592346 17.85829163 C-3.06800018 15.15523816 -3.07371469 12.45223621 -3.07814026 9.74916077 C-3.08330154 8.90124466 -3.08846283 8.05332855 -3.09378052 7.17971802 C-3.09397596 5.15954383 -3.04254612 3.13947518 -2.98048401 1.12025452 C-1.98048401 0.12025452 -1.98048401 0.12025452 0 0 Z " fill="#FEFEFE" transform="translate(419.98048400878906,275.87974548339844)"/>
<path d="M0 0 C0.86825912 0.00222061 1.73651825 0.00444122 2.63108826 0.00672913 C3.61202957 0.00680466 4.59297089 0.00688019 5.6036377 0.00695801 C6.6702916 0.01211929 7.7369455 0.01728058 8.83592224 0.02259827 C9.92211349 0.02401321 11.00830475 0.02542816 12.12741089 0.02688599 C15.61230674 0.03250403 19.09713941 0.04505959 22.58201599 0.05775452 C24.93813486 0.06276719 27.29425473 0.0673305 29.65037537 0.07142639 C35.44011063 0.08247933 41.2298088 0.09923501 47.01951599 0.12025452 C48.14451599 3.87025452 48.14451599 3.87025452 47.01951599 6.12025452 C34.14951599 6.12025452 21.27951599 6.12025452 8.01951599 6.12025452 C8.01951599 9.42025452 8.01951599 12.72025452 8.01951599 16.12025452 C20.22951599 16.12025452 32.43951599 16.12025452 45.01951599 16.12025452 C45.01951599 18.10025452 45.01951599 20.08025452 45.01951599 22.12025452 C44.01951599 23.12025452 44.01951599 23.12025452 40.6013031 23.23377991 C39.08314611 23.23362079 37.5649837 23.22792678 36.04685974 23.21791077 C35.24921707 23.21649582 34.4515744 23.21508087 33.62976074 23.21362305 C31.07214164 23.20800768 28.51460881 23.19545264 25.95701599 23.18275452 C24.22719954 23.17774149 22.49738173 23.17317824 20.76756287 23.16908264 C16.51818046 23.15803326 12.26886287 23.14075838 8.01951599 23.12025452 C8.01951599 26.75025452 8.01951599 30.38025452 8.01951599 34.12025452 C21.54951599 34.12025452 35.07951599 34.12025452 49.01951599 34.12025452 C49.51451599 36.59525452 49.51451599 36.59525452 50.01951599 39.12025452 C48.01951599 41.12025452 48.01951599 41.12025452 45.93223572 41.36749268 C44.64222656 41.36535515 44.64222656 41.36535515 43.32615662 41.36317444 C41.86454102 41.36778938 41.86454102 41.36778938 40.37339783 41.37249756 C38.79057007 41.36171928 38.79057007 41.36171928 37.17576599 41.35072327 C35.55571655 41.35003593 35.55571655 41.35003593 33.90293884 41.34933472 C31.61642866 41.34630985 29.32992059 41.3384166 27.04344177 41.32606506 C23.53409056 41.30783025 20.02500334 41.30555519 16.51560974 41.30580139 C14.29815953 41.30088552 12.08071112 41.29505689 9.86326599 41.28822327 C8.80804749 41.28711044 7.75282898 41.28599762 6.66563416 41.28485107 C5.69122375 41.27847122 4.71681335 41.27209137 3.71287537 41.26551819 C2.85286926 41.26170639 1.99286316 41.25789459 1.10679626 41.25396729 C-0.98048401 41.12025452 -0.98048401 41.12025452 -2.98048401 40.12025452 C-3.00513176 34.58436918 -3.02331896 29.04851552 -3.03541565 23.5125885 C-3.04045645 21.62781722 -3.04728899 19.74304987 -3.05592346 17.85829163 C-3.06800018 15.15523816 -3.07371469 12.45223621 -3.07814026 9.74916077 C-3.08330154 8.90124466 -3.08846283 8.05332855 -3.09378052 7.17971802 C-3.09397596 5.15954383 -3.04254612 3.13947518 -2.98048401 1.12025452 C-1.98048401 0.12025452 -1.98048401 0.12025452 0 0 Z " fill="#FDFDFD" transform="translate(300.98048400878906,275.87974548339844)"/>
<path d="M0 0 C2.3125 2.1875 2.3125 2.1875 3.25 5.375 C3.270625 6.303125 3.29125 7.23125 3.3125 8.1875 C2.3125 9.1875 2.3125 9.1875 -1.4375 9.5625 C-5.08807591 9.54290836 -5.54870798 9.30778642 -8.5 6.75 C-9.221875 5.904375 -9.94375 5.05875 -10.6875 4.1875 C-14.49735105 2.91754965 -18.09359619 3.00335211 -22.0625 3 C-22.81789063 2.98775391 -23.57328125 2.97550781 -24.3515625 2.96289062 C-28.59097819 2.95177328 -31.81730179 3.23698178 -35.6875 5.1875 C-35.01965906 8.23619192 -35.01965906 8.23619192 -32.91235352 9.32836914 C-30.58771264 10.22603305 -28.56082859 10.63251266 -26.08984375 10.93359375 C-25.21070313 11.04678955 -24.3315625 11.15998535 -23.42578125 11.27661133 C-22.50152344 11.39157959 -21.57726562 11.50654785 -20.625 11.625 C0.13695186 14.45246868 0.13695186 14.45246868 4.5625 18.9375 C6.3125 22.1875 6.3125 22.1875 6.4375 25.8125 C4.73512892 30.91961325 1.85557975 32.31951764 -2.6875 34.875 C-13.00417964 39.38854734 -28.09160943 38.52785058 -38.5859375 35.03515625 C-43.57179801 33.02413073 -46.47022066 31.23796961 -48.6875 26.1875 C-48.2578125 24.02734375 -48.2578125 24.02734375 -47.6875 22.1875 C-44.63315031 21.88805395 -41.73353491 21.76115785 -38.6875 22.1875 C-35.9375 24.5625 -35.9375 24.5625 -33.6875 27.1875 C-25.56602191 31.10443547 -16.16492251 30.89205084 -7.6875 28.1875 C-6.6975 27.5275 -5.7075 26.8675 -4.6875 26.1875 C-5.1825 24.7025 -5.1825 24.7025 -5.6875 23.1875 C-10.7212135 20.83540362 -16.61990055 20.17763898 -22.06640625 19.28515625 C-23.51140503 19.04333618 -23.51140503 19.04333618 -24.9855957 18.79663086 C-26.92271219 18.47893158 -28.86273276 18.17836606 -30.80541992 17.89672852 C-37.03685854 16.88220619 -40.91942291 15.39009086 -45.6875 11.1875 C-46.98094299 7.73831869 -46.95620795 6.05563339 -45.875 2.5625 C-35.60275176 -8.59022666 -12.14058184 -6.92505742 0 0 Z " fill="#FDFDFD" transform="translate(592.6875,279.8125)"/>
<path d="M0 0 C3.3 0 6.6 0 10 0 C10 5.94 10 11.88 10 18 C15.41012597 15.08685524 20.79537099 12.16530169 26.0625 9 C26.88234375 8.51273437 27.7021875 8.02546875 28.546875 7.5234375 C30.19616643 6.49919601 31.81184766 5.41897177 33.390625 4.2890625 C40.23197814 -0.41160917 45.82232941 -0.69215394 54 0 C54 0.99 54 1.98 54 3 C52.60922699 3.82113177 51.21211107 4.63152495 49.8125 5.4375 C48.64654297 6.11619141 48.64654297 6.11619141 47.45703125 6.80859375 C44.95068023 8.02391499 42.74209635 8.57626575 40 9 C40 9.66 40 10.32 40 11 C36.7 12.65 33.4 14.3 30 16 C30 16.66 30 17.32 30 18 C31.39310223 18.96837594 32.79353813 19.92768262 34.2265625 20.8359375 C37.93733908 23.27164547 41.32805395 26.16025284 44.7890625 28.93359375 C48.41928519 31.82018051 52.10416883 34.48196278 56 37 C55.67 38.32 55.34 39.64 55 41 C53.2507786 41.08142927 51.50045458 41.13938541 49.75 41.1875 C48.77546875 41.22230469 47.8009375 41.25710938 46.796875 41.29296875 C43.60293349 40.95840784 42.27119696 40.23334367 40 38 C40 37.34 40 36.68 40 36 C39.360625 35.896875 38.72125 35.79375 38.0625 35.6875 C37.381875 35.460625 36.70125 35.23375 36 35 C35.67 34.01 35.34 33.02 35 32 C32.49552484 30.78130071 32.49552484 30.78130071 30 30 C30 29.34 30 28.68 30 28 C29.443125 27.7525 28.88625 27.505 28.3125 27.25 C25.60028873 25.78393985 23.36412635 23.97010529 21 22 C15.07621663 23.87070896 15.07621663 23.87070896 11 28 C10.96967814 30.24381748 11.06643448 32.46911264 11.16015625 34.7109375 C10.98208151 37.25610333 10.27356922 38.81245757 9 41 C2.84765625 41.09765625 2.84765625 41.09765625 1 41 C0 40 0 40 -0.11352539 36.21459961 C-0.11336622 34.52717271 -0.10766917 32.83974095 -0.09765625 31.15234375 C-0.0962413 30.2659169 -0.09482635 29.37949005 -0.09336853 28.46620178 C-0.08775215 25.62326746 -0.07519691 22.78041069 -0.0625 19.9375 C-0.05748711 18.01497509 -0.05292384 16.09244896 -0.04882812 14.16992188 C-0.03777741 9.44658451 -0.02050183 4.72330542 0 0 Z " fill="#FDFDFD" transform="translate(236,276)"/>
<path d="M0 0 C7.60141125 -0.15429116 7.60141125 -0.15429116 10.41015625 1.74609375 C12.65902838 4.35894518 13.57421875 6.03698677 13.57421875 9.50390625 C14.56421875 9.83390625 15.55421875 10.16390625 16.57421875 10.50390625 C17.78515625 11.94677734 17.78515625 11.94677734 18.94921875 13.77734375 C19.3771875 14.43734375 19.80515625 15.09734375 20.24609375 15.77734375 C20.684375 16.47085937 21.12265625 17.164375 21.57421875 17.87890625 C22.44598204 19.2429594 23.32088424 20.60501261 24.19921875 21.96484375 C24.58335937 22.57118652 24.9675 23.1775293 25.36328125 23.80224609 C26.62180879 25.57078177 28.03479662 26.97956629 29.57421875 28.50390625 C30.59288104 30.15923248 31.59232688 31.82650763 32.57421875 33.50390625 C33.13109375 34.20515625 33.68796875 34.90640625 34.26171875 35.62890625 C35.57421875 37.50390625 35.57421875 37.50390625 35.57421875 40.50390625 C32.43550687 42.07326219 30.03566053 41.85591728 26.57421875 41.50390625 C23.43208449 39.019428 21.81721604 37.09765193 20.296875 33.3828125 C17.01913914 29.91697129 15.90554698 29.96843437 11.26953125 29.6015625 C8.74644787 29.55769435 6.2226109 29.54727031 3.69921875 29.56640625 C1.79849609 29.49389648 1.79849609 29.49389648 -0.140625 29.41992188 C-6.93944161 29.24633026 -6.93944161 29.24633026 -12.57519531 32.50341797 C-14.07865172 34.77868517 -15.25872727 37.04441465 -16.42578125 39.50390625 C-18.42578125 41.50390625 -18.42578125 41.50390625 -20.37109375 41.69921875 C-22.38932292 41.63411458 -24.40755208 41.56901042 -26.42578125 41.50390625 C-27.1328125 39.86328125 -27.1328125 39.86328125 -27.42578125 37.50390625 C-26.0625 34.70703125 -26.0625 34.70703125 -24.11328125 31.75390625 C-23.47777344 30.7690625 -22.84226562 29.78421875 -22.1875 28.76953125 C-21.60613281 28.021875 -21.02476563 27.27421875 -20.42578125 26.50390625 C-19.76578125 26.50390625 -19.10578125 26.50390625 -18.42578125 26.50390625 C-18.32652344 25.94058594 -18.22726563 25.37726563 -18.125 24.796875 C-17.27579971 22.01206735 -15.95310442 20.16719033 -14.23828125 17.81640625 C-10.8571949 13.11349601 -7.61780108 8.33640686 -4.42578125 3.50390625 C-2.42578125 0.50390625 -2.42578125 0.50390625 0 0 Z M2.57421875 8.50390625 C-0.06578125 13.12390625 -2.70578125 17.74390625 -5.42578125 22.50390625 C-4.21149137 23.94779196 -4.21149137 23.94779196 -0.609375 23.6015625 C0.97268557 23.59488714 2.55473034 23.582925 4.13671875 23.56640625 C5.34618164 23.55963867 5.34618164 23.55963867 6.58007812 23.55273438 C8.57815631 23.54091143 10.57619658 23.52297539 12.57421875 23.50390625 C12.11402344 22.59898437 12.11402344 22.59898437 11.64453125 21.67578125 C10.48809812 19.32915052 9.52208475 16.94127595 8.57421875 14.50390625 C7.91421875 14.50390625 7.25421875 14.50390625 6.57421875 14.50390625 C6.28546875 13.69953125 5.99671875 12.89515625 5.69921875 12.06640625 C4.84159307 9.37125945 4.84159307 9.37125945 2.57421875 8.50390625 Z " fill="#FDFDFD" transform="translate(127.42578125,275.49609375)"/>
<path d="M0 0 C17.82 0 35.64 0 54 0 C54.495 2.475 54.495 2.475 55 5 C53.38219843 6.61780157 51.54364482 6.22272147 49.30859375 6.31640625 C48.36435547 6.35830078 47.42011719 6.40019531 46.44726562 6.44335938 C44.95743164 6.50233398 44.95743164 6.50233398 43.4375 6.5625 C42.44041016 6.60568359 41.44332031 6.64886719 40.41601562 6.69335938 C37.9441585 6.79980298 35.4721969 6.90181928 33 7 C33.01571045 8.38505737 33.01571045 8.38505737 33.03173828 9.7980957 C33.0658319 13.22536718 33.09090446 16.65245833 33.10986328 20.07983398 C33.11991821 21.56293583 33.13356404 23.04601788 33.15087891 24.52905273 C33.17515006 26.66134531 33.18648799 28.79337569 33.1953125 30.92578125 C33.21102295 32.85031128 33.21102295 32.85031128 33.22705078 34.8137207 C33 38 33 38 31 41 C28.2572492 41.47114738 25.80441103 41.17805784 23 41 C21.04901915 39.04901915 21.74584892 35.35325071 21.68359375 32.68359375 C21.66281265 31.95253922 21.64203156 31.22148468 21.62062073 30.46827698 C21.55504976 28.12478344 21.49620568 25.78117461 21.4375 23.4375 C21.39432192 21.85220145 21.35070787 20.26691471 21.30664062 18.68164062 C21.19853718 14.78787702 21.09952117 10.89403042 21 7 C14.07 6.67 7.14 6.34 0 6 C0 4.02 0 2.04 0 0 Z " fill="#FEFEFE" transform="translate(356,276)"/>
</svg>
