<?xml version="1.0" encoding="UTF-8"?>
<svg version="1.1" xmlns="http://www.w3.org/2000/svg" width="1080" height="1080">
<path d="M0 0 C7.12494179 0.0043596 14.24986601 0.00122178 21.3748067 -0.00362909 C28.36285683 -0.00819069 35.35089944 -0.0087979 42.33895057 -0.00619042 C46.46358157 -0.00465276 50.58820072 -0.00436453 54.7128309 -0.00772691 C83.79109988 -0.02777362 83.79109988 -0.02777362 94.95634782 0.44936919 C96.01114918 0.48231487 96.01114918 0.48231487 97.08725965 0.51592612 C99.83698533 0.66938434 101.66501825 0.88853169 103.9496187 2.48351836 C105.00883806 4.12856841 105.00883806 4.12856841 105.00883806 7.12856841 C105.66883806 7.12856841 106.32883806 7.12856841 107.00883806 7.12856841 C108.37211124 8.9521676 109.65002895 10.84000032 110.88383806 12.75356841 C111.90090837 14.31977935 111.90090837 14.31977935 112.93852556 15.91763091 C113.62172868 16.97724029 114.30493181 18.03684966 115.00883806 19.12856841 C118.27076665 24.10125408 121.74821389 28.87359388 125.30180681 33.64028716 C127.00883806 36.12856841 127.00883806 36.12856841 128.00883806 39.12856841 C129.33932544 40.46474164 130.67310449 41.79763964 132.00883806 43.12856841 C133.30713256 44.97045776 134.55666109 46.84755279 135.75883806 48.75356841 C136.37243181 49.71520904 136.98602556 50.67684966 137.61821306 51.66763091 C139.00883806 54.12856841 139.00883806 54.12856841 139.00883806 56.12856841 C139.66883806 56.12856841 140.32883806 56.12856841 141.00883806 56.12856841 C142.52446306 58.25356841 142.52446306 58.25356841 144.25883806 61.12856841 C146.92706696 65.46933492 149.73342065 69.51761014 152.94243181 73.47231841 C154.00883806 75.12856841 154.00883806 75.12856841 154.00883806 78.12856841 C154.66883806 78.12856841 155.32883806 78.12856841 156.00883806 78.12856841 C157.48930681 80.18325591 157.48930681 80.18325591 159.19633806 83.00356841 C161.5223473 86.76651311 163.88774688 90.45704646 166.44633806 94.06606841 C169.01539571 97.69027474 171.49978724 101.35801483 173.94633806 105.06606841 C177.2882553 110.11810737 180.80722858 115.00665833 184.44243181 119.85122466 C186.00883806 122.12856841 186.00883806 122.12856841 187.00883806 125.12856841 C187.84415056 125.93294341 187.84415056 125.93294341 188.69633806 126.75356841 C192.65189372 130.81603099 195.5784741 135.69266249 198.44243181 140.56997466 C200.1599952 143.37547097 202.04964861 145.98663112 204.00883806 148.62856841 C206.54228803 152.04488731 208.8404086 155.47243165 211.00883806 159.12856841 C212.54534396 161.52093189 214.1186345 163.8882225 215.69633806 166.25356841 C216.13478044 166.91155425 216.57322282 167.56954009 217.02495134 168.2474649 C220.30531631 173.14185504 223.70696098 177.93263609 227.21977556 182.66372466 C229.23132285 185.43509222 231.11659491 188.27440574 233.00883806 191.12856841 C234.77039226 193.71829001 236.54553129 196.29860526 238.32133806 198.87856841 C239.05090715 199.93962798 239.05090715 199.93962798 239.79521501 201.0221231 C242.41014046 204.82107568 245.04005365 208.60835828 247.69633806 212.37856841 C250.17510073 215.90195249 252.57160816 219.47175824 254.94633806 223.06606841 C258.24016047 228.0388431 261.68824994 232.86984646 265.24711931 237.65591216 C266.97533618 240.08154692 268.48929005 242.56868296 270.00883806 245.12856841 C270.95216279 246.51390816 271.91158094 247.88837836 272.88383806 249.25356841 C276.58051526 254.50380608 280.2409957 259.77832808 283.88383806 265.06606841 C284.46762224 265.90734282 285.05140642 266.74861724 285.65288103 267.61538482 C286.20089372 268.41250884 286.74890642 269.20963286 287.31352556 270.03091216 C287.80836442 270.74755034 288.30320329 271.46418853 288.81303728 272.20254302 C290.00883806 274.12856841 290.00883806 274.12856841 291.00883806 277.12856841 C294.3439411 276.0168674 295.11247979 275.13388699 297.32133806 272.50356841 C297.92977556 271.78942779 298.53821306 271.07528716 299.16508806 270.33950591 C300.35667443 268.91061208 301.5444512 267.47852883 302.72758806 266.04263091 C303.51649431 265.09516997 303.51649431 265.09516997 304.32133806 264.12856841 C304.79184587 263.55106841 305.26235368 262.97356841 305.74711931 262.37856841 C307.00883806 261.12856841 307.00883806 261.12856841 309.00883806 261.12856841 C309.38008806 260.29325591 309.38008806 260.29325591 309.75883806 259.44106841 C311.23691737 256.70662169 313.01834482 254.51716029 315.00883806 252.12856841 C316.2018654 250.69577544 316.2018654 250.69577544 317.41899431 249.23403716 C317.83938982 248.73178618 318.25978532 248.22953521 318.69292009 247.7120645 C320.06070222 246.06615822 321.40918726 244.40580921 322.75493181 242.74184966 C323.65194829 241.64149228 324.54908089 240.54122955 325.44633806 239.44106841 C326.270049 238.42657622 327.09375993 237.41208404 327.94243181 236.36684966 C328.62434587 235.62821685 329.30625993 234.88958404 330.00883806 234.12856841 C330.66883806 234.12856841 331.32883806 234.12856841 332.00883806 234.12856841 C332.66883806 232.47856841 333.32883806 230.82856841 334.00883806 229.12856841 C334.66883806 229.12856841 335.32883806 229.12856841 336.00883806 229.12856841 C336.38008806 228.27585357 336.38008806 228.27585357 336.75883806 227.40591216 C338.20979399 224.76245182 339.93826736 222.88365488 342.00883806 220.69106841 C346.12569502 216.21564649 349.85140153 211.5617394 353.46977556 206.68350005 C356.08160711 203.19763464 358.91188417 200.183355 362.00883806 197.12856841 C364.06970136 194.85041767 366.07048805 192.52195241 368.07133806 190.19106841 C368.63063005 189.54226714 369.18992204 188.89346587 369.76616228 188.22500396 C370.93116486 186.87270455 372.09521857 185.51958713 373.25834978 184.16567779 C374.97603695 182.16674029 376.69719389 180.17083816 378.41899431 178.17544341 C379.49080817 176.93082332 380.56243054 175.68603831 381.63383806 174.44106841 C382.13020769 173.86558257 382.62657732 173.29009673 383.13798845 172.69717193 C385.08647725 170.4268029 386.97957383 168.16952496 388.71977556 165.73403716 C389.14516618 165.20423247 389.57055681 164.67442779 390.00883806 164.12856841 C390.66883806 164.12856841 391.32883806 164.12856841 392.00883806 164.12856841 C392.23571306 163.40669341 392.46258806 162.68481841 392.69633806 161.94106841 C394.28219166 158.54281069 396.33461867 156.76549046 399.00883806 154.12856841 C401.0918407 151.83077258 403.11260829 149.48073307 405.13383806 147.12856841 C405.69643327 146.47646392 406.25902849 145.82435943 406.83867204 145.15249419 C410.60079417 140.78477248 414.344014 136.40101638 418.07133806 132.00356841 C418.51171403 131.48407622 418.95209001 130.96458404 419.40581071 130.42934966 C421.37958208 128.09164751 423.31265674 125.7383326 425.19243181 123.32388091 C427.00883806 121.12856841 427.00883806 121.12856841 429.00883806 120.12856841 C429.27696306 119.55106841 429.54508806 118.97356841 429.82133806 118.37856841 C431.05188439 116.04700693 432.5166571 114.53710317 434.40336931 112.72231841 C440.57773299 106.59302308 446.10123749 99.85338005 451.57133806 93.10122466 C455.77282801 87.9772922 460.11324992 82.97271435 464.43852556 77.95327544 C466.02757364 76.10679762 467.61262831 74.25696997 469.19633806 72.40591216 C478.80594728 61.17459762 478.80594728 61.17459762 483.70415056 55.67934966 C485.20834162 53.94977351 485.20834162 53.94977351 487.00883806 51.12856841 C487.66883806 51.12856841 488.32883806 51.12856841 489.00883806 51.12856841 C489.25633806 50.57169341 489.50383806 50.01481841 489.75883806 49.44106841 C493.82270991 41.92290548 500.72326542 35.53908095 506.44633806 29.25356841 C510.28704757 25.01893997 513.82900642 20.61678257 517.28227556 16.06216216 C519.00883806 14.12856841 519.00883806 14.12856841 522.00883806 13.12856841 C522.15321306 12.48919341 522.29758806 11.84981841 522.44633806 11.19106841 C522.63196306 10.51044341 522.81758806 9.82981841 523.00883806 9.12856841 C523.96790056 8.66450591 523.96790056 8.66450591 524.94633806 8.19106841 C527.76014374 6.74153215 527.90359339 5.00220454 529.00883806 2.12856841 C540.61885465 -1.74143712 555.05740229 0.02357047 567.19633806 0.00356841 C567.91387254 0.00098022 568.63140703 -0.00160798 569.37068498 -0.00427461 C579.29518347 -0.03243423 589.11374553 0.34012198 599.00883806 1.12856841 C599.14946306 3.50356841 599.14946306 3.50356841 599.00883806 6.12856841 C596.75883806 8.12856841 596.75883806 8.12856841 594.00883806 10.12856841 C592.6549687 11.77859669 591.32205663 13.44600711 590.00883806 15.12856841 C588.34217139 16.79523508 586.67550472 18.46190174 585.00883806 20.12856841 C583.66460466 21.78645626 582.33265322 23.45433158 581.00883806 25.12856841 C577.27873732 29.49503803 573.43738944 33.75757749 569.57133806 38.00356841 C565.94955971 42.01623008 562.54891584 46.15225033 559.19633806 50.39028716 C556.54506474 53.70911322 553.85364209 56.99078032 551.13383806 60.25356841 C550.65704607 60.8346939 550.18025407 61.41581939 549.68901384 62.01455474 C548.50683121 63.42447201 547.26261528 64.78191881 546.00883806 66.12856841 C545.34883806 66.12856841 544.68883806 66.12856841 544.00883806 66.12856841 C543.34883806 67.77856841 542.68883806 69.42856841 542.00883806 71.12856841 C541.34883806 71.12856841 540.68883806 71.12856841 540.00883806 71.12856841 C539.76649431 71.69059966 539.52415056 72.25263091 539.27446306 72.83169341 C537.75873175 75.58246504 535.90495564 77.58645644 533.75883806 79.87856841 C530.27313357 83.66176459 527.13098317 87.50519113 524.20024431 91.73013091 C523.80708025 92.19161529 523.41391618 92.65309966 523.00883806 93.12856841 C522.34883806 93.12856841 521.68883806 93.12856841 521.00883806 93.12856841 C520.78196306 93.85044341 520.55508806 94.57231841 520.32133806 95.31606841 C518.73964088 98.7054195 516.80769304 100.67103721 514.00883806 103.12856841 C512.52383806 103.62356841 512.52383806 103.62356841 511.00883806 104.12856841 C510.73426775 104.84528716 510.45969743 105.56200591 510.17680681 106.30044341 C508.63281394 110.03907498 506.09736357 112.52458369 503.32133806 115.37856841 C498.54813043 120.4084001 494.15050669 125.55993831 490.00883806 131.12856841 C486.24612619 136.00992434 486.24612619 136.00992434 484.00883806 137.12856841 C483.35915056 138.24231841 483.35915056 138.24231841 482.69633806 139.37856841 C480.79940841 142.46986118 478.57992108 144.56845729 476.00883806 147.12856841 C474.09173253 149.25968446 472.23766622 151.44236352 470.38383806 153.62856841 C469.61257585 154.53083159 469.61257585 154.53083159 468.82573259 155.45132232 C466.14455125 158.59288371 463.48610876 161.75163371 460.85258806 164.93325591 C460.35323747 165.5333145 459.85388689 166.1333731 459.33940446 166.75161529 C458.38339359 167.90229191 457.43236979 169.05713383 456.4868654 170.21645904 C455.37089783 171.55780253 454.19499767 172.8488765 453.00883806 174.12856841 C452.34883806 174.12856841 451.68883806 174.12856841 451.00883806 174.12856841 C450.88508806 174.99481841 450.88508806 174.99481841 450.75883806 175.87856841 C449.77327176 178.83526731 448.28426376 179.97290196 446.00883806 182.12856841 C444.93553812 183.32731899 443.87430322 184.53691725 442.82133806 185.75356841 C440.13270459 188.85495585 437.39796184 191.90680338 434.63383806 194.94106841 C429.32873804 200.81651194 424.36918128 206.95879945 419.40336931 213.12075591 C416.21994917 217.02301286 416.21994917 217.02301286 414.00883806 218.12856841 C413.35915056 219.24231841 413.35915056 219.24231841 412.69633806 220.37856841 C410.80073994 223.46769127 408.57576471 225.56898632 406.00883806 228.12856841 C404.17302789 230.19618134 402.40311034 232.31644017 400.63383806 234.44106841 C399.65779368 235.60426378 398.68123292 236.76702605 397.70415056 237.92934966 C397.2378322 238.4844522 396.77151384 239.03955474 396.29106462 239.61147857 C394.719595 241.47079163 393.11988993 243.30348791 391.50883806 245.12856841 C388.49785451 248.54293731 385.56457062 252.02041502 382.63383806 255.50356841 C378.64456655 260.23968674 374.56376952 264.8729604 370.39946306 269.45669341 C366.495192 273.82029048 362.70363582 278.27990599 358.90336931 282.73403716 C358.4323781 283.28366118 357.96138689 283.83328521 357.47612321 284.3995645 C356.43378887 285.62781939 355.40339593 286.86625232 354.38139665 288.11147857 C353.8498195 288.75262603 353.31824235 289.39377349 352.77055681 290.05434966 C352.28933366 290.64256499 351.80811052 291.23078032 351.31230485 291.83682036 C350.00883806 293.12856841 350.00883806 293.12856841 348.00883806 293.12856841 C347.92633806 293.70606841 347.84383806 294.28356841 347.75883806 294.87856841 C346.77327176 297.83526731 345.28426376 298.97290196 343.00883806 301.12856841 C338.9618732 305.55395076 335.10651308 310.15512753 331.25883806 314.75356841 C330.52149431 315.63270904 329.78415056 316.51184966 329.02446306 317.41763091 C326.95522277 320.2006789 325.46427119 322.98741209 324.00883806 326.12856841 C324.66883806 326.12856841 325.32883806 326.12856841 326.00883806 326.12856841 C327.45415056 328.14809966 327.45415056 328.14809966 329.13383806 330.94106841 C331.54847128 334.84621597 334.03102039 338.62285025 336.75883806 342.31606841 C340.62813577 347.56028162 344.3254451 352.9088448 348.00517595 358.2865274 C350.54635757 362.00028977 353.10261063 365.70116035 355.69633806 369.37856841 C358.17510073 372.90195249 360.57160816 376.47175824 362.94633806 380.06606841 C366.21608491 384.99925929 369.62901339 389.80128467 373.14946306 394.55825591 C375.18166826 397.36748075 377.10061564 400.23370827 379.00883806 403.12856841 C384.29835546 411.14786283 389.62934172 419.0946035 395.32915056 426.83169341 C397.31418239 429.54610904 399.17403203 432.31083058 401.00883806 435.12856841 C403.3454878 438.67383009 405.74048805 442.16548038 408.19633806 445.62856841 C411.59420494 450.45016353 414.77706025 455.39183264 417.90019548 460.39419341 C419.73204932 463.29438997 421.57689184 465.73002805 424.00883806 468.12856841 C425.03534989 469.77903842 426.03096852 471.44882172 427.00883806 473.12856841 C428.54287839 475.52250326 430.11864227 477.88823416 431.69633806 480.25356841 C432.13478044 480.91155425 432.57322282 481.56954009 433.02495134 482.2474649 C436.34614016 487.20276529 439.80229791 492.04446701 443.34086931 496.84731841 C445.3186441 499.5522844 447.16399627 502.33155022 449.00883806 505.12856841 C452.83454696 510.69237716 456.72472307 516.16227316 460.94243181 521.43716216 C462.00883806 523.12856841 462.00883806 523.12856841 462.00883806 526.12856841 C462.66883806 526.12856841 463.32883806 526.12856841 464.00883806 526.12856841 C465.66508806 528.35903716 465.66508806 528.35903716 467.50883806 531.31606841 C468.11727556 532.2789981 468.72571306 533.24192779 469.35258806 534.23403716 C470.83504209 536.82483537 471.98573813 539.3303901 473.00883806 542.12856841 C473.66883806 542.12856841 474.32883806 542.12856841 475.00883806 542.12856841 C476.66508806 544.35903716 476.66508806 544.35903716 478.50883806 547.31606841 C479.11727556 548.2789981 479.72571306 549.24192779 480.35258806 550.23403716 C481.83504209 552.82483537 482.98573813 555.3303901 484.00883806 558.12856841 C484.66883806 558.12856841 485.32883806 558.12856841 486.00883806 558.12856841 C487.31352556 559.93716216 487.31352556 559.93716216 488.88383806 562.56606841 C492.60076455 568.59140189 496.63552855 574.34939377 500.7446779 580.11269927 C509.41774118 592.28643869 509.41774118 592.28643869 510.00883806 596.12856841 C510.66883806 596.12856841 511.32883806 596.12856841 512.00883806 596.12856841 C513.41118181 598.21059966 513.41118181 598.21059966 514.94633806 600.94106841 C516.98789408 604.60920748 516.98789408 604.60920748 519.70024431 607.76528716 C521.00883806 609.12856841 521.00883806 609.12856841 521.00883806 612.12856841 C521.66883806 612.12856841 522.32883806 612.12856841 523.00883806 612.12856841 C524.43927121 613.98900908 525.77987342 615.91910482 527.07133806 617.87856841 C527.78418962 618.94591216 528.49704118 620.01325591 529.23149431 621.11294341 C530.69482763 623.59578589 531.56666039 625.3258423 532.00883806 628.12856841 C532.66883806 628.12856841 533.32883806 628.12856841 534.00883806 628.12856841 C535.52446306 630.25356841 535.52446306 630.25356841 537.25883806 633.12856841 C539.35018953 636.51518077 541.43583467 639.8024272 543.88383806 642.94106841 C546.60396756 646.47144925 549.00147833 650.17873236 551.38383806 653.94106841 C554.7757158 659.29018207 558.34283228 664.45273088 562.10649431 669.55044341 C566.43731214 675.41972425 570.57164078 681.38583858 574.44633806 687.56606841 C578.04410168 693.28206589 581.99050975 698.70340399 586.00883806 704.12856841 C590.86640927 710.70128205 590.86640927 710.70128205 592.00883806 714.12856841 C592.84415056 714.93294341 592.84415056 714.93294341 593.69633806 715.75356841 C597.67374042 719.83846814 601.19879749 724.6984467 603.00883806 730.12856841 C603.60180681 730.71509185 604.19477556 731.30161529 604.80571306 731.90591216 C607.44106603 734.56462819 609.30696481 737.5250514 611.25883806 740.69106841 C615.25168768 747.0451186 619.50834548 753.11973635 624.00883806 759.12856841 C623.34883806 760.44856841 622.68883806 761.76856841 622.00883806 763.12856841 C593.11546287 763.19857341 564.22210035 763.25151481 535.32865751 763.28400493 C532.66077167 763.28708449 529.99288589 763.29018853 527.32500017 763.29336333 C526.33030584 763.29454373 526.33030584 763.29454373 525.31551669 763.29574797 C514.5701509 763.30881134 503.82483314 763.33247028 493.07949587 763.3600268 C482.05847286 763.38805515 471.03747641 763.40451457 460.01641959 763.4108339 C453.82407281 763.41475323 447.63183503 763.42399815 441.4395231 763.44575858 C435.61606847 763.46605782 429.7927682 763.47241553 423.96928155 763.46789145 C421.8274445 763.4687196 419.6856025 763.47472412 417.54379594 763.48618484 C414.62819846 763.50102621 411.71319014 763.49755263 408.79758012 763.48933196 C407.94252813 763.49807048 407.08747613 763.50680901 406.20651346 763.51581234 C400.45585794 763.47173422 400.45585794 763.47173422 398.26907557 761.79299694 C397.00883806 760.12856841 397.00883806 760.12856841 397.00883806 757.12856841 C396.34883806 757.12856841 395.68883806 757.12856841 395.00883806 757.12856841 C393.35258806 754.89809966 393.35258806 754.89809966 391.50883806 751.94106841 C390.90040056 750.97813872 390.29196306 750.01520904 389.66508806 749.02309966 C388.00883806 746.12856841 388.00883806 746.12856841 386.97758806 743.32778716 C386.65790056 742.60204497 386.33821306 741.87630279 386.00883806 741.12856841 C385.01883806 740.79856841 384.02883806 740.46856841 383.00883806 740.12856841 C381.50924087 738.02854079 380.15352118 735.9555549 378.82133806 733.75356841 C375.98467387 729.19435355 373.08753376 724.75637783 369.88383806 720.44106841 C366.61914464 716.03211612 363.65300247 711.50118001 360.75102556 706.84731841 C358.39830004 703.17580056 355.85998471 699.64937425 353.29399431 696.12466216 C352.00883806 694.12856841 352.00883806 694.12856841 352.00883806 692.12856841 C351.34883806 692.12856841 350.68883806 692.12856841 350.00883806 692.12856841 C348.37216256 689.86558388 346.86318295 687.61589729 345.38383806 685.25356841 C344.96360368 684.60259185 344.54336931 683.95161529 344.11040056 683.28091216 C341.00883806 678.39695822 341.00883806 678.39695822 341.00883806 676.12856841 C340.34883806 676.12856841 339.68883806 676.12856841 339.00883806 676.12856841 C338.67883806 674.47856841 338.34883806 672.82856841 338.00883806 671.12856841 C337.34883806 671.12856841 336.68883806 671.12856841 336.00883806 671.12856841 C334.77220943 669.3844554 333.61781671 667.58150356 332.50883806 665.75356841 C330.06667299 661.69913694 330.06667299 661.69913694 327.00883806 658.12856841 C327.00883806 657.13856841 327.00883806 656.14856841 327.00883806 655.12856841 C326.34883806 655.12856841 325.68883806 655.12856841 325.00883806 655.12856841 C323.52836931 653.07388091 323.52836931 653.07388091 321.82133806 650.25356841 C317.58244727 643.39731679 312.97282472 636.85072657 308.25883806 630.31606841 C306.00883806 627.12856841 306.00883806 627.12856841 304.44633806 624.50356841 C303.04154238 622.06076761 303.04154238 622.06076761 301.12211931 619.80044341 C299.12889409 617.2803583 297.44037423 614.73810539 295.75883806 612.00356841 C291.6272111 605.42488343 287.07279925 599.18424651 282.39165056 592.98794341 C279.00883806 588.43930287 279.00883806 588.43930287 279.00883806 585.12856841 C278.01883806 584.79856841 277.02883806 584.46856841 276.00883806 584.12856841 C274.25493181 581.76528716 274.25493181 581.76528716 272.44633806 578.81606841 C271.846924 577.8505606 271.24750993 576.88505279 270.62993181 575.89028716 C269.00883806 573.12856841 269.00883806 573.12856841 267.98149431 570.96059966 C266.90031354 568.92415878 265.64096384 567.75290361 264.00883806 566.12856841 C262.57715542 564.13297254 261.18427515 562.10923276 259.82133806 560.06606841 C259.10590837 559.00259185 258.39047868 557.93911529 257.65336931 556.84341216 C256.00883806 554.12856841 256.00883806 554.12856841 256.00883806 552.12856841 C255.34883806 552.12856841 254.68883806 552.12856841 254.00883806 552.12856841 C252.91142595 550.70742583 252.91142595 550.70742583 251.73149431 548.73403716 C251.0847072 547.6715274 251.0847072 547.6715274 250.42485368 546.58755279 C249.97819353 545.83796294 249.53153337 545.0883731 249.07133806 544.31606841 C248.19105013 542.84892187 247.30705507 541.38399191 246.41899431 539.92153716 C246.02848894 539.26693511 245.63798357 538.61233306 245.2356447 537.93789458 C243.98554483 536.09421495 242.58180132 534.69679304 241.00883806 533.12856841 C240.07364637 531.49198295 239.14160825 529.85345008 238.23149431 528.20278716 C236.83526432 525.83410306 235.28906436 523.6197873 233.69633806 521.37856841 C223.00883806 506.2957762 223.00883806 506.2957762 223.00883806 503.12856841 C222.01883806 502.79856841 221.02883806 502.46856841 220.00883806 502.12856841 C218.49674643 500.00354481 217.14410423 497.9275718 215.82133806 495.69106841 C215.26929704 494.79291411 215.26929704 494.79291411 214.70610368 493.87661529 C212.00883806 489.40786166 212.00883806 489.40786166 212.00883806 487.12856841 C211.34883806 487.12856841 210.68883806 487.12856841 210.00883806 487.12856841 C208.53574695 485.02837827 207.1957417 482.95089112 205.88383806 480.75356841 C205.511299 480.15028716 205.13875993 479.54700591 204.75493181 478.92544341 C202.00883806 474.39891525 202.00883806 474.39891525 202.00883806 472.12856841 C200.02883806 471.79856841 198.04883806 471.46856841 196.00883806 471.12856841 C194.59182217 472.85744891 193.17524119 474.58668587 191.75883806 476.31606841 C190.96993181 477.2789981 190.18102556 478.24192779 189.36821306 479.23403716 C187.82512025 481.12713611 186.31295601 483.04598126 184.83696306 484.99184966 C184.23368181 485.69696685 183.63040056 486.40208404 183.00883806 487.12856841 C182.34883806 487.12856841 181.68883806 487.12856841 181.00883806 487.12856841 C180.74071306 487.93294341 180.47258806 488.73731841 180.19633806 489.56606841 C179.80446306 490.41169341 179.41258806 491.25731841 179.00883806 492.12856841 C178.01883806 492.45856841 177.02883806 492.78856841 176.00883806 493.12856841 C175.72008806 493.87106841 175.43133806 494.61356841 175.13383806 495.37856841 C173.72196244 498.82981992 171.66554231 500.51747281 169.00883806 503.12856841 C167.38194526 505.00493579 165.77839894 506.90174919 164.19633806 508.81606841 C163.76836931 509.33137115 163.34040056 509.84667388 162.89946306 510.37759185 C159.37613148 514.63538646 155.96689405 518.97831511 152.60258806 523.36294341 C152.07665056 523.94559966 151.55071306 524.52825591 151.00883806 525.12856841 C150.34883806 525.12856841 149.68883806 525.12856841 149.00883806 525.12856841 C148.78196306 525.85044341 148.55508806 526.57231841 148.32133806 527.31606841 C146.73339864 530.71879574 144.68833138 532.48613586 142.00883806 535.12856841 C139.80019164 537.55071848 137.65387629 540.02507876 135.50883806 542.50356841 C134.95325212 543.13778716 134.39766618 543.77200591 133.82524431 544.42544341 C131.11226021 547.55335449 128.57201333 550.68990142 126.22758806 554.10513091 C125.49540056 555.10286529 124.76321306 556.10059966 124.00883806 557.12856841 C123.34883806 557.12856841 122.68883806 557.12856841 122.00883806 557.12856841 C121.74071306 557.71122466 121.47258806 558.29388091 121.19633806 558.89419341 C119.99402815 561.15643442 118.67057893 562.93433159 117.00883806 564.87856841 C116.49321306 565.49216216 115.97758806 566.10575591 115.44633806 566.73794341 C114.00883806 568.12856841 114.00883806 568.12856841 112.00883806 568.12856841 C111.74071306 568.93294341 111.47258806 569.73731841 111.19633806 570.56606841 C110.80446306 571.41169341 110.41258806 572.25731841 110.00883806 573.12856841 C109.01883806 573.45856841 108.02883806 573.78856841 107.00883806 574.12856841 C106.29242672 575.43584689 105.630189 576.77352405 105.00883806 578.12856841 C104.13021516 579.27464862 103.21132523 580.39075415 102.25883806 581.47622466 C101.46993181 582.38404693 101.46993181 582.38404693 100.66508806 583.31020904 C100.11852556 583.93089263 99.57196306 584.55157622 99.00883806 585.19106841 C97.92403074 586.43066545 96.84064223 587.6715059 95.75883806 588.91372466 C95.27930681 589.45907866 94.79977556 590.00443267 94.30571306 590.56631255 C92.81272063 592.30937365 92.81272063 592.30937365 91.00883806 595.12856841 C90.34883806 595.12856841 89.68883806 595.12856841 89.00883806 595.12856841 C88.69946306 595.74731841 88.39008806 596.36606841 88.07133806 597.00356841 C87.38383806 598.37856841 86.69633806 599.75356841 86.00883806 601.12856841 C85.34883806 601.12856841 84.68883806 601.12856841 84.00883806 601.12856841 C83.78196306 601.85044341 83.55508806 602.57231841 83.32133806 603.31606841 C82.06027365 606.01834928 80.76035459 607.54979478 78.61430681 609.56997466 C71.4663609 616.50922142 65.27264521 624.40477613 59.00883806 632.12856841 C57.0586976 634.52874129 55.09334488 636.84069507 53.00883806 639.12856841 C52.34883806 639.12856841 51.68883806 639.12856841 51.00883806 639.12856841 C50.94696306 639.68544341 50.88508806 640.24231841 50.82133806 640.81606841 C49.91177263 643.40483156 48.62423561 644.67364046 46.65336931 646.53091216 C40.55908357 652.45148904 35.19415005 659.06933406 29.93071306 665.72231841 C28.0331447 668.0981357 26.10590551 670.43924132 24.13383806 672.75356841 C23.57954118 673.40583404 23.02524431 674.05809966 22.45415056 674.73013091 C21.00883806 676.12856841 21.00883806 676.12856841 19.00883806 676.12856841 C18.9017653 676.72226226 18.79469255 677.31595611 18.68437517 677.92764068 C17.9178689 680.42494967 17.02238627 681.49631323 15.20024431 683.34341216 C14.62282487 683.94089263 14.04540544 684.5383731 13.45048845 685.15395904 C12.83036882 685.78495513 12.21024919 686.41595122 11.57133806 687.06606841 C6.93441889 691.89144181 2.56559072 696.75679648 -1.42866194 702.12856841 C-4.44684091 706.18315362 -7.55222487 709.85524988 -11.22163069 713.33559966 C-14.29527287 716.44995233 -16.94525505 719.91812349 -19.68647444 723.32388091 C-21.80195293 725.89831066 -23.9867421 728.36345782 -26.24116194 730.81606841 C-33.27271039 738.52968946 -39.74177495 746.74950283 -46.20991194 754.93716216 C-48.30715358 757.51732128 -50.60948381 759.81125995 -52.99116194 762.12856841 C-53.32116194 762.45856841 -53.65116194 762.78856841 -53.99116194 763.12856841 C-56.07735217 763.22274614 -58.16676671 763.24599719 -60.25507796 763.2420938 C-61.23553084 763.24231284 -61.23553084 763.24231284 -62.23579085 763.24253631 C-64.40558323 763.24183724 -66.57529073 763.23404519 -68.74506819 763.22622466 C-70.24579505 763.22436046 -71.74652252 763.22293657 -73.2472502 763.22193694 C-77.20434421 763.21811194 -81.16140173 763.20828181 -85.11848128 763.19723296 C-89.15351044 763.18701847 -93.18854547 763.18243924 -97.22358382 763.17739654 C-105.14612664 763.16665952 -113.06863976 763.14958331 -120.99116194 763.12856841 C-120.99116194 761.14856841 -120.99116194 759.16856841 -120.99116194 757.12856841 C-120.33116194 757.12856841 -119.67116194 757.12856841 -118.99116194 757.12856841 C-118.66116194 756.13856841 -118.33116194 755.14856841 -117.99116194 754.12856841 C-117.33116194 754.12856841 -116.67116194 754.12856841 -115.99116194 754.12856841 C-115.71731673 753.53704986 -115.44347151 752.9455313 -115.16132796 752.33608794 C-114.03241749 750.20639706 -112.85231867 748.61442884 -111.26850569 746.80825591 C-110.73451155 746.19562896 -110.20051741 745.583002 -109.65034163 744.9518106 C-109.08218733 744.30889068 -108.51403304 743.66597075 -107.92866194 743.00356841 C-107.34374983 742.33486724 -106.75883772 741.66616607 -106.156201 740.97720122 C-102.88521686 737.24637526 -99.57732115 733.55129589 -96.24116194 729.87856841 C-93.23355586 726.56417555 -90.36686498 723.17197758 -87.55366194 719.69106841 C-84.47779606 715.88769338 -81.30363028 712.22774189 -77.99116194 708.62856841 C-72.48074857 702.63674607 -67.05009611 696.47856352 -62.36225569 689.81216216 C-61.90979475 689.25657622 -61.45733382 688.70099029 -60.99116194 688.12856841 C-60.33116194 688.12856841 -59.67116194 688.12856841 -58.99116194 688.12856841 C-58.62764632 687.30292388 -58.62764632 687.30292388 -58.25678694 686.46059966 C-55.58291837 681.53374924 -51.57896932 677.40981755 -47.99116194 673.12856841 C-47.07270491 672.00321685 -47.07270491 672.00321685 -46.13569319 670.85513091 C-44.80072531 669.23998458 -43.4024147 667.67750436 -41.99116194 666.12856841 C-41.33116194 666.12856841 -40.67116194 666.12856841 -39.99116194 666.12856841 C-39.76428694 665.40669341 -39.53741194 664.68481841 -39.30366194 663.94106841 C-37.7227121 660.55331876 -35.66610546 658.73433235 -32.99116194 656.12856841 C-27.41684636 650.20869982 -22.10095668 644.14323117 -17.07319319 637.75356841 C-14.64935244 634.69761909 -12.17295859 631.68957968 -9.67866194 628.69106841 C-8.85752913 627.70235747 -8.03639632 626.71364654 -7.19038069 625.69497466 C-5.51413867 623.73886274 -3.82892285 621.92491499 -1.99116194 620.12856841 C-0.40048626 618.3651908 1.15130738 616.57043459 2.70805681 614.77700591 C4.53703884 612.67165817 6.3741911 610.57433617 8.21586931 608.48013091 C9.37616521 607.15473232 10.53632027 605.82921042 11.69633806 604.50356841 C12.25498552 603.87031646 12.81363298 603.2370645 13.38920915 602.5846231 C16.58076278 598.92594295 19.35121567 595.2035894 22.00883806 591.12856841 C23.65427586 589.4409399 25.32172383 587.77453352 27.00883806 586.12856841 C27.89611449 585.09733857 28.7711108 584.05542207 29.63383806 583.00356841 C31.37381342 580.89728244 33.08456967 579.0430191 35.00883806 577.12856841 C35.97763778 576.05458471 36.9348763 574.97012028 37.88383806 573.87856841 C38.80229509 572.82282622 38.80229509 572.82282622 39.73930681 571.74575591 C40.86272478 570.4502481 40.86272478 570.4502481 42.00883806 569.12856841 C42.98407151 568.00614915 43.95933412 566.88375522 44.93461931 565.76138091 C50.95106646 558.83237813 56.94268865 551.88284464 62.90776384 544.90957427 C65.44471113 541.94585475 67.99276444 538.99376007 70.57133806 536.06606841 C73.6724442 532.53616735 76.71939 528.96153663 79.75883806 525.37856841 C80.23136003 524.82290191 80.703882 524.2672354 81.19072282 523.69473052 C83.11279081 521.42338314 84.98478798 519.16232678 86.71196306 516.73794341 C87.13993181 516.20684966 87.56790056 515.67575591 88.00883806 515.12856841 C88.66883806 515.12856841 89.32883806 515.12856841 90.00883806 515.12856841 C90.27696306 514.36544341 90.54508806 513.60231841 90.82133806 512.81606841 C92.00812287 510.13018699 92.93931286 509.11432712 95.00883806 507.12856841 C96.16509447 505.84622371 97.31040296 504.55394846 98.44633806 503.25356841 C99.05735368 502.55489654 99.66836931 501.85622466 100.29790056 501.13638091 C101.68672967 499.50656775 103.01406163 497.82449459 104.32133806 496.12856841 C104.87821306 495.46856841 105.43508806 494.80856841 106.00883806 494.12856841 C106.66883806 494.12856841 107.32883806 494.12856841 108.00883806 494.12856841 C108.27760759 493.54212554 108.54637712 492.95568267 108.82329118 492.3514688 C110.01493097 490.11714419 111.30190454 488.45300219 112.97758806 486.56216216 C113.54864275 485.91183013 114.11969743 485.2614981 114.70805681 484.59145904 C115.30231462 483.92308013 115.89657243 483.25470122 116.50883806 482.56606841 C117.68744847 481.23278136 118.86459129 479.89819517 120.04008806 478.56216216 C120.56151384 477.97491363 121.08293962 477.38766509 121.62016618 476.78262115 C123.19556465 474.96783307 123.19556465 474.96783307 125.00883806 472.12856841 C125.66883806 472.12856841 126.32883806 472.12856841 127.00883806 472.12856841 C127.34915056 471.04575591 127.34915056 471.04575591 127.69633806 469.94106841 C129.27803523 466.55171732 131.20998307 464.58609962 134.00883806 462.12856841 C134.99883806 461.79856841 135.98883806 461.46856841 137.00883806 461.12856841 C137.29758806 460.38606841 137.58633806 459.64356841 137.88383806 458.87856841 C139.29983188 455.41725017 141.34142382 453.75488804 144.00883806 451.12856841 C145.96858836 448.93582633 147.86288396 446.68904004 149.75883806 444.44106841 C155.68985011 437.4139079 155.68985011 437.4139079 158.79008806 434.20278716 C159.60477556 433.35329497 160.41946306 432.50380279 161.25883806 431.62856841 C161.98586931 430.89638091 162.71290056 430.16419341 163.46196306 429.40981841 C165.83545277 425.90952045 165.24189579 422.85319566 164.69633806 418.81606841 C164.46946306 418.25919341 164.24258806 417.70231841 164.00883806 417.12856841 C163.01883806 416.79856841 162.02883806 416.46856841 161.00883806 416.12856841 C159.50926821 414.02857908 158.15350531 411.95551679 156.82133806 409.75356841 C153.32992449 404.14316357 149.64299741 398.76115694 145.71196306 393.44497466 C143.71685097 390.73143918 141.86311225 387.93988735 140.00883806 385.12856841 C138.92848674 383.58481058 137.84477483 382.04340235 136.75883806 380.50356841 C134.16294178 376.8085586 131.62951594 373.07947111 129.13383806 369.31606841 C122.08526861 358.69549665 114.73942722 348.27718666 107.40727556 337.85122466 C103.68281042 332.54695085 99.99484904 327.21820066 96.32133806 321.87856841 C95.85759782 321.20487212 95.39385759 320.53117583 94.91606462 319.8370645 C92.89028541 316.88881924 90.87901349 313.93371157 88.89555681 310.95669341 C87.13625528 308.31956234 85.33560521 305.71925637 83.50883806 303.12856841 C81.66221376 300.50113046 79.83968454 297.87210985 78.07133806 295.19106841 C75.46126136 291.31549999 72.68794204 287.56958243 69.91118181 283.81216216 C68.13657379 281.30876236 66.57455146 278.7657675 65.00883806 276.12856841 C63.47224121 273.7362641 61.8991811 271.36882164 60.32133806 269.00356841 C59.88144548 268.34413238 59.4415529 267.68469634 58.98833025 267.0052774 C54.14616097 259.78666388 49.03893975 252.78230138 43.75883806 245.87856841 C41.61021642 243.0387012 39.84887587 240.13034053 38.15336931 236.99184966 C36.20274124 233.8162538 33.77993381 231.0047591 31.39946306 228.14419341 C30.00883806 226.12856841 30.00883806 226.12856841 30.00883806 223.12856841 C29.34883806 223.12856841 28.68883806 223.12856841 28.00883806 223.12856841 C26.52836931 221.07388091 26.52836931 221.07388091 24.82133806 218.25356841 C21.96657762 213.63522663 18.9771249 209.17310122 15.83696306 204.74575591 C13.11317923 200.84632179 10.51095873 196.86805595 7.90336931 192.89028716 C6.05228625 190.11504852 6.05228625 190.11504852 3.96196306 187.59341216 C1.42872452 184.39646512 -0.50251889 180.9655104 -2.52631819 177.43325591 C-3.84496639 175.16719135 -3.84496639 175.16719135 -5.41303694 173.73013091 C-7.77634444 171.33172478 -9.40938816 168.47324563 -11.17866194 165.62856841 C-15.19861168 159.2658501 -19.49816611 153.16817283 -23.99116194 147.12856841 C-28.84658363 140.56230335 -28.84658363 140.56230335 -29.99116194 137.12856841 C-30.97673415 136.11434584 -31.97930081 135.11656489 -32.99116194 134.12856841 C-34.18706915 132.52496557 -35.35171547 130.89776969 -36.49116194 129.25356841 C-37.37288069 127.9889981 -37.37288069 127.9889981 -38.27241194 126.69888091 C-39.38742072 125.03143597 -40.46461825 123.33783488 -41.49506819 121.61684966 C-43.0358153 119.0543016 -44.69899861 116.629547 -46.42866194 114.19106841 C-49.00573284 110.53797626 -51.51126852 106.84840854 -53.99116194 103.12856841 C-55.15487955 101.45984128 -56.32183648 99.79337076 -57.49116194 98.12856841 C-60.04367322 94.49448456 -62.52775178 90.82368365 -64.99116194 87.12856841 C-66.75700889 84.61233846 -68.52908022 82.10072371 -70.30756819 79.59341216 C-71.46029378 77.90577911 -72.55613191 76.17826699 -73.60053694 74.42153716 C-74.87168661 72.10474016 -74.87168661 72.10474016 -76.67866194 70.50356841 C-77.99116194 69.12856841 -77.99116194 69.12856841 -77.99116194 66.12856841 C-78.65116194 66.12856841 -79.31116194 66.12856841 -79.99116194 66.12856841 C-81.64741194 63.89809966 -81.64741194 63.89809966 -83.49116194 60.94106841 C-84.09959944 59.97813872 -84.70803694 59.01520904 -85.33491194 58.02309966 C-86.99116194 55.12856841 -86.99116194 55.12856841 -88.02241194 52.32778716 C-88.34209944 51.60204497 -88.66178694 50.87630279 -88.99116194 50.12856841 C-90.47616194 49.63356841 -90.47616194 49.63356841 -91.99116194 49.12856841 C-93.35053694 47.19497466 -93.35053694 47.19497466 -94.74116194 44.69106841 C-97.40015628 40.06759319 -100.3044846 35.72356511 -103.39350569 31.37856841 C-105.93789171 27.79527661 -108.34336622 24.12339755 -110.74116194 20.44106841 C-112.09278355 18.38093548 -113.52085162 16.43793456 -115.02241194 14.48013091 C-115.75459944 13.51849029 -116.48678694 12.55684966 -117.24116194 11.56606841 C-117.94756819 10.65727935 -118.65397444 9.74849029 -119.38178694 8.81216216 C-121.15870516 5.84919416 -121.13611101 4.48948689 -120.99116194 1.12856841 C-80.66112558 0.00698223 -40.34194169 -0.02762002 0 0 Z M47.89158952 52.15682769 C38.92015085 52.21961672 29.9489963 52.31602124 20.97790658 52.4160955 C16.45830091 52.4663897 11.93872442 52.51278488 7.41899431 52.55044341 C3.01430299 52.58723876 -1.39019246 52.63353812 -5.79471648 52.68663192 C-7.46685459 52.70515144 -9.13903399 52.72026842 -10.81123412 52.73191237 C-13.1372048 52.74873117 -15.46272059 52.77774052 -17.78852522 52.80972075 C-18.82172141 52.81296103 -18.82172141 52.81296103 -19.87579024 52.81626678 C-23.47012261 52.87963312 -24.9079658 53.07310432 -27.99116194 55.12856841 C-27.51678694 55.56169341 -27.04241194 55.99481841 -26.55366194 56.44106841 C-24.99116194 58.12856841 -24.99116194 58.12856841 -23.99116194 61.12856841 C-23.33116194 61.12856841 -22.67116194 61.12856841 -21.99116194 61.12856841 C-21.73077132 61.67641997 -21.47038069 62.22427154 -21.20209944 62.78872466 C-19.80895472 65.48063978 -18.24139918 68.00756176 -16.61616194 70.56606841 C-16.03092757 71.49290435 -15.44569319 72.41974029 -14.84272444 73.37466216 C-13.01927637 76.08675265 -11.03460462 78.58022841 -8.99116194 81.12856841 C-7.72153404 82.9903337 -6.47231493 84.86613965 -5.24116194 86.75356841 C-2.57983473 90.7849863 0.14490077 94.73857485 3.00883806 98.62856841 C6.49361857 103.36569192 9.75283418 108.22350532 12.98930681 113.13247466 C15.63364904 117.05551237 18.42443937 120.85989432 21.24711931 124.65591216 C23.00883806 127.12856841 23.00883806 127.12856841 24.61430681 129.94497466 C25.07450212 130.6655606 25.53469743 131.38614654 26.00883806 132.12856841 C26.66883806 132.12856841 27.32883806 132.12856841 28.00883806 132.12856841 C28.27438493 132.85817779 28.53993181 133.58778716 28.81352556 134.33950591 C30.00600506 137.12195807 31.36994344 139.30052427 33.13383806 141.75356841 C33.751299 142.61724029 34.36875993 143.48091216 35.00493181 144.37075591 C37.74046062 148.13544079 40.4799706 151.89718641 43.22368181 155.65591216 C45.85623378 159.30231348 48.30487429 163.0474812 50.75883806 166.81606841 C53.37686078 170.75349147 56.20758469 174.53936462 59.00883806 178.34731841 C61.97846714 182.47695886 64.75072995 186.72839547 67.51665056 190.99575591 C68.38897121 192.3317425 69.26136793 193.66767943 70.13383806 195.00356841 C70.5759865 195.69192779 71.01813493 196.38028716 71.47368181 197.08950591 C72.60001754 198.80453072 73.79876215 200.47156552 75.00883806 202.12856841 C75.66883806 202.12856841 76.32883806 202.12856841 77.00883806 202.12856841 C77.25891618 202.84141997 77.50899431 203.55427154 77.76665056 204.28872466 C79.13589594 207.41904351 80.8323847 209.83724838 82.88383806 212.56606841 C85.71568232 216.35083365 88.41203199 220.17842687 91.00883806 224.12856841 C96.02959224 231.74514019 101.08335194 239.32770886 106.38383806 246.75356841 C106.78812028 247.32075591 107.19240251 247.88794341 107.60893571 248.47231841 C109.41911213 250.99134876 111.26611961 253.44181998 113.23540056 255.83950591 C115.00883806 258.12856841 115.00883806 258.12856841 116.00883806 261.12856841 C116.66883806 261.12856841 117.32883806 261.12856841 118.00883806 261.12856841 C118.21508806 261.78856841 118.42133806 262.44856841 118.63383806 263.12856841 C120.22449144 266.59908487 122.30116576 269.28567462 124.66899431 272.26138091 C126.00883806 274.12856841 126.00883806 274.12856841 127.00883806 277.12856841 C127.90409196 278.00835357 127.90409196 278.00835357 128.81743181 278.90591216 C131.46275917 281.58896255 133.15732747 284.44942041 135.07133806 287.69106841 C137.17343239 291.24566554 139.05907087 294.26418922 142.00883806 297.12856841 C143.26973088 298.94022817 144.49512475 300.77679942 145.69633806 302.62856841 C149.08163698 307.77821282 152.62245651 312.77618304 156.27055681 317.74184966 C158.26817455 320.48464616 160.14071199 323.29624825 162.00883806 326.12856841 C163.68865862 328.52893216 165.37802741 330.92244145 167.06743181 333.31606841 C169.90974014 337.43369819 172.60951612 341.64318212 175.30961931 345.85513091 C175.8703615 346.60536529 176.43110368 347.35559966 177.00883806 348.12856841 C177.66883806 348.12856841 178.32883806 348.12856841 179.00883806 348.12856841 C179.26665056 348.8336856 179.52446306 349.53880279 179.79008806 350.26528716 C181.11213992 353.37126157 182.70631659 356.08834906 184.50883806 358.94106841 C185.11727556 359.91688872 185.72571306 360.89270904 186.35258806 361.89809966 C186.89915056 362.63415435 187.44571306 363.37020904 188.00883806 364.12856841 C188.66883806 364.12856841 189.32883806 364.12856841 190.00883806 364.12856841 C190.26665056 364.83497466 190.52446306 365.54138091 190.79008806 366.26919341 C192.10781676 369.36078767 193.70230641 372.04629422 195.50883806 374.87856841 C196.11727556 375.84278716 196.72571306 376.80700591 197.35258806 377.80044341 C198.79895458 380.21928184 198.79895458 380.21928184 201.00883806 381.12856841 C202.03268849 382.7806907 203.02831665 384.45036832 204.00883806 386.12856841 C205.32444572 387.97466304 206.65853136 389.80770029 208.00883806 391.62856841 C210.54108354 395.04326307 212.84425796 398.4717846 215.00883806 402.12856841 C215.97213546 403.5560732 216.95232444 404.97227942 217.94633806 406.37856841 C218.55090837 407.23579497 219.15547868 408.09302154 219.77836931 408.97622466 C220.514424 410.0164981 221.25047868 411.05677154 222.00883806 412.12856841 C222.9921276 413.52294693 223.97518376 414.91749003 224.95805681 416.31216216 C227.0184411 419.23461201 229.07914353 422.15683493 231.14165056 425.07778716 C231.61892595 425.75502837 232.09620134 426.43226958 232.58793962 427.13003325 C233.53354805 428.46005913 234.48864232 429.78339256 235.453174 431.09975982 C237.40009842 433.76297912 238.95836555 435.97715087 240.00883806 439.12856841 C240.66883806 439.12856841 241.32883806 439.12856841 242.00883806 439.12856841 C242.26922868 439.67641997 242.52961931 440.22427154 242.79790056 440.78872466 C244.19104528 443.48063978 245.75860082 446.00756176 247.38383806 448.56606841 C247.96907243 449.49290435 248.55430681 450.41974029 249.15727556 451.37466216 C250.95682898 454.13340702 250.95682898 454.13340702 252.98149431 456.59341216 C255.97561056 460.33749973 258.49682361 464.36919109 261.10649431 468.38638091 C262.82415944 471.03720567 262.82415944 471.03720567 264.56743181 472.68325591 C266.48352601 474.60454278 267.63228599 476.79322385 269.00883806 479.12856841 C271.06155145 481.98000297 273.16231846 484.79164661 275.26665056 487.60513091 C277.00883806 490.12856841 277.00883806 490.12856841 278.00883806 493.12856841 C278.60438493 493.71122466 279.19993181 494.29388091 279.81352556 494.89419341 C282.94717874 498.08360555 284.96961853 501.85741407 287.18461931 505.70278716 C288.0759511 507.20883054 289.03712015 508.67309483 290.00883806 510.12856841 C290.66883806 510.12856841 291.32883806 510.12856841 292.00883806 510.12856841 C292.26665056 510.85302154 292.52446306 511.57747466 292.79008806 512.32388091 C294.06720737 515.26289266 295.57209842 517.45564454 297.50883806 520.00356841 C301.41008518 525.23851427 305.03862487 530.61434547 308.59477556 536.08901763 C310.54287833 539.05893476 312.48780489 541.64284383 315.00883806 544.12856841 C316.03113862 545.78165018 317.02948882 547.449684 318.00883806 549.12856841 C319.16139899 550.80502067 320.32831198 552.4716897 321.50883806 554.12856841 C323.33610316 556.69315101 325.04915876 559.19972259 326.60258806 561.94106841 C327.06665056 562.66294341 327.53071306 563.38481841 328.00883806 564.12856841 C328.66883806 564.12856841 329.32883806 564.12856841 330.00883806 564.12856841 C330.26793962 564.83755279 330.52704118 565.54653716 330.79399431 566.27700591 C332.09323513 569.32667086 333.65922955 571.96337319 335.44633806 574.75356841 C336.043174 575.69458404 336.64000993 576.63559966 337.25493181 577.60513091 C338.84126792 580.04985495 338.84126792 580.04985495 340.47172868 581.57998443 C341.99347062 583.11308626 343.15024713 584.64125062 344.35649431 586.42934966 C344.79219743 587.07025542 345.22790056 587.71116118 345.67680681 588.37148833 C346.13700212 589.05444976 346.59719743 589.73741118 347.07133806 590.44106841 C351.21133465 596.53212187 355.42106117 602.56208208 359.74736345 608.52236724 C361.51536883 610.97199544 363.16350008 613.39886218 364.66508806 616.02309966 C365.10852556 616.71790435 365.55196306 617.41270904 366.00883806 618.12856841 C366.66883806 618.12856841 367.32883806 618.12856841 368.00883806 618.12856841 C368.26665056 618.8336856 368.52446306 619.53880279 368.79008806 620.26528716 C370.11213992 623.37126157 371.70631659 626.08834906 373.50883806 628.94106841 C374.11727556 629.91688872 374.72571306 630.89270904 375.35258806 631.89809966 C375.89915056 632.63415435 376.44571306 633.37020904 377.00883806 634.12856841 C377.66883806 634.12856841 378.32883806 634.12856841 379.00883806 634.12856841 C379.27438493 634.85817779 379.53993181 635.58778716 379.81352556 636.33950591 C381.00600506 639.12195807 382.36994344 641.30052427 384.13383806 643.75356841 C384.751299 644.61724029 385.36875993 645.48091216 386.00493181 646.37075591 C388.74046062 650.13544079 391.4799706 653.89718641 394.22368181 657.65591216 C396.85623378 661.30231348 399.30487429 665.0474812 401.75883806 668.81606841 C404.39957827 672.79296004 407.26999521 676.60671773 410.10649431 680.44497466 C411.87927369 682.94579486 413.4339446 685.50100466 415.00883806 688.12856841 C416.2815279 689.93376446 417.57414525 691.72503616 418.88383806 693.50356841 C419.583799 694.46005279 420.28375993 695.41653716 421.00493181 696.40200591 C422.20390284 698.03335441 423.40402546 699.66385893 424.60649431 701.29263091 C426.5081187 703.89835529 427.98136184 706.04613977 429.00883806 709.12856841 C431.87013528 712.24559389 434.08056371 713.38031015 438.21667802 713.60958648 C439.91015911 713.62113655 441.6038788 713.610649 443.29716814 713.58266997 C444.22448747 713.58325408 445.15180681 713.58383819 446.10722673 713.58443999 C449.16465835 713.58165886 452.22110852 713.55056504 455.27836931 713.51919341 C457.40114119 713.51173114 459.52391998 713.50603814 461.64670122 713.50204253 C467.22817896 713.48678522 472.80923898 713.44750217 478.39055192 713.40322661 C484.08812628 713.36227625 489.78576827 713.34403199 495.48344743 713.32388091 C506.65876096 713.28100834 517.83376475 713.21275551 529.00883806 713.12856841 C527.51087245 709.13399345 525.72659662 706.42282121 523.00883806 703.12856841 C522.55250993 702.36415435 522.09618181 701.59974029 521.62602556 700.81216216 C519.91745901 697.97693216 518.0383654 695.35278488 516.07133806 692.69106841 C513.27332186 688.9010773 510.61842613 685.05023987 508.00883806 681.12856841 C506.15011214 678.45036982 504.26758455 675.78920842 502.38383806 673.12856841 C501.86112321 672.38888824 501.33840837 671.64920806 500.79985368 670.88711333 C496.98966235 665.50031101 493.16105261 660.12679526 489.3071779 654.77114654 C486.79686939 651.27238392 484.38840382 647.71718479 482.00883806 644.12856841 C478.25423884 638.65954033 474.42316917 633.26622753 470.36821306 628.01528716 C469.00883806 626.12856841 469.00883806 626.12856841 467.59086931 623.74575591 C465.26221028 619.89340641 462.5355958 616.35723197 459.84868181 612.74966216 C458.32569659 610.57997409 457.1011276 608.53386922 456.00883806 606.12856841 C455.34883806 606.12856841 454.68883806 606.12856841 454.00883806 606.12856841 C453.75102556 605.40411529 453.49321306 604.67966216 453.22758806 603.93325591 C451.95046875 600.99424416 450.4455777 598.80149228 448.50883806 596.25356841 C444.60759094 591.01862255 440.97905124 585.64279135 437.42290056 580.16811919 C435.48003351 577.20618401 433.57218274 574.57021126 431.00883806 572.12856841 C430.07420904 570.49296763 429.14252496 568.85555498 428.23149431 567.20669341 C425.75943837 563.00498811 422.83470046 559.09667415 420.00883806 555.12856841 C418.84060729 553.46299771 417.67392276 551.79634134 416.50883806 550.12856841 C415.64065446 548.88913482 415.64065446 548.88913482 414.75493181 547.62466216 C413.59918351 545.97248507 412.44550531 544.31885779 411.29399431 542.66372466 C406.43995047 535.69635561 401.46778412 528.81736196 396.42680681 521.98403716 C394.51880571 519.37222009 393.03906548 517.21925068 392.00883806 514.12856841 C391.34883806 514.12856841 390.68883806 514.12856841 390.00883806 514.12856841 C389.76133806 513.42731841 389.51383806 512.72606841 389.25883806 512.00356841 C387.83703568 508.73342293 386.13637518 505.98744641 384.00883806 503.12856841 C383.34883806 503.12856841 382.68883806 503.12856841 382.00883806 503.12856841 C381.76133806 502.42602935 381.51383806 501.72349029 381.25883806 500.99966216 C379.83884347 497.73811209 378.06104484 495.0971398 376.00883806 492.19106841 C375.61801042 491.63475738 375.22718278 491.07844634 374.82451189 490.5052774 C373.55904948 488.70838589 372.28532031 486.91764627 371.00883806 485.12856841 C370.56846208 484.51110747 370.1280861 483.89364654 369.6743654 483.25747466 C367.07228586 479.61234167 367.07228586 479.61234167 364.46000993 475.97451568 C361.89663538 472.40883642 359.44451898 468.7820898 357.00883806 465.12856841 C355.78946443 463.43397852 354.56020484 461.74646004 353.32133806 460.06606841 C347.32222222 451.85206565 341.55516279 443.48815065 335.94633806 435.00356841 C330.70809684 427.10975759 325.10600009 419.48991959 319.33305681 411.98013091 C317.75350703 409.77155689 316.40412659 407.45757276 315.00883806 405.12856841 C313.87772827 403.47258169 312.73157964 401.82677647 311.57133806 400.19106841 C308.98707756 396.54304073 306.48542716 392.85050118 304.00883806 389.12856841 C302.51441239 386.93691951 301.01564234 384.74913468 299.50883806 382.56606841 C299.13114275 382.01499419 298.75344743 381.46391997 298.36430681 380.89614654 C296.62562525 378.37774696 294.84989539 375.93108513 292.93071306 373.54653716 C291.00200681 371.11997382 289.38168907 368.64267079 287.75883806 366.00356841 C284.69055267 361.11922523 281.40328587 356.45757373 277.98149431 351.81606841 C274.27484229 346.76621378 270.72506529 341.60514948 267.15727556 336.45669341 C264.76018825 333.00896784 262.38276336 329.59597504 259.75883806 326.31606841 C258.00883806 324.12856841 258.00883806 324.12856841 256.64165056 321.82778716 C254.94030981 319.01528368 253.08262521 316.39997587 251.13383806 313.75356841 C250.43387712 312.79708404 249.73391618 311.84059966 249.01274431 310.85513091 C247.81377327 309.22378241 246.61365065 307.59327789 245.41118181 305.96450591 C243.50955742 303.35878153 242.03631427 301.21099706 241.00883806 298.12856841 C240.0171594 297.12031574 239.01619972 296.12115215 238.00883806 295.12856841 C236.66669232 293.04565381 235.43287969 290.91779927 234.19243181 288.77309966 C233.80184587 288.23040435 233.41125993 287.68770904 233.00883806 287.12856841 C232.34883806 287.12856841 231.68883806 287.12856841 231.00883806 287.12856841 C230.76133806 286.42602935 230.51383806 285.72349029 230.25883806 284.99966216 C228.83884347 281.73811209 227.06104484 279.0971398 225.00883806 276.19106841 C224.61801042 275.63475738 224.22718278 275.07844634 223.82451189 274.5052774 C222.55904948 272.70838589 221.28532031 270.91764627 220.00883806 269.12856841 C219.56846208 268.51110747 219.1280861 267.89364654 218.6743654 267.25747466 C216.07228586 263.61234167 216.07228586 263.61234167 213.46000993 259.97451568 C210.89665522 256.40886402 208.43661426 252.78746844 206.00883806 249.12856841 C204.24544388 246.59175573 202.46552581 244.06717076 200.68461931 241.54263091 C199.30492186 239.55509473 197.98949776 237.5474388 196.69633806 235.50356841 C196.13946306 234.71981841 195.58258806 233.93606841 195.00883806 233.12856841 C194.34883806 233.12856841 193.68883806 233.12856841 193.00883806 233.12856841 C192.67883806 231.47856841 192.34883806 229.82856841 192.00883806 228.12856841 C191.34883806 228.12856841 190.68883806 228.12856841 190.00883806 228.12856841 C189.76133806 227.61294341 189.51383806 227.09731841 189.25883806 226.56606841 C187.6130219 223.3567269 185.81122846 220.25271177 184.00883806 217.12856841 C183.34883806 217.12856841 182.68883806 217.12856841 182.00883806 217.12856841 C181.74458025 216.4002481 181.48032243 215.67192779 181.20805681 214.92153716 C180.00153877 212.11156843 178.6086379 209.91547666 176.82133806 207.44106841 C176.19356462 206.56321685 175.56579118 205.68536529 174.91899431 204.78091216 C174.28864275 203.90563872 173.65829118 203.03036529 173.00883806 202.12856841 C168.67728722 195.98960787 164.39875254 189.81393342 160.13383806 183.62856841 C159.6449611 182.9213565 159.15608415 182.21414458 158.65239275 181.485502 C158.19509782 180.82115142 157.7378029 180.15680083 157.26665056 179.47231841 C156.85560075 178.876127 156.44455095 178.2799356 156.02104509 177.66567779 C155.00883806 176.12856841 155.00883806 176.12856841 154.00883806 174.12856841 C153.34883806 174.12856841 152.68883806 174.12856841 152.00883806 174.12856841 C151.74844743 173.41829497 151.48805681 172.70802154 151.21977556 171.97622466 C149.93478229 168.95441791 148.39728835 166.33445436 146.63383806 163.56606841 C145.7559865 162.17194732 145.7559865 162.17194732 144.86040056 160.74966216 C143.11525438 158.1202486 143.11525438 158.1202486 141.00102556 156.12856841 C138.71931751 153.83791249 137.1914597 151.44827343 135.50883806 148.69106841 C133.2151337 144.94294698 130.76251271 141.54931541 128.00883806 138.12856841 C126.73921015 136.26680312 125.48999105 134.39099717 124.25883806 132.50356841 C120.89475429 127.40723256 117.37613183 122.4563795 113.76274431 117.53481841 C111.09881922 113.88007931 108.61127582 110.19441984 106.38383806 106.25356841 C105.93008806 105.55231841 105.47633806 104.85106841 105.00883806 104.12856841 C104.34883806 104.12856841 103.68883806 104.12856841 103.00883806 104.12856841 C102.780674 103.44794341 102.55250993 102.76731841 102.31743181 102.06606841 C100.67311978 98.37495604 98.46747522 95.36490951 96.07133806 92.12856841 C93.1976886 88.21337788 90.45448076 84.3320168 88.00883806 80.12856841 C87.00131049 78.51601156 85.98082988 76.91146117 84.94633806 75.31606841 C84.4397365 74.5258731 83.93313493 73.73567779 83.41118181 72.92153716 C82.94840837 72.32985747 82.48563493 71.73817779 82.00883806 71.12856841 C81.34883806 71.12856841 80.68883806 71.12856841 80.00883806 71.12856841 C79.61438493 70.06509185 79.61438493 70.06509185 79.21196306 68.98013091 C76.69839305 63.02264356 73.38425451 57.10808212 68.38383806 52.94106841 C65.1709788 52.16760229 62.70762523 52.04208058 59.42338884 52.06850982 C58.26003007 52.07594207 57.09667131 52.08337432 55.89805925 52.09103179 C53.22919171 52.11679023 50.56050372 52.13923589 47.89158952 52.15682769 Z " fill="#000000" transform="translate(293.991161942482,181.8714315891266)"/>
<path d="M0 0 C2.51425046 -0.00072702 5.02849593 -0.00289018 7.54274511 -0.00549722 C16.35492425 -0.01460942 25.16708867 -0.01884717 33.97927237 -0.01804566 C42.14384565 -0.01743709 50.30835456 -0.02817507 58.47291148 -0.04378933 C65.55995572 -0.05685266 72.6469787 -0.06223061 79.7340349 -0.06159025 C83.93556678 -0.06133647 88.13703999 -0.06412668 92.33855963 -0.0747683 C96.25752935 -0.0844377 100.17638365 -0.08453666 104.09535742 -0.07725167 C105.5280488 -0.07620695 106.96074743 -0.07856209 108.39342642 -0.08461213 C110.35099232 -0.09234501 112.30859774 -0.08648203 114.26616812 -0.07998109 C115.35908226 -0.08052586 116.4519964 -0.08107062 117.57802916 -0.0816319 C120.86704568 0.18563425 123.56396817 1.0028186 126.64089346 2.16725707 C126.64089346 2.49725707 126.64089346 2.82725707 126.64089346 3.16725707 C57.67089346 3.16725707 -11.29910654 3.16725707 -82.35910654 3.16725707 C-82.35910654 2.83725707 -82.35910654 2.50725707 -82.35910654 2.16725707 C-77.31422778 1.35732371 -72.36545311 0.9718397 -67.25513315 0.85675597 C-66.09349779 0.82620657 -66.09349779 0.82620657 -64.90839505 0.79504001 C-62.36748247 0.73017732 -59.8264778 0.67219567 -57.28537607 0.61525512 C-55.9613356 0.58388302 -55.9613356 0.58388302 -54.61054683 0.55187714 C-36.40694168 0.12350691 -18.20801126 0.00297982 0 0 Z " fill="#080808" transform="translate(257.35910654067993,181.83274292945862)"/>
<path d="M0 0 C23.76 0 47.52 0 72 0 C72 0.66 72 1.32 72 2 C64.81436207 2.8625323 57.7412815 3.14739011 50.5078125 3.1328125 C48.90702347 3.13424759 48.90702347 3.13424759 47.27389526 3.13571167 C45.03008973 3.13638816 42.78628218 3.13457115 40.54248047 3.13037109 C37.14155597 3.12502602 33.74076415 3.13032881 30.33984375 3.13671875 C28.14583305 3.13605767 25.95182242 3.13477588 23.7578125 3.1328125 C22.25723801 3.13584885 22.25723801 3.13584885 20.72634888 3.13894653 C13.77545617 3.11630849 6.91775981 2.66962075 0 2 C0 1.34 0 0.68 0 0 Z " fill="#111111" transform="translate(264,230)"/>
<path d="M0 0 C17.82 0 35.64 0 54 0 C53.67 2.31 53.34 4.62 53 7 C51.02 7 49.04 7 47 7 C46.67 7.99 46.34 8.98 46 10 C45.34 10 44.68 10 44 10 C43.67 10.99 43.34 11.98 43 13 C42.34 13 41.68 13 41 13 C41 13.66 41 14.32 41 15 C40.34 15 39.68 15 39 15 C39.33 13.68 39.66 12.36 40 11 C40.66 11 41.32 11 42 11 C42.33 10.01 42.66 9.02 43 8 C43.66 8 44.32 8 45 8 C45.33 7.01 45.66 6.02 46 5 C46.66 5 47.32 5 48 5 C48 4.01 48 3.02 48 2 C32.16 1.67 16.32 1.34 0 1 C0 0.67 0 0.34 0 0 Z " fill="#0F0F0F" transform="translate(837,184)"/>
<path d="M0 0 C0.66 0 1.32 0 2 0 C0.82744291 3.33727786 -0.18868404 5.77437487 -3 8 C-3.66 8 -4.32 8 -5 8 C-5 8.99 -5 9.98 -5 11 C-5.66 11 -6.32 11 -7 11 C-7.33 11.99 -7.66 12.98 -8 14 C-8.66 14 -9.32 14 -10 14 C-10.33 14.99 -10.66 15.98 -11 17 C-11.66 17 -12.32 17 -13 17 C-13 17.99 -13 18.98 -13 20 C-13.99 20 -14.98 20 -16 20 C-16.33 21.32 -16.66 22.64 -17 24 C-17.66 23.01 -18.32 22.02 -19 21 C-17.79618552 18.50638429 -16.54571278 16.31856917 -15 14 C-14.01 14 -13.02 14 -12 14 C-11.67 13.34 -11.34 12.68 -11 12 C-10.34 12 -9.68 12 -9 12 C-8.67 11.01 -8.34 10.02 -8 9 C-7.34 9 -6.68 9 -6 9 C-6 8.01 -6 7.02 -6 6 C-5.01 6 -4.02 6 -3 6 C-3 5.01 -3 4.02 -3 3 C-2.34 3 -1.68 3 -1 3 C-0.67 2.01 -0.34 1.02 0 0 Z " fill="#0F0F0F" transform="translate(200,913)"/>
<path d="M0 0 C0.99 0.33 1.98 0.66 3 1 C2.67 2.65 2.34 4.3 2 6 C1.01 6 0.02 6 -1 6 C-1.33 7.32 -1.66 8.64 -2 10 C-2.66 9.01 -3.32 8.02 -4 7 C-2.79618552 4.50638429 -1.54571278 2.31856917 0 0 Z " fill="#090909" transform="translate(185,927)"/>
<path d="M0 0 C0.66 0 1.32 0 2 0 C1.1875 2.4375 1.1875 2.4375 0 5 C-3 6 -3 6 -6 5 C-6 4.01 -6 3.02 -6 2 C-3 1 -3 1 0 2 C0 1.34 0 0.68 0 0 Z " fill="#121212" transform="translate(179,937)"/>
<path d="M0 0 C2.5 2.3125 2.5 2.3125 5 5 C5 5.99 5 6.98 5 8 C4.34 8 3.68 8 3 8 C3 7.01 3 6.02 3 5 C2.01 4.67 1.02 4.34 0 4 C0 2.68 0 1.36 0 0 Z " fill="#111111" transform="translate(894,913)"/>
<path d="M0 0 C1.32 0 2.64 0 4 0 C4 0.66 4 1.32 4 2 C3.34 2 2.68 2 2 2 C1.67 2.99 1.34 3.98 1 5 C0.01 5 -0.98 5 -2 5 C-2 4.34 -2 3.68 -2 3 C-1.34 3 -0.68 3 0 3 C0 2.01 0 1.02 0 0 Z " fill="#171717" transform="translate(885,186)"/>
</svg>
