<?xml version="1.0" encoding="UTF-8"?>
<svg version="1.1" xmlns="http://www.w3.org/2000/svg" width="497" height="367">
<path d="M0 0 C9.55277472 -0.44255005 19.1019702 -0.77890022 28.66279888 -0.98443127 C33.10418554 -1.08315092 37.53851112 -1.21663186 41.97583008 -1.43334961 C70.58712593 -2.7947855 70.58712593 -2.7947855 77.84265137 1.80032349 C82.19205866 6.10206202 84.72631693 10.97027613 86.96559143 16.60852051 C88.59228685 20.36932533 90.94975484 23.5317417 93.375 26.8125 C97.03304442 32.1257278 100.67105361 37.45218863 104.29882812 42.78613281 C112.20334088 54.40584831 120.20542033 65.95495325 128.24511719 77.48144531 C131.84315279 82.64523709 135.42222159 87.82215958 139 93 C142.72169593 89.37269491 146.14551376 85.59179968 149.5 81.625 C150.55560197 80.38508657 151.61160604 79.14551537 152.66796875 77.90625 C153.48467041 76.9471875 153.48467041 76.9471875 154.31787109 75.96875 C157.13332666 72.67356369 159.97233297 69.39888711 162.8125 66.125 C163.64273682 65.1673877 163.64273682 65.1673877 164.48974609 64.19042969 C167.19148796 61.07636396 169.90096632 57.96960629 172.625 54.875 C175.99823989 51.02934077 179.29366995 47.11845515 182.59326172 43.2097168 C189.68238809 34.81596912 196.81631215 26.45937726 204.07421875 18.2109375 C207.38201966 14.41334051 210.6470772 10.57882529 213.9140625 6.74609375 C219.64678498 0.03569767 219.64678498 0.03569767 222.24658203 -0.22705078 C223.15778809 -0.21657715 224.06899414 -0.20610352 225.0078125 -0.1953125 C225.99394531 -0.18886719 226.98007812 -0.18242188 227.99609375 -0.17578125 C229.54490234 -0.15064453 229.54490234 -0.15064453 231.125 -0.125 C232.16527344 -0.11597656 233.20554687 -0.10695312 234.27734375 -0.09765625 C236.85179092 -0.07403747 239.42578212 -0.04110149 242 0 C241.14222951 4.47034997 238.58694074 6.8886098 235.5 10.0625 C230.88634712 14.92799281 226.53678577 19.90527985 222.33203125 25.1328125 C218.17951645 30.23824945 213.857358 35.19924199 209.56152344 40.18408203 C207.9974147 42.00300648 206.43918924 43.82680079 204.8828125 45.65234375 C200.41768077 50.88639972 195.94336671 56.09837044 191.3125 61.1875 C187.55924558 65.32346551 184.0308191 69.60662887 180.515625 73.9453125 C173.88752805 81.99371594 166.98972115 89.8272086 160 97.5625 C158.95199219 98.73039062 158.95199219 98.73039062 157.8828125 99.921875 C156.70750343 101.2191041 155.51706186 102.50296783 154.3046875 103.765625 C152.70517321 105.42566748 152.70517321 105.42566748 151 108 C151.27566959 112.35993215 153.07237019 114.77307655 155.75 118.125 C159.64342548 123.13150749 163.30863418 128.25570568 166.875 133.5 C167.40955811 134.28503906 167.94411621 135.07007813 168.49487305 135.87890625 C170.70010356 139.12401945 172.89918126 142.37327736 175.0980835 145.62268066 C177.9186645 149.79072449 180.73998043 153.95826864 183.5625 158.125 C183.97604736 158.73572357 184.38959473 159.34644714 184.81567383 159.97567749 C189.87436856 167.44318618 194.9856352 174.86570405 200.22729492 182.20629883 C205.39977056 189.49089077 210.37621134 196.90831058 215.375 204.3125 C222.45528258 214.79932186 229.60339995 225.229595 236.890625 235.57421875 C241.6558124 242.33988577 246.32643743 249.17087592 251 256 C250.67 256.66 250.34 257.32 250 258 C240.56843939 258.11591075 231.13712438 258.2047234 221.7050066 258.25906086 C217.32513564 258.28514188 212.94575238 258.3205118 208.56616211 258.37719727 C204.33861698 258.43157163 200.11154057 258.46143179 195.88367271 258.47438622 C194.27169097 258.48361648 192.65973455 258.50164159 191.04795265 258.52865028 C188.78767336 258.56501547 186.52932415 258.56994264 184.26879883 258.56762695 C182.98306473 258.57873001 181.69733063 258.58983307 180.37263489 258.60127258 C174.77235142 257.60285532 172.12146108 253.41689742 168.94921875 248.99609375 C168.41981689 248.26173096 167.89041504 247.52736816 167.3449707 246.77075195 C166.79800537 246.00077881 166.25104004 245.23080566 165.6875 244.4375 C165.11281982 243.63465576 164.53813965 242.83181152 163.94604492 242.00463867 C159.49254978 235.75646081 155.19953034 229.42181701 151 223 C145.4164186 214.51040153 139.71279616 206.12607074 133.82446289 197.84472656 C128.90321323 190.90536546 124.11473744 183.8777684 119.33911133 176.83764648 C115.27809201 170.85458431 111.16260343 164.91285219 107 159 C106.34515625 159.77601563 105.6903125 160.55203125 105.015625 161.3515625 C88.79063325 180.56236167 88.79063325 180.56236167 80.5 190 C73.66390909 197.78647428 66.88750196 205.62770147 60.375 213.6875 C56.57557031 218.37163444 52.55599792 222.80932528 48.47265625 227.24609375 C45.257269 230.82721225 42.24929901 234.55707402 39.2265625 238.30078125 C36.33605752 241.80488465 33.3051322 245.16576897 30.23828125 248.515625 C28.06025484 250.80588872 28.06025484 250.80588872 26.79589844 252.83813477 C24.65181411 255.89542588 23.20086916 257.7357557 19.45922852 258.55908203 C16.48497482 258.68867361 13.59666378 258.61196542 10.625 258.4375 C9.60277344 258.40591797 8.58054688 258.37433594 7.52734375 258.34179688 C5.01524566 258.25962544 2.50913466 258.14484348 0 258 C0 253.87255657 1.61750496 252.95305417 4.4375 250 C7.94174486 246.27176222 11.29316124 242.4927724 14.5 238.5 C17.55348679 234.71539666 20.70668301 231.07792463 24 227.5 C28.01529746 223.13313271 31.79137958 218.63188173 35.51953125 214.01953125 C42.04229591 206.07922088 48.83699685 198.35188634 55.75 190.75 C59.48063022 186.63414166 62.98809839 182.37002191 66.484375 178.0546875 C73.10289136 170.01791764 79.97971218 162.18721516 87 154.5 C90.32319585 150.84020051 93.23819543 147.09816161 96 143 C91.58451049 136.25988514 87.04958317 129.62525116 82.375 123.0625 C77.79241066 116.62125342 73.36280022 110.09190252 69 103.5 C63.74934265 95.56967202 58.3546948 87.76265486 52.84375 80.01171875 C46.77740323 71.47579499 40.90173459 62.80659678 35.0234375 54.140625 C26.61836238 41.75097135 18.13964742 29.42154982 9.52636719 17.17578125 C5.99073156 12.13586047 2.49561871 7.06772237 -1 2 C-0.67 1.34 -0.34 0.68 0 0 Z M31 18 C35.03621662 24.42799404 39.14147564 30.76776315 43.5625 36.9375 C44.60196628 38.39945257 45.64101038 39.86170539 46.6796875 41.32421875 C47.21819336 42.08138184 47.75669922 42.83854492 48.31152344 43.61865234 C51.2880341 47.81658251 54.2376504 52.03331206 57.1875 56.25 C57.78361084 57.10174805 58.37972168 57.95349609 58.99389648 58.83105469 C62.2177018 63.44070723 65.42914983 68.0584295 68.625 72.6875 C71.90691754 77.4387531 75.22671509 82.16154638 78.5625 86.875 C87.67212475 99.75023328 96.65788155 112.71273085 105.625 125.6875 C113.21908203 136.66637288 120.87845515 147.60064684 128.59619141 158.49291992 C133.27578582 165.09780202 137.88592835 171.74369244 142.4375 178.4375 C147.21171505 185.45605895 152.12054754 192.36064605 157.11816406 199.22143555 C161.07139001 204.66695067 164.90237463 210.18655675 168.6875 215.75 C169.76422661 217.32688868 170.84104763 218.9037129 171.91796875 220.48046875 C173.43663614 222.70465505 174.95289541 224.930202 176.45947266 227.16259766 C177.79497865 229.13728844 179.14539141 231.10088436 180.5 233.0625 C180.88502686 233.64032227 181.27005371 234.21814453 181.66674805 234.81347656 C184.12462442 238.33472771 185.92384539 239.75691739 190 241 C193.28906701 241.27390961 193.28906701 241.27390961 196.83203125 241.1953125 C198.12431641 241.18886719 199.41660156 241.18242187 200.74804688 241.17578125 C202.1028673 241.15907327 203.45768501 241.14214342 204.8125 241.125 C206.18684251 241.11496003 207.56119203 241.10583596 208.93554688 241.09765625 C212.29054317 241.07411242 215.64518199 241.04122567 219 241 C215.98675196 235.46963192 212.54273942 230.44361533 208.8125 225.375 C207.64099541 223.76760569 206.47042565 222.15952966 205.30078125 220.55078125 C204.73311035 219.77041504 204.16543945 218.99004883 203.58056641 218.18603516 C198.91891428 211.73864048 194.46368617 205.14616033 189.98046875 198.57421875 C183.75928343 189.45791533 177.48200943 180.38835163 171.1015625 171.3828125 C163.49220419 160.64162826 155.9419731 149.85787043 148.5 139 C139.8987522 126.45657986 131.19775992 113.98652556 122.25 101.6875 C117.88068091 95.67976808 113.67284795 89.59412494 109.58789062 83.39013672 C106.50334153 78.71721925 103.2935285 74.15012475 100.02172852 69.60693359 C94.55599578 62.01219881 89.21649362 54.3290418 83.85839844 46.65820312 C81.95235239 43.93184614 80.04305468 41.20779333 78.1328125 38.484375 C77.50342773 37.5867041 76.87404297 36.6890332 76.22558594 35.76416016 C75.02358512 34.0499611 73.82113671 32.33607578 72.61816406 30.62255859 C72.0712793 29.84219238 71.52439453 29.06182617 70.9609375 28.2578125 C70.24623291 27.23905029 70.24623291 27.23905029 69.51708984 26.19970703 C68 24 68 24 66.29052734 20.77050781 C64.21105369 17.65905459 64.21105369 17.65905459 60.51660156 17.31884766 C59.1409102 17.31979172 57.76497699 17.35336488 56.390625 17.4140625 C55.66381531 17.42255219 54.93700562 17.43104187 54.18817139 17.43978882 C51.87391879 17.47329399 49.56319295 17.54855068 47.25 17.625 C45.67843587 17.65510411 44.10681692 17.68247917 42.53515625 17.70703125 C38.68875187 17.7730735 34.84497309 17.87656079 31 18 Z " fill="#000000" transform="translate(123,61)"/>
</svg>
